Georama-Xp-XBk.ufo
<glyph name="ampersand" format="2">
	<advance width="1136"/>
	<unicode hex="0026"/>
	<outline>
		<contour>
			<point x="750" y="0" type="line"/>
			<point x="1124" y="0" type="line"/>
			<point x="583" y="435" type="line" smooth="yes"/>
			<point x="525" y="482"/>
			<point x="516" y="490"/>
			<point x="516" y="509" type="curve" smooth="yes"/>
			<point x="516" y="532"/>
			<point x="539" y="543"/>
			<point x="578" y="543" type="curve" smooth="yes"/>
			<point x="616" y="543"/>
			<point x="636" y="529"/>
			<point x="636" y="502" type="curve" smooth="yes"/>
			<point x="636" y="482"/>
			<point x="624" y="469"/>
			<point x="603" y="459" type="curve"/>
			<point x="731" y="361" type="line"/>
			<point x="876" y="396"/>
			<point x="920" y="452"/>
			<point x="920" y="526" type="curve" smooth="yes"/>
			<point x="920" y="644"/>
			<point x="796" y="710"/>
			<point x="565" y="710" type="curve" smooth="yes"/>
			<point x="294" y="710"/>
			<point x="198" y="627"/>
			<point x="198" y="505" type="curve" smooth="yes"/>
			<point x="198" y="456"/>
			<point x="206" y="411"/>
			<point x="276" y="358" type="curve" smooth="yes"/>
		</contour>
		<contour>
			<point x="439" y="-10" type="curve" smooth="yes"/>
			<point x="592" y="-10"/>
			<point x="667" y="11"/>
			<point x="737" y="44" type="curve"/>
			<point x="578" y="178" type="line"/>
			<point x="562" y="173"/>
			<point x="540" y="170"/>
			<point x="492" y="170" type="curve" smooth="yes"/>
			<point x="397" y="170"/>
			<point x="332" y="209"/>
			<point x="332" y="253" type="curve" smooth="yes"/>
			<point x="332" y="279"/>
			<point x="350" y="290"/>
			<point x="385" y="298" type="curve"/>
			<point x="247" y="406" type="line"/>
			<point x="108" y="380"/>
			<point x="48" y="317"/>
			<point x="48" y="227" type="curve" smooth="yes"/>
			<point x="48" y="75"/>
			<point x="181" y="-10"/>
		</contour>
		<contour>
			<point x="932" y="113" type="line"/>
			<point x="1003" y="167"/>
			<point x="1051" y="238"/>
			<point x="1051" y="320" type="curve" smooth="yes"/>
			<point x="1051" y="341"/>
			<point x="1050" y="346"/>
			<point x="1049" y="358" type="curve"/>
			<point x="812" y="358" type="line"/>
			<point x="812" y="344"/>
			<point x="811" y="330"/>
			<point x="807" y="318" type="curve" smooth="yes"/>
			<point x="799" y="294"/>
			<point x="788" y="275"/>
			<point x="753" y="255" type="curve"/>
		</contour>
	</outline>
</glyph>
<glyph name="parenleft" format="2">
	<advance width="500"/>
	<unicode hex="0028"/>
	<outline>
		<contour>
			<point x="38" y="265" type="curve" smooth="yes"/>
			<point x="38" y="30"/>
			<point x="157" y="-197"/>
			<point x="462" y="-220" type="curve"/>
			<point x="462" y="-52" type="line"/>
			<point x="315" y="-9"/>
			<point x="280" y="87"/>
			<point x="280" y="265" type="curve" smooth="yes"/>
			<point x="280" y="443"/>
			<point x="315" y="539"/>
			<point x="462" y="582" type="curve"/>
			<point x="462" y="750" type="line"/>
			<point x="157" y="727"/>
			<point x="38" y="500"/>
		</contour>
	</outline>
</glyph>
<glyph name="parenright" format="2">
  <advance width="500"/>
  <unicode hex="0029"/>
  <outline>
    <contour>
      <point x="38" y="-52" type="curve"/>
      <point x="38" y="-220" type="line"/>
      <point x="343" y="-197"/>
      <point x="462" y="30"/>
      <point x="462" y="265" type="curve" smooth="yes"/>
      <point x="462" y="500"/>
      <point x="343" y="727"/>
      <point x="38" y="750" type="curve"/>
      <point x="38" y="582" type="line"/>
      <point x="185" y="539"/>
      <point x="220" y="443"/>
      <point x="220" y="265" type="curve" smooth="yes"/>
      <point x="220" y="87"/>
      <point x="185" y="-9"/>
    </contour>
  </outline>
</glyph>
<glyph name="asterisk" format="2">
	<advance width="500"/>
	<unicode hex="002A"/>
	<outline>
		<contour>
			<point x="162" y="282" type="line"/>
			<point x="250" y="374" type="line"/>
			<point x="338" y="282" type="line"/>
			<point x="433" y="348" type="line"/>
			<point x="371" y="461" type="line"/>
			<point x="486" y="517" type="line"/>
			<point x="450" y="625" type="line"/>
			<point x="324" y="605" type="line"/>
			<point x="309" y="730" type="line"/>
			<point x="191" y="730" type="line"/>
			<point x="176" y="605" type="line"/>
			<point x="50" y="625" type="line"/>
			<point x="14" y="517" type="line"/>
			<point x="129" y="461" type="line"/>
			<point x="67" y="348" type="line"/>
		</contour>
	</outline>
</glyph>
<glyph name="plus" format="2">
	<advance width="782"/>
	<unicode hex="002B"/>
	<outline>
		<contour>
			<point x="268" y="87" type="line"/>
			<point x="513" y="87" type="line"/>
			<point x="513" y="216" type="line"/>
			<point x="722" y="216" type="line"/>
			<point x="722" y="421" type="line"/>
			<point x="513" y="421" type="line"/>
			<point x="513" y="549" type="line"/>
			<point x="268" y="549" type="line"/>
			<point x="268" y="421" type="line"/>
			<point x="60" y="421" type="line"/>
			<point x="60" y="216" type="line"/>
			<point x="268" y="216" type="line"/>
		</contour>
	</outline>
</glyph>
<glyph name="comma" format="2">
	<advance width="390"/>
	<unicode hex="002C"/>
	<outline>
		<contour>
			<point x="61" y="111" type="line"/>
			<point x="63" y="89"/>
			<point x="64" y="66"/>
			<point x="64" y="44" type="curve" smooth="yes"/>
			<point x="64" y="-31"/>
			<point x="49" y="-106"/>
			<point x="-9" y="-177" type="curve"/>
			<point x="223" y="-200" type="line"/>
			<point x="305" y="-123"/>
			<point x="346" y="-48"/>
			<point x="346" y="37" type="curve" smooth="yes"/>
			<point x="346" y="65"/>
			<point x="342" y="91"/>
			<point x="334" y="112" type="curve"/>
		</contour>
	</outline>
</glyph>
<glyph name="period" format="2">
	<advance width="406"/>
	<unicode hex="002E"/>
	<outline>
		<contour>
			<point x="40" y="103" type="curve" smooth="yes"/>
			<point x="40" y="28"/>
			<point x="85" y="-11"/>
			<point x="203" y="-11" type="curve" smooth="yes"/>
			<point x="321" y="-11"/>
			<point x="366" y="28"/>
			<point x="366" y="103" type="curve" smooth="yes"/>
			<point x="366" y="179"/>
			<point x="321" y="218"/>
			<point x="203" y="218" type="curve" smooth="yes"/>
			<point x="85" y="218"/>
			<point x="40" y="179"/>
		</contour>
	</outline>
</glyph>
<glyph name="zero" format="2">
	<advance width="1050"/>
	<unicode hex="0030"/>
	<outline>
		<contour>
			<point x="41" y="350" type="curve" smooth="yes"/>
			<point x="41" y="69"/>
			<point x="270" y="-10"/>
			<point x="525" y="-10" type="curve" smooth="yes"/>
			<point x="780" y="-10"/>
			<point x="1009" y="69"/>
			<point x="1009" y="350" type="curve" smooth="yes"/>
			<point x="1009" y="631"/>
			<point x="780" y="710"/>
			<point x="525" y="710" type="curve" smooth="yes"/>
			<point x="270" y="710"/>
			<point x="41" y="631"/>
		</contour>
		<contour>
			<point x="356" y="350" type="curve" smooth="yes"/>
			<point x="356" y="487"/>
			<point x="436" y="526"/>
			<point x="525" y="526" type="curve" smooth="yes"/>
			<point x="614" y="526"/>
			<point x="694" y="487"/>
			<point x="694" y="350" type="curve" smooth="yes"/>
			<point x="694" y="213"/>
			<point x="614" y="174"/>
			<point x="525" y="174" type="curve" smooth="yes"/>
			<point x="436" y="174"/>
			<point x="356" y="213"/>
		</contour>
	</outline>
</glyph>
<glyph name="four" format="2">
	<advance width="1050"/>
	<unicode hex="0034"/>
	<outline>
		<contour>
			<point x="13" y="88" type="line"/>
			<point x="531" y="88" type="line"/>
			<point x="531" y="0" type="line"/>
			<point x="846" y="0" type="line"/>
			<point x="846" y="88" type="line"/>
			<point x="988" y="88" type="line"/>
			<point x="988" y="267" type="line"/>
			<point x="846" y="267" type="line"/>
			<point x="846" y="700" type="line"/>
			<point x="661" y="700" type="line"/>
			<point x="13" y="229" type="line"/>
		</contour>
		<contour>
			<point x="357" y="267" type="line"/>
			<point x="531" y="389" type="line"/>
			<point x="531" y="267" type="line"/>
		</contour>
	</outline>
</glyph>
<glyph name="greater" format="2">
  <advance width="782"/>
  <unicode hex="003E"/>
  <outline>
    <contour>
      <point x="722" y="214" type="line"/>
      <point x="722" y="419" type="line"/>
      <point x="60" y="616" type="line"/>
      <point x="60" y="401" type="line"/>
      <point x="476" y="318" type="line"/>
      <point x="60" y="234" type="line"/>
      <point x="60" y="21" type="line"/>
    </contour>
  </outline>
</glyph>
<glyph name="at" format="2">
	<advance width="1109"/>
	<unicode hex="0040"/>
	<outline>
		<contour>
			<point x="496" y="-124" type="curve" smooth="yes"/>
			<point x="584" y="-124"/>
			<point x="682" y="-114"/>
			<point x="768" y="-96" type="curve"/>
			<point x="741" y="12" type="line"/>
			<point x="675" y="-3"/>
			<point x="592" y="-12"/>
			<point x="517" y="-12" type="curve" smooth="yes"/>
			<point x="314" y="-12"/>
			<point x="154" y="45"/>
			<point x="154" y="257" type="curve" smooth="yes"/>
			<point x="154" y="450"/>
			<point x="308" y="602"/>
			<point x="567" y="602" type="curve" smooth="yes"/>
			<point x="823" y="602"/>
			<point x="959" y="505"/>
			<point x="959" y="326" type="curve" smooth="yes"/>
			<point x="959" y="202"/>
			<point x="919" y="160"/>
			<point x="867" y="165" type="curve" smooth="yes"/>
			<point x="839" y="165"/>
			<point x="821" y="184"/>
			<point x="825" y="232" type="curve" smooth="yes"/>
			<point x="843" y="467" type="line"/>
			<point x="769" y="492"/>
			<point x="659" y="510"/>
			<point x="589" y="510" type="curve" smooth="yes"/>
			<point x="390" y="510"/>
			<point x="263" y="413"/>
			<point x="263" y="259" type="curve" smooth="yes"/>
			<point x="263" y="142"/>
			<point x="338" y="63"/>
			<point x="468" y="63" type="curve" smooth="yes"/>
			<point x="558" y="63"/>
			<point x="627" y="111"/>
			<point x="667" y="159" type="curve"/>
			<point x="691" y="96"/>
			<point x="739" y="54"/>
			<point x="835" y="54" type="curve" smooth="yes"/>
			<point x="1014" y="44"/>
			<point x="1082" y="183"/>
			<point x="1082" y="327" type="curve" smooth="yes"/>
			<point x="1082" y="565"/>
			<point x="899" y="710"/>
			<point x="586" y="710" type="curve" smooth="yes"/>
			<point x="239" y="710"/>
			<point x="27" y="514"/>
			<point x="27" y="255" type="curve" smooth="yes"/>
			<point x="27" y="-32"/>
			<point x="230" y="-124"/>
		</contour>
		<contour>
			<point x="534" y="199" type="curve" smooth="yes"/>
			<point x="490" y="199"/>
			<point x="461" y="228"/>
			<point x="461" y="284" type="curve" smooth="yes"/>
			<point x="461" y="356"/>
			<point x="514" y="382"/>
			<point x="568" y="382" type="curve" smooth="yes"/>
			<point x="601" y="382"/>
			<point x="622" y="381"/>
			<point x="653" y="369" type="curve"/>
			<point x="643" y="264" type="line"/>
			<point x="614" y="220"/>
			<point x="576" y="199"/>
		</contour>
	</outline>
</glyph>
<glyph name="B" format="2">
  <advance width="1076"/>
  <unicode hex="0042"/>
  <anchor x="535" y="700" name="top"/>
  <anchor x="535" y="0" name="bottom"/>
  <outline>
    <contour>
      <point x="75" y="5" type="line"/>
      <point x="354" y="-8"/>
      <point x="359" y="-10"/>
      <point x="546" y="-10" type="curve" smooth="yes"/>
      <point x="954" y="-10"/>
      <point x="1064" y="38"/>
      <point x="1064" y="209" type="curve" smooth="yes"/>
      <point x="1064" y="311"/>
      <point x="981" y="377"/>
      <point x="840" y="392" type="curve"/>
      <point x="840" y="394" type="line"/>
      <point x="959" y="426"/>
      <point x="1000" y="466"/>
      <point x="1000" y="550" type="curve" smooth="yes"/>
      <point x="1000" y="670"/>
      <point x="887" y="710"/>
      <point x="546" y="710" type="curve" smooth="yes"/>
      <point x="424" y="710"/>
      <point x="270" y="705"/>
      <point x="75" y="695" type="curve"/>
    </contour>
    <contour>
      <point x="395" y="435" type="line"/>
      <point x="395" y="506" type="line"/>
      <point x="463" y="509"/>
      <point x="471" y="510"/>
      <point x="529" y="510" type="curve" smooth="yes"/>
      <point x="657" y="510"/>
      <point x="686" y="502"/>
      <point x="686" y="473" type="curve" smooth="yes"/>
      <point x="686" y="446"/>
      <point x="656" y="435"/>
      <point x="606" y="435" type="curve" smooth="yes"/>
    </contour>
    <contour>
      <point x="395" y="194" type="curve"/>
      <point x="395" y="266" type="line"/>
      <point x="600" y="266" type="line" smooth="yes"/>
      <point x="700" y="266"/>
      <point x="725" y="259"/>
      <point x="725" y="229" type="curve" smooth="yes"/>
      <point x="725" y="196"/>
      <point x="691" y="190"/>
      <point x="515" y="190" type="curve" smooth="yes"/>
      <point x="488" y="190"/>
      <point x="426" y="192"/>
    </contour>
  </outline>
</glyph>
<glyph name="E" format="2">
  <advance width="1035"/>
  <unicode hex="0045"/>
  <anchor x="992" y="0" name="ogonek"/>
  <anchor x="534" y="0" name="bottom"/>
  <anchor x="548" y="700" name="top"/>
  <outline>
    <contour>
      <point x="75" y="0" type="line"/>
      <point x="992" y="0" type="line"/>
      <point x="992" y="205" type="line"/>
      <point x="385" y="205" type="line"/>
      <point x="385" y="261" type="line"/>
      <point x="931" y="261" type="line"/>
      <point x="931" y="441" type="line"/>
      <point x="385" y="441" type="line"/>
      <point x="385" y="495" type="line"/>
      <point x="963" y="495" type="line"/>
      <point x="963" y="700" type="line"/>
      <point x="75" y="700" type="line"/>
    </contour>
  </outline>
</glyph>
<glyph name="K" format="2">
  <advance width="1078"/>
  <unicode hex="004B"/>
  <anchor x="535" y="700" name="top"/>
  <anchor x="545" y="0" name="bottom"/>
  <outline>
    <contour>
      <point x="1008" y="-10" type="curve" smooth="yes"/>
      <point x="1019" y="-10"/>
      <point x="1031" y="-9"/>
      <point x="1043" y="-8" type="curve"/>
      <point x="1043" y="252" type="line"/>
      <point x="1031" y="251"/>
      <point x="1020" y="251"/>
      <point x="1009" y="251" type="curve" smooth="yes"/>
      <point x="930" y="251"/>
      <point x="843" y="269"/>
      <point x="735" y="319" type="curve" smooth="yes"/>
      <point x="394" y="476" type="line"/>
      <point x="394" y="700" type="line"/>
      <point x="75" y="700" type="line"/>
      <point x="75" y="0" type="line"/>
      <point x="394" y="0" type="line"/>
      <point x="394" y="213" type="line"/>
      <point x="711" y="50" type="line" smooth="yes"/>
      <point x="809" y="0"/>
      <point x="924" y="-10"/>
    </contour>
    <contour>
      <point x="607" y="315" type="line"/>
      <point x="818" y="365"/>
      <point x="947" y="455"/>
      <point x="1035" y="552" type="curve"/>
      <point x="810" y="720" type="line"/>
      <point x="678" y="583"/>
      <point x="536" y="482"/>
      <point x="381" y="411" type="curve"/>
    </contour>
  </outline>
</glyph>
<glyph name="M" format="2">
  <advance width="1232"/>
  <unicode hex="004D"/>
  <outline>
    <contour>
      <point x="75" y="0" type="line"/>
      <point x="370" y="0" type="line"/>
      <point x="370" y="346" type="line"/>
      <point x="543" y="91" type="line"/>
      <point x="680" y="91" type="line"/>
      <point x="862" y="358" type="line"/>
      <point x="862" y="0" type="line"/>
      <point x="1157" y="0" type="line"/>
      <point x="1157" y="700" type="line"/>
      <point x="854" y="700" type="line"/>
      <point x="622" y="362" type="line"/>
      <point x="398" y="700" type="line"/>
      <point x="75" y="700" type="line"/>
    </contour>
  </outline>
</glyph>
<glyph name="O" format="2">
  <advance width="1143"/>
  <unicode hex="004F"/>
  <anchor x="709" y="-3" name="ogonek"/>
  <anchor x="572" y="700" name="top"/>
  <anchor x="919" y="687" name="topright"/>
  <anchor x="573" y="0" name="bottom"/>
  <outline>
    <contour>
      <point x="573" y="189" type="curve" smooth="yes"/>
      <point x="434" y="189"/>
      <point x="361" y="243"/>
      <point x="361" y="352" type="curve" smooth="yes"/>
      <point x="361" y="456"/>
      <point x="430" y="511"/>
      <point x="573" y="511" type="curve" smooth="yes"/>
      <point x="722" y="511"/>
      <point x="782" y="446"/>
      <point x="782" y="352" type="curve" smooth="yes"/>
      <point x="782" y="255"/>
      <point x="720" y="189"/>
    </contour>
    <contour>
      <point x="573" y="-10" type="curve" smooth="yes"/>
      <point x="944" y="-10"/>
      <point x="1107" y="115"/>
      <point x="1107" y="354" type="curve" smooth="yes"/>
      <point x="1107" y="578"/>
      <point x="967" y="710"/>
      <point x="573" y="710" type="curve" smooth="yes"/>
      <point x="176" y="710"/>
      <point x="36" y="578"/>
      <point x="36" y="354" type="curve" smooth="yes"/>
      <point x="36" y="115"/>
      <point x="199" y="-10"/>
    </contour>
  </outline>
</glyph>
<glyph name="Q" format="2">
  <advance width="1143"/>
  <unicode hex="0051"/>
  <outline>
    <contour>
      <point x="890" y="44" type="curve"/>
      <point x="594" y="6" type="line"/>
      <point x="675" y="-140"/>
      <point x="787" y="-211"/>
      <point x="933" y="-211" type="curve" smooth="yes"/>
      <point x="981" y="-211"/>
      <point x="1032" y="-204"/>
      <point x="1087" y="-189" type="curve"/>
      <point x="1055" y="18" type="line"/>
      <point x="1036" y="13"/>
      <point x="1017" y="11"/>
      <point x="997" y="11" type="curve" smooth="yes"/>
      <point x="959" y="11"/>
      <point x="920" y="20"/>
    </contour>
    <component base="O"/>
  </outline>
</glyph>
<glyph name="T" format="2">
  <advance width="1084"/>
  <unicode hex="0054"/>
  <anchor x="542" y="700" name="top"/>
  <anchor x="542" y="0" name="bottom"/>
  <outline>
    <contour>
      <point x="1049" y="460" type="line"/>
      <point x="1049" y="700" type="line"/>
      <point x="35" y="700" type="line"/>
      <point x="35" y="460" type="line"/>
      <point x="382" y="460" type="line"/>
      <point x="382" y="0" type="line"/>
      <point x="702" y="0" type="line"/>
      <point x="702" y="460" type="line"/>
    </contour>
  </outline>
</glyph>
<glyph name="V" format="2">
	<advance width="1078"/>
	<unicode hex="0056"/>
	<outline>
		<contour>
			<point x="369" y="0" type="line"/>
			<point x="709" y="0" type="line"/>
			<point x="1086" y="700" type="line"/>
			<point x="730" y="700" type="line"/>
			<point x="541" y="236" type="line"/>
			<point x="352" y="700" type="line"/>
			<point x="-8" y="700" type="line"/>
		</contour>
	</outline>
</glyph>
<glyph name="W" format="2">
	<advance width="1263"/>
	<unicode hex="0057"/>
	<anchor x="632" y="700" name="top"/>
	<anchor x="632" y="0" name="bottom"/>
	<outline>
		<contour>
			<point x="1042" y="0" type="line"/>
			<point x="1266" y="700" type="line"/>
			<point x="926" y="700" type="line"/>
			<point x="889" y="276" type="line"/>
			<point x="798" y="662" type="line"/>
			<point x="476" y="662" type="line"/>
			<point x="368" y="273" type="line"/>
			<point x="331" y="700" type="line"/>
			<point x="-3" y="700" type="line"/>
			<point x="210" y="0" type="line"/>
			<point x="512" y="0" type="line"/>
			<point x="625" y="348" type="line"/>
			<point x="720" y="0" type="line"/>
		</contour>
	</outline>
</glyph>
<glyph name="X" format="2">
	<advance width="979"/>
	<unicode hex="0058"/>
	<outline>
		<contour>
			<point x="-4" y="0" type="line"/>
			<point x="405" y="0" type="line"/>
			<point x="503" y="208" type="line"/>
			<point x="605" y="0" type="line"/>
			<point x="983" y="0" type="line"/>
			<point x="696" y="361" type="line"/>
			<point x="969" y="700" type="line"/>
			<point x="605" y="700" type="line"/>
			<point x="497" y="513" type="line"/>
			<point x="404" y="700" type="line"/>
			<point x="22" y="700" type="line"/>
			<point x="293" y="365" type="line"/>
		</contour>
	</outline>
</glyph>
<glyph name="Y" format="2">
	<advance width="1078"/>
	<unicode hex="0059"/>
	<anchor x="539" y="700" name="top"/>
	<anchor x="539" y="0" name="bottom"/>
	<outline>
		<contour>
			<point x="379" y="0" type="line"/>
			<point x="699" y="0" type="line"/>
			<point x="699" y="226" type="line"/>
			<point x="1086" y="700" type="line"/>
			<point x="730" y="700" type="line"/>
			<point x="541" y="387" type="line"/>
			<point x="352" y="700" type="line"/>
			<point x="-8" y="700" type="line"/>
			<point x="379" y="226" type="line"/>
		</contour>
	</outline>
</glyph>
<glyph name="bracketleft" format="2">
	<advance width="500"/>
	<unicode hex="005B"/>
	<outline>
		<contour>
			<point x="268" y="-52" type="line"/>
			<point x="268" y="582" type="line"/>
			<point x="462" y="582" type="line"/>
			<point x="462" y="740" type="line"/>
			<point x="38" y="740" type="line"/>
			<point x="38" y="-210" type="line"/>
			<point x="462" y="-210" type="line"/>
			<point x="462" y="-52" type="line"/>
		</contour>
	</outline>
</glyph>
<glyph name="bracketright" format="2">
  <advance width="500"/>
  <unicode hex="005D"/>
  <outline>
    <contour>
      <point x="38" y="-52" type="line"/>
      <point x="38" y="-210" type="line"/>
      <point x="462" y="-210" type="line"/>
      <point x="462" y="740" type="line"/>
      <point x="38" y="740" type="line"/>
      <point x="38" y="582" type="line"/>
      <point x="232" y="582" type="line"/>
      <point x="232" y="-52" type="line"/>
    </contour>
  </outline>
</glyph>
<glyph name="asciicircum" format="2">
	<advance width="782"/>
	<unicode hex="005E"/>
	<outline>
		<contour>
			<point x="42" y="202" type="line"/>
			<point x="277" y="202" type="line"/>
			<point x="391" y="407" type="line"/>
			<point x="506" y="202" type="line"/>
			<point x="740" y="202" type="line"/>
			<point x="511" y="700" type="line"/>
			<point x="271" y="700" type="line"/>
		</contour>
	</outline>
</glyph>
<glyph name="e" format="2">
  <advance width="863"/>
  <unicode hex="0065"/>
  <anchor x="754" y="13" name="ogonek"/>
  <anchor x="432" y="0" name="bottom"/>
  <anchor x="444" y="550" name="top"/>
  <outline>
    <contour>
      <point x="466" y="-10" type="curve" smooth="yes"/>
      <point x="603" y="-10"/>
      <point x="705" y="-1"/>
      <point x="823" y="26" type="curve"/>
      <point x="794" y="193" type="line"/>
      <point x="670" y="172"/>
      <point x="571" y="165"/>
      <point x="498" y="165" type="curve" smooth="yes"/>
      <point x="381" y="165"/>
      <point x="340" y="181"/>
      <point x="338" y="201" type="curve" smooth="yes"/>
      <point x="338" y="202"/>
      <point x="338" y="202"/>
      <point x="338" y="203" type="curve"/>
      <point x="562" y="208"/>
      <point x="704" y="217"/>
      <point x="819" y="222" type="curve"/>
      <point x="821" y="241"/>
      <point x="821" y="269"/>
      <point x="821" y="286" type="curve" smooth="yes"/>
      <point x="821" y="476"/>
      <point x="701" y="560"/>
      <point x="450" y="560" type="curve" smooth="yes"/>
      <point x="234" y="560"/>
      <point x="29" y="482"/>
      <point x="29" y="268" type="curve" smooth="yes"/>
      <point x="29" y="49"/>
      <point x="206" y="-10"/>
    </contour>
    <contour>
      <point x="339" y="340" type="curve"/>
      <point x="355" y="375"/>
      <point x="384" y="392"/>
      <point x="435" y="392" type="curve" smooth="yes"/>
      <point x="493" y="392"/>
      <point x="515" y="374"/>
      <point x="523" y="345" type="curve"/>
      <point x="465" y="343"/>
      <point x="397" y="342"/>
    </contour>
  </outline>
</glyph>
<glyph name="f" format="2">
	<advance width="657"/>
	<unicode hex="0066"/>
	<outline>
		<contour>
			<point x="118" y="0" type="line"/>
			<point x="414" y="0" type="line"/>
			<point x="414" y="305" type="line"/>
			<point x="615" y="305" type="line"/>
			<point x="615" y="484" type="line"/>
			<point x="414" y="484" type="line"/>
			<point x="414" y="494" type="line" smooth="yes"/>
			<point x="414" y="535"/>
			<point x="452" y="553"/>
			<point x="513" y="553" type="curve" smooth="yes"/>
			<point x="556" y="553"/>
			<point x="620" y="545"/>
			<point x="655" y="536" type="curve"/>
			<point x="687" y="717" type="line"/>
			<point x="619" y="738"/>
			<point x="533" y="750"/>
			<point x="452" y="750" type="curve" smooth="yes"/>
			<point x="238" y="750"/>
			<point x="118" y="658"/>
			<point x="118" y="500" type="curve" smooth="yes"/>
			<point x="118" y="484" type="line"/>
			<point x="14" y="464" type="line"/>
			<point x="14" y="305" type="line"/>
			<point x="118" y="305" type="line"/>
		</contour>
	</outline>
</glyph>
<glyph name="h" format="2">
  <advance width="892"/>
  <unicode hex="0068"/>
  <anchor x="436" y="395" name="center"/>
  <anchor x="446" y="0" name="bottom"/>
  <anchor x="445" y="740" name="top"/>
  <outline>
    <contour>
      <point x="54" y="0" type="line"/>
      <point x="354" y="0" type="line"/>
      <point x="354" y="327" type="line"/>
      <point x="395" y="340"/>
      <point x="430" y="349"/>
      <point x="459" y="349" type="curve" smooth="yes"/>
      <point x="507" y="349"/>
      <point x="538" y="323"/>
      <point x="538" y="244" type="curve" smooth="yes"/>
      <point x="538" y="0" type="line"/>
      <point x="838" y="0" type="line"/>
      <point x="838" y="352" type="line" smooth="yes"/>
      <point x="838" y="461"/>
      <point x="760" y="560"/>
      <point x="582" y="560" type="curve" smooth="yes"/>
      <point x="500" y="560"/>
      <point x="440" y="541"/>
      <point x="354" y="501" type="curve"/>
      <point x="354" y="740" type="line"/>
      <point x="54" y="740" type="line"/>
    </contour>
  </outline>
</glyph>
<glyph name="i" format="2">
	<advance width="408"/>
	<unicode hex="0069"/>
	<anchor x="354" y="0" name="ogonek"/>
	<anchor x="204" y="0" name="bottom"/>
	<outline>
		<contour>
			<point x="204" y="570" type="curve" smooth="yes"/>
			<point x="334" y="570"/>
			<point x="384" y="608"/>
			<point x="384" y="680" type="curve" smooth="yes"/>
			<point x="384" y="752"/>
			<point x="334" y="790"/>
			<point x="204" y="790" type="curve" smooth="yes"/>
			<point x="74" y="790"/>
			<point x="24" y="752"/>
			<point x="24" y="680" type="curve" smooth="yes"/>
			<point x="24" y="608"/>
			<point x="74" y="570"/>
		</contour>
		<contour>
			<point x="54" y="0" type="line"/>
			<point x="354" y="0" type="line"/>
			<point x="354" y="550" type="line"/>
			<point x="54" y="550" type="line"/>
		</contour>
	</outline>
</glyph>
<glyph name="j" format="2">
	<advance width="436"/>
	<unicode hex="006A"/>
	<outline>
		<contour>
			<point x="382" y="550" type="line"/>
			<point x="82" y="550" type="line"/>
			<point x="82" y="85" type="line" smooth="yes"/>
			<point x="82" y="13"/>
			<point x="53" y="-9"/>
			<point x="-15" y="-9" type="curve" smooth="yes"/>
			<point x="-20" y="-9"/>
			<point x="-25" y="-9"/>
			<point x="-30" y="-9" type="curve"/>
			<point x="-40" y="-215" type="line"/>
			<point x="-10" y="-217"/>
			<point x="47" y="-220"/>
			<point x="76" y="-220" type="curve" smooth="yes"/>
			<point x="291" y="-220"/>
			<point x="382" y="-114"/>
			<point x="382" y="78" type="curve" smooth="yes"/>
		</contour>
		<contour>
			<point x="232" y="570" type="curve" smooth="yes"/>
			<point x="362" y="570"/>
			<point x="412" y="608"/>
			<point x="412" y="680" type="curve" smooth="yes"/>
			<point x="412" y="752"/>
			<point x="362" y="790"/>
			<point x="232" y="790" type="curve" smooth="yes"/>
			<point x="102" y="790"/>
			<point x="52" y="752"/>
			<point x="52" y="680" type="curve" smooth="yes"/>
			<point x="52" y="608"/>
			<point x="102" y="570"/>
		</contour>
	</outline>
</glyph>
<glyph name="k" format="2">
  <advance width="878"/>
  <unicode hex="006B"/>
  <anchor x="199" y="740" name="top"/>
  <anchor x="452" y="0" name="bottom"/>
  <outline>
    <contour>
      <point x="785" y="-10" type="curve" smooth="yes"/>
      <point x="815" y="-10"/>
      <point x="827" y="-9"/>
      <point x="838" y="-8" type="curve"/>
      <point x="838" y="239" type="line"/>
      <point x="827" y="238"/>
      <point x="817" y="238"/>
      <point x="805" y="238" type="curve" smooth="yes"/>
      <point x="752" y="238"/>
      <point x="695" y="251"/>
      <point x="566" y="314" type="curve" smooth="yes"/>
      <point x="344" y="421" type="line"/>
      <point x="344" y="740" type="line"/>
      <point x="54" y="740" type="line"/>
      <point x="54" y="0" type="line"/>
      <point x="344" y="0" type="line"/>
      <point x="344" y="165" type="line"/>
      <point x="528" y="69" type="line" smooth="yes"/>
      <point x="657" y="2"/>
      <point x="723" y="-10"/>
    </contour>
    <contour>
      <point x="529" y="263" type="line"/>
      <point x="622" y="309"/>
      <point x="786" y="427"/>
      <point x="835" y="550" type="curve"/>
      <point x="513" y="560" type="line"/>
      <point x="483" y="497"/>
      <point x="419" y="423"/>
      <point x="241" y="293" type="curve"/>
    </contour>
  </outline>
</glyph>
<glyph name="l" format="2">
  <advance width="530"/>
  <unicode hex="006C"/>
  <anchor x="264" y="395" name="center"/>
  <anchor x="204" y="740" name="top"/>
  <anchor x="394" y="740" name="topright"/>
  <anchor x="284" y="0" name="bottom"/>
  <outline>
    <contour>
      <point x="354" y="740" type="line"/>
      <point x="54" y="740" type="line"/>
      <point x="54" y="244" type="line" smooth="yes"/>
      <point x="54" y="55"/>
      <point x="144" y="-10"/>
      <point x="325" y="-10" type="curve" smooth="yes"/>
      <point x="408" y="-10"/>
      <point x="473" y="4"/>
      <point x="534" y="25" type="curve"/>
      <point x="500" y="220" type="line"/>
      <point x="463" y="211"/>
      <point x="437" y="206"/>
      <point x="416" y="206" type="curve" smooth="yes"/>
      <point x="375" y="206"/>
      <point x="354" y="215"/>
      <point x="354" y="258" type="curve" smooth="yes"/>
    </contour>
  </outline>
</glyph>
<glyph name="n" format="2">
	<advance width="892"/>
	<unicode hex="006E"/>
	<anchor x="436" y="550" name="top"/>
	<anchor x="436" y="0" name="bottom"/>
	<outline>
		<contour>
			<point x="54" y="0" type="line"/>
			<point x="354" y="0" type="line"/>
			<point x="354" y="327" type="line"/>
			<point x="395" y="340"/>
			<point x="430" y="349"/>
			<point x="459" y="349" type="curve" smooth="yes"/>
			<point x="507" y="349"/>
			<point x="538" y="323"/>
			<point x="538" y="244" type="curve" smooth="yes"/>
			<point x="538" y="0" type="line"/>
			<point x="838" y="0" type="line"/>
			<point x="838" y="352" type="line" smooth="yes"/>
			<point x="838" y="461"/>
			<point x="760" y="560"/>
			<point x="582" y="560" type="curve" smooth="yes"/>
			<point x="491" y="560"/>
			<point x="426" y="536"/>
			<point x="323" y="486" type="curve"/>
			<point x="323" y="550" type="line"/>
			<point x="54" y="550" type="line"/>
		</contour>
	</outline>
</glyph>
<glyph name="p" format="2">
  <advance width="929"/>
  <unicode hex="0070"/>
  <outline>
    <contour>
      <point x="54" y="-210" type="line"/>
      <point x="355" y="-210" type="line"/>
      <point x="355" y="-7" type="line"/>
      <point x="392" y="-9"/>
      <point x="430" y="-10"/>
      <point x="468" y="-10" type="curve" smooth="yes"/>
      <point x="770" y="-10"/>
      <point x="900" y="77"/>
      <point x="900" y="279" type="curve" smooth="yes"/>
      <point x="900" y="456"/>
      <point x="799" y="560"/>
      <point x="626" y="560" type="curve" smooth="yes"/>
      <point x="529" y="560"/>
      <point x="431" y="533"/>
      <point x="323" y="475" type="curve"/>
      <point x="323" y="550" type="line"/>
      <point x="54" y="550" type="line"/>
    </contour>
    <contour>
      <point x="471" y="171" type="curve" smooth="yes"/>
      <point x="432" y="171"/>
      <point x="390" y="176"/>
      <point x="354" y="186" type="curve"/>
      <point x="354" y="321" type="line"/>
      <point x="409" y="339"/>
      <point x="458" y="348"/>
      <point x="497" y="348" type="curve" smooth="yes"/>
      <point x="562" y="348"/>
      <point x="596" y="320"/>
      <point x="596" y="265" type="curve" smooth="yes"/>
      <point x="596" y="204"/>
      <point x="552" y="171"/>
    </contour>
  </outline>
</glyph>
<glyph name="s" format="2">
	<advance width="719"/>
	<unicode hex="0073"/>
	<anchor x="353" y="550" name="top"/>
	<anchor x="353" y="0" name="bottom"/>
	<outline>
		<contour>
			<point x="26" y="19" type="line"/>
			<point x="134" y="-5"/>
			<point x="234" y="-10"/>
			<point x="332" y="-10" type="curve" smooth="yes"/>
			<point x="484" y="-10"/>
			<point x="699" y="4"/>
			<point x="699" y="186" type="curve" smooth="yes"/>
			<point x="699" y="304"/>
			<point x="608" y="351"/>
			<point x="462" y="362" type="curve" smooth="yes"/>
			<point x="353" y="370"/>
			<point x="326" y="364"/>
			<point x="326" y="379" type="curve" smooth="yes"/>
			<point x="326" y="390"/>
			<point x="345" y="396"/>
			<point x="375" y="396" type="curve" smooth="yes"/>
			<point x="503" y="396"/>
			<point x="559" y="381"/>
			<point x="627" y="364" type="curve"/>
			<point x="656" y="528" type="line"/>
			<point x="572" y="548"/>
			<point x="494" y="560"/>
			<point x="381" y="560" type="curve" smooth="yes"/>
			<point x="149" y="560"/>
			<point x="42" y="502"/>
			<point x="42" y="348" type="curve" smooth="yes"/>
			<point x="42" y="251"/>
			<point x="94" y="208"/>
			<point x="205" y="190" type="curve" smooth="yes"/>
			<point x="310" y="173"/>
			<point x="411" y="184"/>
			<point x="411" y="162" type="curve" smooth="yes"/>
			<point x="411" y="153"/>
			<point x="390" y="147"/>
			<point x="357" y="147" type="curve" smooth="yes"/>
			<point x="280" y="147"/>
			<point x="140" y="164"/>
			<point x="55" y="186" type="curve"/>
		</contour>
	</outline>
</glyph>
<glyph name="w" format="2">
	<advance width="1179"/>
	<unicode hex="0077"/>
	<anchor x="590" y="550" name="top"/>
	<anchor x="590" y="0" name="bottom"/>
	<outline>
		<contour>
			<point x="181" y="0" type="line"/>
			<point x="507" y="0" type="line"/>
			<point x="579" y="268" type="line"/>
			<point x="670" y="0" type="line"/>
			<point x="980" y="0" type="line"/>
			<point x="1169" y="550" type="line"/>
			<point x="880" y="550" type="line"/>
			<point x="834" y="238" type="line"/>
			<point x="747" y="550" type="line"/>
			<point x="432" y="550" type="line"/>
			<point x="347" y="240" type="line"/>
			<point x="309" y="550" type="line"/>
			<point x="10" y="550" type="line"/>
		</contour>
	</outline>
</glyph>
<glyph name="z" format="2">
	<advance width="842"/>
	<unicode hex="007A"/>
	<anchor x="421" y="550" name="top"/>
	<outline>
		<contour>
			<point x="40" y="0" type="line"/>
			<point x="800" y="0" type="line"/>
			<point x="800" y="186" type="line"/>
			<point x="458" y="186" type="line"/>
			<point x="776" y="390" type="line"/>
			<point x="776" y="550" type="line"/>
			<point x="64" y="550" type="line"/>
			<point x="64" y="364" type="line"/>
			<point x="368" y="364" type="line"/>
			<point x="40" y="160" type="line"/>
		</contour>
	</outline>
</glyph>
<glyph name="braceleft" format="2">
	<advance width="500"/>
	<unicode hex="007B"/>
	<outline>
		<contour>
			<point x="63" y="-33" type="curve" smooth="yes"/>
			<point x="63" y="-163"/>
			<point x="175" y="-210"/>
			<point x="304" y="-210" type="curve" smooth="yes"/>
			<point x="462" y="-210" type="line"/>
			<point x="462" y="-52" type="line"/>
			<point x="388" y="-52" type="line" smooth="yes"/>
			<point x="346" y="-52"/>
			<point x="327" y="-33"/>
			<point x="327" y="0" type="curve" smooth="yes"/>
			<point x="327" y="43"/>
			<point x="370" y="87"/>
			<point x="370" y="139" type="curve" smooth="yes"/>
			<point x="370" y="187"/>
			<point x="356" y="229"/>
			<point x="265" y="265" type="curve"/>
			<point x="356" y="303"/>
			<point x="370" y="343"/>
			<point x="370" y="391" type="curve" smooth="yes"/>
			<point x="370" y="443"/>
			<point x="327" y="487"/>
			<point x="327" y="530" type="curve" smooth="yes"/>
			<point x="327" y="563"/>
			<point x="346" y="582"/>
			<point x="388" y="582" type="curve" smooth="yes"/>
			<point x="462" y="582" type="line"/>
			<point x="462" y="740" type="line"/>
			<point x="304" y="740" type="line" smooth="yes"/>
			<point x="175" y="740"/>
			<point x="63" y="693"/>
			<point x="63" y="563" type="curve" smooth="yes"/>
			<point x="63" y="476"/>
			<point x="110" y="432"/>
			<point x="110" y="390" type="curve" smooth="yes"/>
			<point x="110" y="358"/>
			<point x="98" y="343"/>
			<point x="56" y="343" type="curve" smooth="yes"/>
			<point x="38" y="343" type="line"/>
			<point x="38" y="187" type="line"/>
			<point x="56" y="187" type="line" smooth="yes"/>
			<point x="98" y="187"/>
			<point x="110" y="172"/>
			<point x="110" y="140" type="curve" smooth="yes"/>
			<point x="110" y="98"/>
			<point x="63" y="54"/>
		</contour>
	</outline>
</glyph>
<glyph name="bar" format="2">
	<advance width="360"/>
	<unicode hex="007C"/>
	<outline>
		<contour>
			<point x="295" y="790" type="line"/>
			<point x="65" y="790" type="line"/>
			<point x="65" y="-210" type="line"/>
			<point x="295" y="-210" type="line"/>
		</contour>
	</outline>
</glyph>
<glyph name="braceright" format="2">
  <advance width="500"/>
  <unicode hex="007D"/>
  <outline>
    <contour>
      <point x="38" y="-52" type="line"/>
      <point x="38" y="-210" type="line"/>
      <point x="196" y="-210" type="line" smooth="yes"/>
      <point x="325" y="-210"/>
      <point x="437" y="-163"/>
      <point x="437" y="-33" type="curve" smooth="yes"/>
      <point x="437" y="54"/>
      <point x="390" y="98"/>
      <point x="390" y="140" type="curve" smooth="yes"/>
      <point x="390" y="172"/>
      <point x="402" y="187"/>
      <point x="444" y="187" type="curve" smooth="yes"/>
      <point x="462" y="187" type="line"/>
      <point x="462" y="343" type="line"/>
      <point x="444" y="343" type="line" smooth="yes"/>
      <point x="402" y="343"/>
      <point x="390" y="358"/>
      <point x="390" y="390" type="curve" smooth="yes"/>
      <point x="390" y="432"/>
      <point x="437" y="476"/>
      <point x="437" y="563" type="curve" smooth="yes"/>
      <point x="437" y="693"/>
      <point x="325" y="740"/>
      <point x="196" y="740" type="curve" smooth="yes"/>
      <point x="38" y="740" type="line"/>
      <point x="38" y="582" type="line"/>
      <point x="112" y="582" type="line" smooth="yes"/>
      <point x="154" y="582"/>
      <point x="173" y="563"/>
      <point x="173" y="530" type="curve" smooth="yes"/>
      <point x="173" y="487"/>
      <point x="130" y="443"/>
      <point x="130" y="391" type="curve" smooth="yes"/>
      <point x="130" y="343"/>
      <point x="144" y="303"/>
      <point x="235" y="265" type="curve"/>
      <point x="144" y="229"/>
      <point x="130" y="187"/>
      <point x="130" y="139" type="curve" smooth="yes"/>
      <point x="130" y="87"/>
      <point x="173" y="43"/>
      <point x="173" y="0" type="curve" smooth="yes"/>
      <point x="173" y="-33"/>
      <point x="154" y="-52"/>
      <point x="112" y="-52" type="curve" smooth="yes"/>
    </contour>
  </outline>
</glyph>
<glyph name="asciitilde" format="2">
	<advance width="782"/>
	<unicode hex="007E"/>
	<outline>
		<contour>
			<point x="722" y="216" type="curve"/>
			<point x="722" y="422" type="line"/>
			<point x="690" y="393"/>
			<point x="645" y="380"/>
			<point x="586" y="380" type="curve" smooth="yes"/>
			<point x="417" y="380"/>
			<point x="320" y="464"/>
			<point x="202" y="464" type="curve" smooth="yes"/>
			<point x="110" y="464"/>
			<point x="74" y="429"/>
			<point x="61" y="422" type="curve"/>
			<point x="61" y="216" type="line"/>
			<point x="101" y="239"/>
			<point x="127" y="254"/>
			<point x="191" y="254" type="curve" smooth="yes"/>
			<point x="320" y="254"/>
			<point x="429" y="169"/>
			<point x="587" y="169" type="curve" smooth="yes"/>
			<point x="642" y="169"/>
			<point x="695" y="191"/>
		</contour>
	</outline>
</glyph>
<glyph name="currency" format="2">
	<advance width="620"/>
	<unicode hex="00A4"/>
	<outline>
		<contour>
			<point x="70" y="443" type="line"/>
			<point x="128" y="384" type="line"/>
			<point x="121" y="364"/>
			<point x="117" y="343"/>
			<point x="117" y="320" type="curve" smooth="yes"/>
			<point x="117" y="296"/>
			<point x="121" y="274"/>
			<point x="129" y="254" type="curve"/>
			<point x="70" y="195" type="line"/>
			<point x="186" y="79" type="line"/>
			<point x="265" y="157" type="line"/>
			<point x="278" y="155"/>
			<point x="292" y="155"/>
			<point x="307" y="155" type="curve" smooth="yes"/>
			<point x="324" y="155"/>
			<point x="339" y="156"/>
			<point x="354" y="158" type="curve"/>
			<point x="434" y="79" type="line"/>
			<point x="550" y="195" type="line"/>
			<point x="486" y="259" type="line"/>
			<point x="492" y="278"/>
			<point x="496" y="298"/>
			<point x="496" y="320" type="curve" smooth="yes"/>
			<point x="496" y="341"/>
			<point x="493" y="360"/>
			<point x="486" y="379" type="curve"/>
			<point x="550" y="443" type="line"/>
			<point x="434" y="559" type="line"/>
			<point x="354" y="479" type="line"/>
			<point x="339" y="482"/>
			<point x="324" y="483"/>
			<point x="307" y="483" type="curve" smooth="yes"/>
			<point x="292" y="483"/>
			<point x="278" y="482"/>
			<point x="265" y="480" type="curve"/>
			<point x="186" y="559" type="line"/>
		</contour>
		<contour>
			<point x="306" y="285" type="curve" smooth="yes"/>
			<point x="286" y="285"/>
			<point x="271" y="299"/>
			<point x="271" y="320" type="curve" smooth="yes"/>
			<point x="271" y="338"/>
			<point x="285" y="353"/>
			<point x="306" y="353" type="curve" smooth="yes"/>
			<point x="327" y="353"/>
			<point x="342" y="338"/>
			<point x="342" y="320" type="curve" smooth="yes"/>
			<point x="342" y="299"/>
			<point x="326" y="285"/>
		</contour>
	</outline>
</glyph>
<glyph name="yen" format="2">
	<advance width="1050"/>
	<unicode hex="00A5"/>
	<outline>
		<contour>
			<point x="155" y="318" type="line"/>
			<point x="361" y="318" type="line"/>
			<point x="361" y="268" type="line"/>
			<point x="155" y="268" type="line"/>
			<point x="155" y="177" type="line"/>
			<point x="361" y="177" type="line"/>
			<point x="361" y="0" type="line"/>
			<point x="689" y="0" type="line"/>
			<point x="689" y="177" type="line"/>
			<point x="908" y="177" type="line"/>
			<point x="908" y="268" type="line"/>
			<point x="689" y="268" type="line"/>
			<point x="689" y="318" type="line"/>
			<point x="908" y="318" type="line"/>
			<point x="908" y="409" type="line"/>
			<point x="689" y="409" type="line"/>
			<point x="975" y="700" type="line"/>
			<point x="651" y="700" type="line"/>
			<point x="530" y="556" type="line"/>
			<point x="409" y="700" type="line"/>
			<point x="75" y="700" type="line"/>
			<point x="361" y="409" type="line"/>
			<point x="155" y="409" type="line"/>
		</contour>
	</outline>
</glyph>
<glyph name="section" format="2">
	<advance width="854"/>
	<unicode hex="00A7"/>
	<outline>
		<contour>
			<point x="330" y="-220" type="curve" smooth="yes"/>
			<point x="611" y="-220"/>
			<point x="779" y="-103"/>
			<point x="779" y="104" type="curve" smooth="yes"/>
			<point x="779" y="210"/>
			<point x="748" y="272"/>
			<point x="655" y="378" type="curve" smooth="yes"/>
			<point x="606" y="433"/>
			<point x="586" y="457"/>
			<point x="586" y="478" type="curve" smooth="yes"/>
			<point x="586" y="505"/>
			<point x="610" y="523"/>
			<point x="646" y="523" type="curve" smooth="yes"/>
			<point x="660" y="523"/>
			<point x="674" y="521"/>
			<point x="693" y="515" type="curve"/>
			<point x="724" y="728" type="line"/>
			<point x="644" y="746"/>
			<point x="578" y="750"/>
			<point x="520" y="750" type="curve" smooth="yes"/>
			<point x="215" y="750"/>
			<point x="79" y="634"/>
			<point x="79" y="438" type="curve" smooth="yes"/>
			<point x="79" y="343"/>
			<point x="116" y="272"/>
			<point x="195" y="166" type="curve" smooth="yes"/>
			<point x="248" y="95"/>
			<point x="272" y="66"/>
			<point x="272" y="41" type="curve" smooth="yes"/>
			<point x="272" y="18"/>
			<point x="248" y="0"/>
			<point x="203" y="0" type="curve" smooth="yes"/>
			<point x="173" y="0"/>
			<point x="150" y="6"/>
			<point x="114" y="15" type="curve"/>
			<point x="70" y="-184" type="line"/>
			<point x="165" y="-209"/>
			<point x="242" y="-220"/>
		</contour>
		<contour>
			<point x="365" y="-92" type="curve" smooth="yes"/>
			<point x="332" y="-92"/>
			<point x="296" y="-88"/>
			<point x="269" y="-73" type="curve"/>
			<point x="299" y="-103" type="line"/>
			<point x="415" y="-115"/>
			<point x="517" y="-55"/>
			<point x="517" y="39" type="curve" smooth="yes"/>
			<point x="517" y="92"/>
			<point x="483" y="155"/>
			<point x="409" y="260" type="curve" smooth="yes"/>
			<point x="343" y="353"/>
			<point x="316" y="417"/>
			<point x="316" y="463" type="curve" smooth="yes"/>
			<point x="316" y="546"/>
			<point x="379" y="605"/>
			<point x="467" y="605" type="curve" smooth="yes"/>
			<point x="508" y="605"/>
			<point x="533" y="599"/>
			<point x="565" y="581" type="curve"/>
			<point x="522" y="617" type="line"/>
			<point x="440" y="625"/>
			<point x="355" y="564"/>
			<point x="355" y="480" type="curve" smooth="yes"/>
			<point x="355" y="419"/>
			<point x="377" y="384"/>
			<point x="441" y="289" type="curve" smooth="yes"/>
			<point x="525" y="164"/>
			<point x="555" y="119"/>
			<point x="555" y="64" type="curve" smooth="yes"/>
			<point x="555" y="8"/>
			<point x="515" y="-92"/>
		</contour>
	</outline>
</glyph>
<glyph name="copyright" format="2">
	<advance width="908"/>
	<unicode hex="00A9"/>
	<outline>
		<contour>
			<point x="454" y="79" type="curve" smooth="yes"/>
			<point x="255" y="79"/>
			<point x="157" y="189"/>
			<point x="157" y="348" type="curve" smooth="yes"/>
			<point x="157" y="509"/>
			<point x="256" y="614"/>
			<point x="454" y="614" type="curve" smooth="yes"/>
			<point x="652" y="614"/>
			<point x="751" y="509"/>
			<point x="751" y="348" type="curve" smooth="yes"/>
			<point x="751" y="189"/>
			<point x="653" y="79"/>
		</contour>
		<contour>
			<point x="454" y="710" type="curve" smooth="yes"/>
			<point x="201" y="710"/>
			<point x="51" y="559"/>
			<point x="51" y="348" type="curve" smooth="yes"/>
			<point x="51" y="139"/>
			<point x="198" y="-10"/>
			<point x="454" y="-10" type="curve" smooth="yes"/>
			<point x="710" y="-10"/>
			<point x="857" y="139"/>
			<point x="857" y="348" type="curve" smooth="yes"/>
			<point x="857" y="559"/>
			<point x="707" y="710"/>
		</contour>
		<contour>
			<point x="234" y="342" type="curve" smooth="yes"/>
			<point x="234" y="212"/>
			<point x="335" y="172"/>
			<point x="453" y="172" type="curve" smooth="yes"/>
			<point x="528" y="172"/>
			<point x="606" y="191"/>
			<point x="656" y="216" type="curve"/>
			<point x="637" y="308" type="line"/>
			<point x="606" y="298"/>
			<point x="543" y="283"/>
			<point x="488" y="283" type="curve" smooth="yes"/>
			<point x="418" y="283"/>
			<point x="383" y="299"/>
			<point x="383" y="347" type="curve" smooth="yes"/>
			<point x="383" y="403"/>
			<point x="417" y="420"/>
			<point x="491" y="420" type="curve" smooth="yes"/>
			<point x="536" y="420"/>
			<point x="588" y="409"/>
			<point x="623" y="399" type="curve"/>
			<point x="646" y="496" type="line"/>
			<point x="597" y="520"/>
			<point x="533" y="533"/>
			<point x="471" y="533" type="curve" smooth="yes"/>
			<point x="338" y="533"/>
			<point x="234" y="477"/>
		</contour>
	</outline>
</glyph>
<glyph name="ordfeminine" format="2">
  <advance width="634"/>
  <unicode hex="00AA"/>
  <outline>
    <contour>
      <point x="67" y="141" type="line"/>
      <point x="608" y="141" type="line"/>
      <point x="608" y="295" type="line"/>
      <point x="67" y="295" type="line"/>
    </contour>
    <contour>
      <point x="38" y="455" type="curve" smooth="yes"/>
      <point x="38" y="362"/>
      <point x="146" y="362"/>
      <point x="205" y="362" type="curve" smooth="yes"/>
      <point x="276" y="362"/>
      <point x="317" y="369"/>
      <point x="377" y="397" type="curve"/>
      <point x="403" y="374"/>
      <point x="443" y="362"/>
      <point x="498" y="362" type="curve" smooth="yes"/>
      <point x="545" y="362"/>
      <point x="591" y="375"/>
      <point x="621" y="395" type="curve"/>
      <point x="603" y="487" type="line"/>
      <point x="598" y="485"/>
      <point x="589" y="485"/>
      <point x="584" y="485" type="curve" smooth="yes"/>
      <point x="579" y="485"/>
      <point x="572" y="490"/>
      <point x="572" y="504" type="curve" smooth="yes"/>
      <point x="572" y="559" type="line" smooth="yes"/>
      <point x="572" y="644"/>
      <point x="496" y="690"/>
      <point x="284" y="690" type="curve" smooth="yes"/>
      <point x="205" y="690"/>
      <point x="123" y="683"/>
      <point x="60" y="668" type="curve"/>
      <point x="84" y="551" type="line"/>
      <point x="114" y="560"/>
      <point x="171" y="572"/>
      <point x="249" y="572" type="curve" smooth="yes"/>
      <point x="324" y="572"/>
      <point x="342" y="561"/>
      <point x="342" y="555" type="curve" smooth="yes"/>
      <point x="342" y="553" type="line"/>
      <point x="109" y="553"/>
      <point x="38" y="533"/>
    </contour>
    <contour>
      <point x="250" y="459" type="curve" smooth="yes"/>
      <point x="250" y="475"/>
      <point x="267" y="482"/>
      <point x="343" y="482" type="curve"/>
      <point x="343" y="459" type="line"/>
      <point x="328" y="449"/>
      <point x="307" y="442"/>
      <point x="285" y="442" type="curve" smooth="yes"/>
      <point x="259" y="442"/>
      <point x="250" y="447"/>
    </contour>
  </outline>
</glyph>
<glyph name="logicalnot" format="2">
	<advance width="782"/>
	<unicode hex="00AC"/>
	<outline>
		<contour>
			<point x="60" y="281" type="line"/>
			<point x="517" y="281" type="line"/>
			<point x="517" y="152" type="line"/>
			<point x="722" y="152" type="line"/>
			<point x="722" y="486" type="line"/>
			<point x="60" y="486" type="line"/>
		</contour>
	</outline>
</glyph>
<glyph name="degree" format="2">
	<advance width="500"/>
	<unicode hex="00B0"/>
	<outline>
		<contour>
			<point x="250" y="312" type="curve" smooth="yes"/>
			<point x="397" y="312"/>
			<point x="462" y="415"/>
			<point x="462" y="511" type="curve" smooth="yes"/>
			<point x="462" y="600"/>
			<point x="406" y="710"/>
			<point x="250" y="710" type="curve" smooth="yes"/>
			<point x="94" y="710"/>
			<point x="38" y="600"/>
			<point x="38" y="511" type="curve" smooth="yes"/>
			<point x="38" y="415"/>
			<point x="103" y="312"/>
		</contour>
		<contour>
			<point x="250" y="459" type="curve" smooth="yes"/>
			<point x="221" y="459"/>
			<point x="203" y="479"/>
			<point x="203" y="510" type="curve" smooth="yes"/>
			<point x="203" y="539"/>
			<point x="219" y="559"/>
			<point x="250" y="559" type="curve" smooth="yes"/>
			<point x="281" y="559"/>
			<point x="297" y="539"/>
			<point x="297" y="510" type="curve" smooth="yes"/>
			<point x="297" y="479"/>
			<point x="279" y="459"/>
		</contour>
	</outline>
</glyph>
<glyph name="plusminus" format="2">
  <advance width="782"/>
  <unicode hex="00B1"/>
  <outline>
    <contour>
      <point x="60" y="-1" type="line"/>
      <point x="722" y="-1" type="line"/>
      <point x="722" y="204" type="line"/>
      <point x="513" y="204" type="line"/>
      <point x="513" y="309" type="line"/>
      <point x="722" y="309" type="line"/>
      <point x="722" y="514" type="line"/>
      <point x="513" y="514" type="line"/>
      <point x="513" y="642" type="line"/>
      <point x="268" y="642" type="line"/>
      <point x="268" y="514" type="line"/>
      <point x="60" y="514" type="line"/>
      <point x="60" y="309" type="line"/>
      <point x="268" y="309" type="line"/>
      <point x="268" y="204" type="line"/>
      <point x="60" y="204" type="line"/>
    </contour>
  </outline>
</glyph>
<glyph name="uni00B2" format="2">
	<advance width="611"/>
	<unicode hex="00B2"/>
	<outline>
		<contour>
			<point x="33" y="370" type="line"/>
			<point x="579" y="370" type="line"/>
			<point x="579" y="495" type="line"/>
			<point x="393" y="495" type="line"/>
			<point x="493" y="531"/>
			<point x="521" y="571"/>
			<point x="521" y="628" type="curve" smooth="yes"/>
			<point x="521" y="714"/>
			<point x="423" y="773"/>
			<point x="279" y="773" type="curve" smooth="yes"/>
			<point x="198" y="773"/>
			<point x="89" y="750"/>
			<point x="32" y="721" type="curve"/>
			<point x="81" y="593" type="line"/>
			<point x="153" y="621"/>
			<point x="184" y="630"/>
			<point x="224" y="630" type="curve" smooth="yes"/>
			<point x="260" y="630"/>
			<point x="279" y="614"/>
			<point x="279" y="592" type="curve" smooth="yes"/>
			<point x="279" y="555"/>
			<point x="212" y="532"/>
			<point x="33" y="480" type="curve"/>
		</contour>
	</outline>
</glyph>
<glyph name="uni00B3" format="2">
	<advance width="625"/>
	<unicode hex="00B3"/>
	<outline>
		<contour>
			<point x="23" y="391" type="line"/>
			<point x="106" y="367"/>
			<point x="199" y="363"/>
			<point x="289" y="363" type="curve" smooth="yes"/>
			<point x="471" y="363"/>
			<point x="600" y="395"/>
			<point x="600" y="489" type="curve" smooth="yes"/>
			<point x="600" y="535"/>
			<point x="575" y="561"/>
			<point x="508" y="581" type="curve"/>
			<point x="551" y="589"/>
			<point x="587" y="618"/>
			<point x="587" y="666" type="curve" smooth="yes"/>
			<point x="587" y="731"/>
			<point x="508" y="773"/>
			<point x="303" y="773" type="curve" smooth="yes"/>
			<point x="185" y="773"/>
			<point x="81" y="763"/>
			<point x="31" y="750" type="curve"/>
			<point x="60" y="626" type="line"/>
			<point x="60" y="626"/>
			<point x="106" y="646"/>
			<point x="242" y="646" type="curve" smooth="yes"/>
			<point x="310" y="646"/>
			<point x="376" y="638"/>
			<point x="376" y="630" type="curve" smooth="yes"/>
			<point x="376" y="621"/>
			<point x="357" y="620"/>
			<point x="321" y="620" type="curve" smooth="yes"/>
			<point x="150" y="620" type="line"/>
			<point x="150" y="511" type="line"/>
			<point x="284" y="511" type="line" smooth="yes"/>
			<point x="370" y="511"/>
			<point x="378" y="507"/>
			<point x="378" y="501" type="curve" smooth="yes"/>
			<point x="378" y="490"/>
			<point x="350" y="482"/>
			<point x="268" y="482" type="curve" smooth="yes"/>
			<point x="140" y="482"/>
			<point x="97" y="490"/>
			<point x="57" y="502" type="curve"/>
		</contour>
	</outline>
</glyph>
<glyph name="uni00B5" format="2">
  <advance width="916"/>
  <unicode hex="00B5"/>
  <outline>
    <contour>
      <point x="54" y="-210" type="line"/>
      <point x="354" y="-210" type="line"/>
      <point x="354" y="-6" type="line"/>
      <point x="370" y="-9"/>
      <point x="386" y="-10"/>
      <point x="403" y="-10" type="curve" smooth="yes"/>
      <point x="473" y="-10"/>
      <point x="521" y="14"/>
      <point x="577" y="60" type="curve"/>
      <point x="611" y="13"/>
      <point x="651" y="-10"/>
      <point x="736" y="-10" type="curve" smooth="yes"/>
      <point x="801" y="-10"/>
      <point x="880" y="11"/>
      <point x="916" y="37" type="curve"/>
      <point x="892" y="197" type="line"/>
      <point x="883" y="193"/>
      <point x="876" y="192"/>
      <point x="867" y="192" type="curve" smooth="yes"/>
      <point x="851" y="192"/>
      <point x="838" y="202"/>
      <point x="838" y="223" type="curve" smooth="yes"/>
      <point x="838" y="550" type="line"/>
      <point x="538" y="550" type="line"/>
      <point x="538" y="217" type="line"/>
      <point x="492" y="201"/>
      <point x="468" y="197"/>
      <point x="436" y="197" type="curve" smooth="yes"/>
      <point x="386" y="197"/>
      <point x="354" y="223"/>
      <point x="354" y="292" type="curve" smooth="yes"/>
      <point x="354" y="550" type="line"/>
      <point x="54" y="550" type="line"/>
    </contour>
  </outline>
</glyph>
<glyph name="uni00B9" format="2">
	<advance width="597"/>
	<unicode hex="00B9"/>
	<outline>
		<contour>
			<point x="78" y="370" type="line"/>
			<point x="575" y="370" type="line"/>
			<point x="575" y="500" type="line"/>
			<point x="452" y="500" type="line"/>
			<point x="452" y="764" type="line"/>
			<point x="334" y="764" type="line"/>
			<point x="30" y="675" type="line"/>
			<point x="88" y="534" type="line"/>
			<point x="212" y="566" type="line"/>
			<point x="212" y="500" type="line"/>
			<point x="78" y="500" type="line"/>
		</contour>
	</outline>
</glyph>
<glyph name="ordmasculine" format="2">
  <advance width="628"/>
  <unicode hex="00BA"/>
  <outline>
    <contour>
      <point x="38" y="141" type="line"/>
      <point x="579" y="141" type="line"/>
      <point x="579" y="295" type="line"/>
      <point x="38" y="295" type="line"/>
    </contour>
    <component base="o.superior" xOffset="8"/>
  </outline>
</glyph>
<glyph name="questiondown" format="2">
	<advance width="777"/>
	<unicode hex="00BF"/>
	<outline>
		<contour>
			<point x="544" y="290" type="line"/>
			<point x="293" y="290" type="line"/>
			<point x="291" y="246" type="line"/>
			<point x="95" y="204"/>
			<point x="35" y="137"/>
			<point x="35" y="33" type="curve" smooth="yes"/>
			<point x="35" y="-138"/>
			<point x="211" y="-201"/>
			<point x="388" y="-201" type="curve" smooth="yes"/>
			<point x="499" y="-201"/>
			<point x="660" y="-164"/>
			<point x="752" y="-111" type="curve"/>
			<point x="685" y="84" type="line"/>
			<point x="596" y="46"/>
			<point x="510" y="17"/>
			<point x="439" y="17" type="curve" smooth="yes"/>
			<point x="376" y="17"/>
			<point x="347" y="24"/>
			<point x="347" y="46" type="curve" smooth="yes"/>
			<point x="347" y="68"/>
			<point x="355" y="81"/>
			<point x="551" y="114" type="curve"/>
		</contour>
		<contour>
			<point x="583" y="446" type="curve" smooth="yes"/>
			<point x="583" y="521"/>
			<point x="538" y="560"/>
			<point x="420" y="560" type="curve" smooth="yes"/>
			<point x="302" y="560"/>
			<point x="257" y="521"/>
			<point x="257" y="446" type="curve" smooth="yes"/>
			<point x="257" y="370"/>
			<point x="302" y="331"/>
			<point x="420" y="331" type="curve" smooth="yes"/>
			<point x="538" y="331"/>
			<point x="583" y="370"/>
		</contour>
	</outline>
</glyph>
<glyph name="AE" format="2">
  <advance width="1656"/>
  <unicode hex="00C6"/>
  <anchor x="896" y="700" name="top"/>
  <outline>
    <contour>
      <point x="0" y="0" type="line"/>
      <point x="350" y="0" type="line"/>
      <point x="474" y="151" type="line"/>
      <point x="736" y="151" type="line"/>
      <point x="736" y="0" type="line"/>
      <point x="1613" y="0" type="line"/>
      <point x="1613" y="205" type="line"/>
      <point x="1013" y="205" type="line"/>
      <point x="1013" y="261" type="line"/>
      <point x="1552" y="261" type="line"/>
      <point x="1552" y="441" type="line"/>
      <point x="1013" y="441" type="line"/>
      <point x="1013" y="495" type="line"/>
      <point x="1584" y="495" type="line"/>
      <point x="1584" y="700" type="line"/>
      <point x="604" y="700" type="line"/>
    </contour>
    <contour>
      <point x="618" y="341" type="line"/>
      <point x="736" y="483" type="line"/>
      <point x="736" y="341" type="line"/>
    </contour>
  </outline>
</glyph>
<glyph name="multiply" format="2">
	<advance width="682"/>
	<unicode hex="00D7"/>
	<outline>
		<contour>
			<point x="172" y="50" type="line"/>
			<point x="341" y="186" type="line"/>
			<point x="510" y="50" type="line"/>
			<point x="639" y="210" type="line"/>
			<point x="504" y="318" type="line"/>
			<point x="639" y="427" type="line"/>
			<point x="510" y="587" type="line"/>
			<point x="341" y="450" type="line"/>
			<point x="172" y="587" type="line"/>
			<point x="43" y="427" type="line"/>
			<point x="177" y="318" type="line"/>
			<point x="43" y="210" type="line"/>
		</contour>
	</outline>
</glyph>
<glyph name="Thorn" format="2">
	<advance width="1146"/>
	<unicode hex="00DE"/>
	<outline>
		<contour>
			<point x="75" y="0" type="line"/>
			<point x="395" y="0" type="line"/>
			<point x="395" y="96" type="line"/>
			<point x="556" y="92"/>
			<point x="490" y="92"/>
			<point x="658" y="92" type="curve" smooth="yes"/>
			<point x="1005" y="92"/>
			<point x="1104" y="168"/>
			<point x="1104" y="367" type="curve" smooth="yes"/>
			<point x="1104" y="575"/>
			<point x="1005" y="639"/>
			<point x="569" y="639" type="curve" smooth="yes"/>
			<point x="534" y="639"/>
			<point x="464" y="638"/>
			<point x="395" y="637" type="curve"/>
			<point x="395" y="700" type="line"/>
			<point x="75" y="700" type="line"/>
		</contour>
		<contour>
			<point x="517" y="300" type="curve" smooth="yes"/>
			<point x="486" y="300"/>
			<point x="464" y="301"/>
			<point x="395" y="305" type="curve"/>
			<point x="395" y="430" type="line"/>
			<point x="507" y="434"/>
			<point x="519" y="434"/>
			<point x="596" y="434" type="curve" smooth="yes"/>
			<point x="741" y="434"/>
			<point x="777" y="410"/>
			<point x="777" y="366" type="curve" smooth="yes"/>
			<point x="777" y="320"/>
			<point x="764" y="300"/>
		</contour>
	</outline>
</glyph>
<glyph name="germandbls" format="2">
  <advance width="1108"/>
  <unicode hex="00DF"/>
  <outline>
    <contour>
      <point x="118" y="0" type="line"/>
      <point x="418" y="0" type="line"/>
      <point x="418" y="458" type="line" smooth="yes"/>
      <point x="418" y="544"/>
      <point x="499" y="567"/>
      <point x="620" y="567" type="curve" smooth="yes"/>
      <point x="745" y="567"/>
      <point x="767" y="554"/>
      <point x="767" y="543" type="curve" smooth="yes"/>
      <point x="767" y="535"/>
      <point x="755" y="529"/>
      <point x="698" y="527" type="curve" smooth="yes"/>
      <point x="548" y="523"/>
      <point x="489" y="441"/>
      <point x="489" y="357" type="curve" smooth="yes"/>
      <point x="489" y="237"/>
      <point x="537" y="185"/>
      <point x="739" y="171" type="curve" smooth="yes"/>
      <point x="828" y="165"/>
      <point x="839" y="161"/>
      <point x="839" y="153" type="curve" smooth="yes"/>
      <point x="839" y="146"/>
      <point x="821" y="143"/>
      <point x="787" y="143" type="curve" smooth="yes"/>
      <point x="707" y="143"/>
      <point x="570" y="160"/>
      <point x="492" y="180" type="curve"/>
      <point x="464" y="17" type="line"/>
      <point x="569" y="-5"/>
      <point x="667" y="-10"/>
      <point x="762" y="-10" type="curve" smooth="yes"/>
      <point x="910" y="-10"/>
      <point x="1110" y="5"/>
      <point x="1110" y="176" type="curve" smooth="yes"/>
      <point x="1110" y="300"/>
      <point x="1031" y="343"/>
      <point x="889" y="348" type="curve" smooth="yes"/>
      <point x="779" y="352"/>
      <point x="756" y="353"/>
      <point x="756" y="365" type="curve" smooth="yes"/>
      <point x="756" y="373"/>
      <point x="772" y="377"/>
      <point x="822" y="381" type="curve" smooth="yes"/>
      <point x="951" y="391"/>
      <point x="1030" y="439"/>
      <point x="1030" y="550" type="curve" smooth="yes"/>
      <point x="1030" y="697"/>
      <point x="884" y="750"/>
      <point x="610" y="750" type="curve" smooth="yes"/>
      <point x="276" y="750"/>
      <point x="118" y="684"/>
      <point x="118" y="500" type="curve" smooth="yes"/>
      <point x="118" y="484" type="line"/>
      <point x="14" y="464" type="line"/>
      <point x="14" y="305" type="line"/>
      <point x="118" y="305" type="line"/>
    </contour>
  </outline>
</glyph>
<glyph name="ae" format="2">
  <advance width="1312"/>
  <unicode hex="00E6"/>
  <anchor x="665" y="550" name="top"/>
  <outline>
    <contour>
      <point x="259" y="-10" type="curve" smooth="yes"/>
      <point x="372" y="-10"/>
      <point x="462" y="18"/>
      <point x="559" y="82" type="curve"/>
      <point x="561" y="82" type="line"/>
      <point x="643" y="15"/>
      <point x="739" y="-10"/>
      <point x="914" y="-10" type="curve" smooth="yes"/>
      <point x="1051" y="-10"/>
      <point x="1152" y="-1"/>
      <point x="1272" y="22" type="curve"/>
      <point x="1241" y="204" type="line"/>
      <point x="1133" y="186"/>
      <point x="1017" y="175"/>
      <point x="932" y="175" type="curve" smooth="yes"/>
      <point x="820" y="175"/>
      <point x="796" y="179"/>
      <point x="786" y="199" type="curve" smooth="yes"/>
      <point x="785" y="201"/>
      <point x="785" y="202"/>
      <point x="785" y="203" type="curve"/>
      <point x="1009" y="208"/>
      <point x="1151" y="217"/>
      <point x="1266" y="222" type="curve"/>
      <point x="1267" y="239"/>
      <point x="1268" y="261"/>
      <point x="1268" y="286" type="curve" smooth="yes"/>
      <point x="1268" y="474"/>
      <point x="1151" y="560"/>
      <point x="897" y="560" type="curve" smooth="yes"/>
      <point x="776" y="560"/>
      <point x="728" y="537"/>
      <point x="670" y="511" type="curve"/>
      <point x="668" y="511" type="line"/>
      <point x="579" y="551"/>
      <point x="526" y="560"/>
      <point x="382" y="560" type="curve" smooth="yes"/>
      <point x="284" y="560"/>
      <point x="173" y="548"/>
      <point x="68" y="525" type="curve"/>
      <point x="99" y="343" type="line"/>
      <point x="171" y="359"/>
      <point x="294" y="373"/>
      <point x="362" y="373" type="curve" smooth="yes"/>
      <point x="455" y="373"/>
      <point x="485" y="366"/>
      <point x="485" y="345" type="curve" smooth="yes"/>
      <point x="485" y="343" type="line"/>
      <point x="138" y="343"/>
      <point x="28" y="300"/>
      <point x="28" y="165" type="curve" smooth="yes"/>
      <point x="28" y="52"/>
      <point x="110" y="-10"/>
    </contour>
    <contour>
      <point x="384" y="138" type="curve" smooth="yes"/>
      <point x="354" y="138"/>
      <point x="337" y="148"/>
      <point x="337" y="167" type="curve" smooth="yes"/>
      <point x="337" y="203"/>
      <point x="359" y="210"/>
      <point x="486" y="214" type="curve"/>
      <point x="486" y="208"/>
      <point x="486" y="202"/>
      <point x="486" y="196" type="curve" smooth="yes"/>
      <point x="486" y="189"/>
      <point x="486" y="182"/>
      <point x="486" y="175" type="curve"/>
      <point x="467" y="156"/>
      <point x="417" y="138"/>
    </contour>
    <contour>
      <point x="786" y="344" type="curve"/>
      <point x="801" y="374"/>
      <point x="829" y="387"/>
      <point x="878" y="387" type="curve" smooth="yes"/>
      <point x="920" y="387"/>
      <point x="943" y="376"/>
      <point x="960" y="349" type="curve"/>
      <point x="878" y="346"/>
      <point x="829" y="345"/>
    </contour>
  </outline>
</glyph>
<glyph name="eth" format="2">
	<advance width="873"/>
	<unicode hex="00F0"/>
	<outline>
		<contour>
			<point x="610" y="332" type="curve"/>
			<point x="612" y="489" type="line"/>
			<point x="536" y="514"/>
			<point x="481" y="518"/>
			<point x="388" y="518" type="curve" smooth="yes"/>
			<point x="139" y="518"/>
			<point x="25" y="414"/>
			<point x="25" y="252" type="curve" smooth="yes"/>
			<point x="25" y="86"/>
			<point x="155" y="-10"/>
			<point x="407" y="-10" type="curve" smooth="yes"/>
			<point x="701" y="-10"/>
			<point x="849" y="105"/>
			<point x="849" y="387" type="curve" smooth="yes"/>
			<point x="849" y="685"/>
			<point x="651" y="768"/>
			<point x="339" y="768" type="curve" smooth="yes"/>
			<point x="249" y="768"/>
			<point x="141" y="761"/>
			<point x="21" y="742" type="curve"/>
			<point x="38" y="596" type="line"/>
			<point x="160" y="609"/>
			<point x="210" y="610"/>
			<point x="275" y="610" type="curve" smooth="yes"/>
			<point x="518" y="610"/>
			<point x="564" y="579"/>
			<point x="564" y="364" type="curve" smooth="yes"/>
			<point x="564" y="215"/>
			<point x="534" y="169"/>
			<point x="446" y="169" type="curve" smooth="yes"/>
			<point x="367" y="169"/>
			<point x="330" y="203"/>
			<point x="330" y="266" type="curve" smooth="yes"/>
			<point x="330" y="323"/>
			<point x="356" y="353"/>
			<point x="448" y="353" type="curve" smooth="yes"/>
			<point x="500" y="353"/>
			<point x="567" y="344"/>
		</contour>
		<contour>
			<point x="294" y="522" type="line"/>
			<point x="540" y="628" type="line"/>
			<point x="551" y="641" type="line"/>
			<point x="844" y="767" type="line"/>
			<point x="615" y="767" type="line"/>
			<point x="438" y="691" type="line"/>
			<point x="447" y="686" type="line"/>
			<point x="64" y="522" type="line"/>
		</contour>
	</outline>
</glyph>
<glyph name="oslash" format="2">
	<advance width="892"/>
	<unicode hex="00F8"/>
	<anchor x="446" y="550" name="top"/>
	<outline>
		<contour>
			<point x="447" y="-10" type="curve" smooth="yes"/>
			<point x="156" y="-10"/>
			<point x="29" y="88"/>
			<point x="29" y="277" type="curve" smooth="yes"/>
			<point x="29" y="453"/>
			<point x="138" y="560"/>
			<point x="447" y="560" type="curve" smooth="yes"/>
			<point x="754" y="560"/>
			<point x="863" y="453"/>
			<point x="863" y="277" type="curve" smooth="yes"/>
			<point x="863" y="88"/>
			<point x="736" y="-10"/>
		</contour>
		<contour>
			<point x="446" y="154" type="curve" smooth="yes"/>
			<point x="532" y="154"/>
			<point x="567" y="200"/>
			<point x="567" y="276" type="curve" smooth="yes"/>
			<point x="567" y="346"/>
			<point x="538" y="396"/>
			<point x="446" y="396" type="curve" smooth="yes"/>
			<point x="355" y="396"/>
			<point x="325" y="346"/>
			<point x="325" y="276" type="curve" smooth="yes"/>
			<point x="325" y="200"/>
			<point x="360" y="154"/>
		</contour>
		<contour>
			<point x="29" y="-10" type="line"/>
			<point x="220" y="159" type="line"/>
			<point x="220" y="159" type="line"/>
			<point x="570" y="470" type="line"/>
			<point x="570" y="470" type="line"/>
			<point x="671" y="560" type="line"/>
			<point x="863" y="560" type="line"/>
			<point x="688" y="405" type="line"/>
			<point x="688" y="405" type="line"/>
			<point x="332" y="90" type="line"/>
			<point x="332" y="90" type="line"/>
			<point x="218" y="-10" type="line"/>
		</contour>
	</outline>
</glyph>
<glyph name="Dcroat" format="2">
  <advance width="1147"/>
  <unicode hex="0110"/>
  <outline>
    <contour>
      <point x="24" y="261" type="line"/>
      <point x="587" y="261" type="line"/>
      <point x="587" y="446" type="line"/>
      <point x="24" y="446" type="line"/>
    </contour>
    <contour>
      <point x="584" y="-10" type="curve" smooth="yes"/>
      <point x="925" y="-10"/>
      <point x="1111" y="115"/>
      <point x="1111" y="344" type="curve" smooth="yes"/>
      <point x="1111" y="597"/>
      <point x="938" y="710"/>
      <point x="553" y="710" type="curve" smooth="yes"/>
      <point x="386" y="710"/>
      <point x="257" y="707"/>
      <point x="83" y="700" type="curve"/>
      <point x="83" y="0" type="line"/>
      <point x="231" y="-4"/>
      <point x="365" y="-10"/>
    </contour>
    <contour>
      <point x="604" y="189" type="curve" smooth="yes"/>
      <point x="514" y="189"/>
      <point x="476" y="192"/>
      <point x="403" y="194" type="curve"/>
      <point x="403" y="508" type="line"/>
      <point x="445" y="511"/>
      <point x="507" y="512"/>
      <point x="593" y="512" type="curve" smooth="yes"/>
      <point x="712" y="512"/>
      <point x="786" y="449"/>
      <point x="786" y="347" type="curve" smooth="yes"/>
      <point x="786" y="254"/>
      <point x="711" y="189"/>
    </contour>
  </outline>
</glyph>
<glyph name="dcroat" format="2">
  <advance width="940"/>
  <unicode hex="0111"/>
  <outline>
    <contour>
      <point x="348" y="585" type="line"/>
      <point x="945" y="585" type="line"/>
      <point x="945" y="689" type="line"/>
      <point x="348" y="689" type="line"/>
    </contour>
    <contour>
      <point x="621" y="-4" type="line"/>
      <point x="876" y="-4" type="line"/>
      <point x="876" y="740" type="line"/>
      <point x="576" y="740" type="line"/>
      <point x="576" y="557" type="line"/>
      <point x="538" y="559"/>
      <point x="500" y="560"/>
      <point x="461" y="560" type="curve" smooth="yes"/>
      <point x="159" y="560"/>
      <point x="29" y="473"/>
      <point x="29" y="271" type="curve" smooth="yes"/>
      <point x="29" y="95"/>
      <point x="131" y="-10"/>
      <point x="303" y="-10" type="curve" smooth="yes"/>
      <point x="399" y="-10"/>
      <point x="481" y="11"/>
      <point x="575" y="61" type="curve"/>
    </contour>
    <contour>
      <point x="575" y="229" type="line"/>
      <point x="520" y="211"/>
      <point x="471" y="202"/>
      <point x="432" y="202" type="curve" smooth="yes"/>
      <point x="367" y="202"/>
      <point x="333" y="230"/>
      <point x="333" y="285" type="curve" smooth="yes"/>
      <point x="333" y="346"/>
      <point x="377" y="379"/>
      <point x="458" y="379" type="curve" smooth="yes"/>
      <point x="498" y="379"/>
      <point x="539" y="374"/>
      <point x="575" y="364" type="curve"/>
    </contour>
  </outline>
</glyph>
<glyph name="hbar" format="2">
  <advance width="892"/>
  <unicode hex="0127"/>
  <outline>
    <contour>
      <point x="-6" y="585" type="line"/>
      <point x="592" y="585" type="line"/>
      <point x="592" y="689" type="line"/>
      <point x="-6" y="689" type="line"/>
    </contour>
    <contour>
      <point x="54" y="0" type="line"/>
      <point x="354" y="0" type="line"/>
      <point x="354" y="327" type="line"/>
      <point x="395" y="340"/>
      <point x="430" y="349"/>
      <point x="459" y="349" type="curve" smooth="yes"/>
      <point x="507" y="349"/>
      <point x="538" y="323"/>
      <point x="538" y="244" type="curve" smooth="yes"/>
      <point x="538" y="0" type="line"/>
      <point x="838" y="0" type="line"/>
      <point x="838" y="352" type="line" smooth="yes"/>
      <point x="838" y="461"/>
      <point x="760" y="560"/>
      <point x="582" y="560" type="curve" smooth="yes"/>
      <point x="500" y="560"/>
      <point x="440" y="541"/>
      <point x="354" y="501" type="curve"/>
      <point x="354" y="740" type="line"/>
      <point x="54" y="740" type="line"/>
    </contour>
  </outline>
</glyph>
<glyph name="Idotaccent" format="2">
  <advance width="470"/>
  <unicode hex="0130"/>
  <outline>
    <contour>
      <point x="235" y="720" type="curve" smooth="yes"/>
      <point x="365" y="720"/>
      <point x="415" y="758"/>
      <point x="415" y="830" type="curve" smooth="yes"/>
      <point x="415" y="902"/>
      <point x="365" y="940"/>
      <point x="235" y="940" type="curve" smooth="yes"/>
      <point x="105" y="940"/>
      <point x="55" y="902"/>
      <point x="55" y="830" type="curve" smooth="yes"/>
      <point x="55" y="758"/>
      <point x="105" y="720"/>
    </contour>
    <contour>
      <point x="75" y="0" type="line"/>
      <point x="395" y="0" type="line"/>
      <point x="395" y="700" type="line"/>
      <point x="75" y="700" type="line"/>
    </contour>
  </outline>
</glyph>
<glyph name="dotlessi" format="2">
  <advance width="408"/>
  <unicode hex="0131"/>
  <anchor x="324" y="10" name="ogonek"/>
  <anchor x="204" y="0" name="bottom"/>
  <anchor x="204" y="550" name="top"/>
  <outline>
    <contour>
      <point x="54" y="0" type="line"/>
      <point x="354" y="0" type="line"/>
      <point x="354" y="550" type="line"/>
      <point x="54" y="550" type="line"/>
    </contour>
  </outline>
</glyph>
<glyph name="Ldot" format="2">
  <advance width="966"/>
  <unicode hex="013F"/>
  <outline>
    <contour>
      <point x="546" y="457" type="curve" smooth="yes"/>
      <point x="546" y="382"/>
      <point x="591" y="343"/>
      <point x="709" y="343" type="curve" smooth="yes"/>
      <point x="827" y="343"/>
      <point x="872" y="382"/>
      <point x="872" y="457" type="curve" smooth="yes"/>
      <point x="872" y="533"/>
      <point x="827" y="572"/>
      <point x="709" y="572" type="curve" smooth="yes"/>
      <point x="591" y="572"/>
      <point x="546" y="533"/>
    </contour>
    <component base="L"/>
  </outline>
</glyph>
<glyph name="ldot" format="2">
  <advance width="562"/>
  <unicode hex="0140"/>
  <outline>
    <contour>
      <point x="509" y="347" type="curve" smooth="yes"/>
      <point x="568" y="347"/>
      <point x="590" y="374"/>
      <point x="590" y="427" type="curve" smooth="yes"/>
      <point x="590" y="480"/>
      <point x="568" y="507"/>
      <point x="509" y="507" type="curve" smooth="yes"/>
      <point x="450" y="507"/>
      <point x="428" y="480"/>
      <point x="428" y="427" type="curve" smooth="yes"/>
      <point x="428" y="374"/>
      <point x="450" y="347"/>
    </contour>
    <contour>
      <point x="354" y="740" type="line"/>
      <point x="54" y="740" type="line"/>
      <point x="54" y="244" type="line" smooth="yes"/>
      <point x="54" y="55"/>
      <point x="144" y="-10"/>
      <point x="325" y="-10" type="curve" smooth="yes"/>
      <point x="408" y="-10"/>
      <point x="473" y="4"/>
      <point x="534" y="25" type="curve"/>
      <point x="500" y="220" type="line"/>
      <point x="463" y="211"/>
      <point x="437" y="206"/>
      <point x="416" y="206" type="curve" smooth="yes"/>
      <point x="375" y="206"/>
      <point x="354" y="215"/>
      <point x="354" y="258" type="curve" smooth="yes"/>
    </contour>
  </outline>
</glyph>
<glyph name="Lslash" format="2">
  <advance width="966"/>
  <unicode hex="0141"/>
  <outline>
    <contour>
      <point x="-2" y="139" type="line"/>
      <point x="75" y="171" type="line"/>
      <point x="75" y="0" type="line"/>
      <point x="931" y="0" type="line"/>
      <point x="931" y="240" type="line"/>
      <point x="395" y="240" type="line"/>
      <point x="395" y="307" type="line"/>
      <point x="677" y="427" type="line"/>
      <point x="677" y="655" type="line"/>
      <point x="395" y="535" type="line"/>
      <point x="395" y="700" type="line"/>
      <point x="75" y="700" type="line"/>
      <point x="75" y="399" type="line"/>
      <point x="-2" y="367" type="line"/>
    </contour>
  </outline>
</glyph>
<glyph name="OE" format="2">
  <advance width="1695"/>
  <unicode hex="0152"/>
  <outline>
    <contour>
      <point x="1652" y="0" type="line"/>
      <point x="1652" y="205" type="line"/>
      <point x="1055" y="205" type="line"/>
      <point x="1055" y="261" type="line"/>
      <point x="1591" y="261" type="line"/>
      <point x="1591" y="441" type="line"/>
      <point x="1055" y="441" type="line"/>
      <point x="1055" y="495" type="line"/>
      <point x="1623" y="495" type="line"/>
      <point x="1623" y="700" type="line"/>
      <point x="1055" y="700" type="line"/>
      <point x="916" y="704"/>
      <point x="782" y="710"/>
      <point x="563" y="710" type="curve" smooth="yes"/>
      <point x="179" y="710"/>
      <point x="36" y="556"/>
      <point x="36" y="356" type="curve" smooth="yes"/>
      <point x="36" y="122"/>
      <point x="180" y="-10"/>
      <point x="594" y="-10" type="curve" smooth="yes"/>
      <point x="797" y="-10"/>
      <point x="925" y="-6"/>
      <point x="1055" y="0" type="curve"/>
    </contour>
    <contour>
      <point x="744" y="192" type="line"/>
      <point x="708" y="190"/>
      <point x="650" y="188"/>
      <point x="554" y="188" type="curve" smooth="yes"/>
      <point x="442" y="188"/>
      <point x="361" y="245"/>
      <point x="361" y="353" type="curve" smooth="yes"/>
      <point x="361" y="450"/>
      <point x="440" y="511"/>
      <point x="543" y="511" type="curve" smooth="yes"/>
      <point x="633" y="511"/>
      <point x="671" y="508"/>
      <point x="744" y="506" type="curve"/>
    </contour>
  </outline>
</glyph>
<glyph name="oe" format="2">
  <advance width="1394"/>
  <unicode hex="0153"/>
  <outline>
    <contour>
      <point x="29" y="277" type="curve" smooth="yes"/>
      <point x="29" y="88"/>
      <point x="156" y="-10"/>
      <point x="447" y="-10" type="curve" smooth="yes"/>
      <point x="558" y="-10"/>
      <point x="645" y="9"/>
      <point x="710" y="43" type="curve"/>
      <point x="783" y="8"/>
      <point x="877" y="-10"/>
      <point x="996" y="-10" type="curve" smooth="yes"/>
      <point x="1133" y="-10"/>
      <point x="1234" y="-1"/>
      <point x="1354" y="22" type="curve"/>
      <point x="1323" y="204" type="line"/>
      <point x="1199" y="183"/>
      <point x="1086" y="173"/>
      <point x="1013" y="173" type="curve" smooth="yes"/>
      <point x="877" y="173"/>
      <point x="867" y="191"/>
      <point x="867" y="201" type="curve" smooth="yes"/>
      <point x="867" y="203"/>
      <point x="867" y="202"/>
      <point x="867" y="203" type="curve"/>
      <point x="1086" y="208"/>
      <point x="1233" y="217"/>
      <point x="1348" y="222" type="curve"/>
      <point x="1350" y="241"/>
      <point x="1350" y="269"/>
      <point x="1350" y="286" type="curve" smooth="yes"/>
      <point x="1350" y="476"/>
      <point x="1230" y="560"/>
      <point x="979" y="560" type="curve" smooth="yes"/>
      <point x="887" y="560"/>
      <point x="800" y="539"/>
      <point x="728" y="500" type="curve"/>
      <point x="661" y="538"/>
      <point x="570" y="560"/>
      <point x="447" y="560" type="curve" smooth="yes"/>
      <point x="138" y="560"/>
      <point x="29" y="453"/>
    </contour>
    <contour>
      <point x="334" y="276" type="curve" smooth="yes"/>
      <point x="334" y="341"/>
      <point x="362" y="391"/>
      <point x="446" y="391" type="curve" smooth="yes"/>
      <point x="531" y="391"/>
      <point x="558" y="341"/>
      <point x="558" y="276" type="curve" smooth="yes"/>
      <point x="558" y="206"/>
      <point x="525" y="159"/>
      <point x="446" y="159" type="curve" smooth="yes"/>
      <point x="367" y="159"/>
      <point x="334" y="206"/>
    </contour>
    <contour>
      <point x="868" y="344" type="curve"/>
      <point x="884" y="376"/>
      <point x="914" y="387"/>
      <point x="960" y="387" type="curve" smooth="yes"/>
      <point x="1007" y="387"/>
      <point x="1027" y="373"/>
      <point x="1042" y="349" type="curve"/>
      <point x="984" y="347"/>
      <point x="923" y="345"/>
    </contour>
  </outline>
</glyph>
<glyph name="uogonek" format="2">
  <advance width="916"/>
  <unicode hex="0173"/>
  <outline>
    <contour>
      <point x="800" y="-183" type="curve" smooth="yes"/>
      <point x="851" y="-183"/>
      <point x="890" y="-179"/>
      <point x="917" y="-171" type="curve"/>
      <point x="911" y="-32" type="line"/>
      <point x="905" y="-33"/>
      <point x="898" y="-34"/>
      <point x="889" y="-34" type="curve" smooth="yes"/>
      <point x="860" y="-34"/>
      <point x="846" y="-26"/>
      <point x="846" y="-6" type="curve" smooth="yes"/>
      <point x="846" y="13"/>
      <point x="863" y="26"/>
      <point x="916" y="37" type="curve"/>
      <point x="892" y="197" type="line"/>
      <point x="883" y="193"/>
      <point x="876" y="192"/>
      <point x="867" y="192" type="curve" smooth="yes"/>
      <point x="851" y="192"/>
      <point x="838" y="202"/>
      <point x="838" y="223" type="curve" smooth="yes"/>
      <point x="838" y="550" type="line"/>
      <point x="538" y="550" type="line"/>
      <point x="538" y="217" type="line"/>
      <point x="492" y="201"/>
      <point x="468" y="197"/>
      <point x="436" y="197" type="curve" smooth="yes"/>
      <point x="386" y="197"/>
      <point x="354" y="223"/>
      <point x="354" y="292" type="curve" smooth="yes"/>
      <point x="354" y="550" type="line"/>
      <point x="54" y="550" type="line"/>
      <point x="54" y="198" type="line" smooth="yes"/>
      <point x="54" y="71"/>
      <point x="154" y="-10"/>
      <point x="310" y="-10" type="curve" smooth="yes"/>
      <point x="409" y="-10"/>
      <point x="486" y="14"/>
      <point x="577" y="60" type="curve"/>
      <point x="611" y="13"/>
      <point x="651" y="-10"/>
      <point x="736" y="-10" type="curve" smooth="yes"/>
      <point x="764" y="-10"/>
      <point x="788" y="-8"/>
      <point x="815" y="-1" type="curve"/>
      <point x="752" y="23" type="line"/>
      <point x="702" y="14"/>
      <point x="636" y="-23"/>
      <point x="636" y="-82" type="curve" smooth="yes"/>
      <point x="636" y="-143"/>
      <point x="700" y="-183"/>
    </contour>
  </outline>
</glyph>
<glyph name="longs" format="2">
  <advance width="644"/>
  <unicode hex="017F"/>
  <outline>
    <contour>
      <point x="418" y="493" type="line"/>
      <point x="418" y="539"/>
      <point x="483" y="543"/>
      <point x="515" y="543" type="curve" smooth="yes"/>
      <point x="570" y="543"/>
      <point x="633" y="533"/>
      <point x="659" y="526" type="curve"/>
      <point x="691" y="717" type="line"/>
      <point x="626" y="737"/>
      <point x="540" y="750"/>
      <point x="456" y="750" type="curve" smooth="yes"/>
      <point x="274" y="750"/>
      <point x="118" y="682"/>
      <point x="118" y="500" type="curve" smooth="yes"/>
      <point x="118" y="484" type="line"/>
      <point x="14" y="464" type="line"/>
      <point x="14" y="305" type="line"/>
      <point x="118" y="305" type="line"/>
      <point x="118" y="0" type="line"/>
      <point x="418" y="0" type="line"/>
    </contour>
  </outline>
</glyph>
<glyph name="florin" format="2">
	<advance width="1050"/>
	<unicode hex="0192"/>
	<outline>
		<contour>
			<point x="179" y="389" type="line"/>
			<point x="154" y="230" type="line"/>
			<point x="267" y="230" type="line"/>
			<point x="196" y="-210" type="line"/>
			<point x="497" y="-210" type="line"/>
			<point x="567" y="230" type="line"/>
			<point x="846" y="230" type="line"/>
			<point x="874" y="409" type="line"/>
			<point x="596" y="409" type="line"/>
			<point x="598" y="418" type="line" smooth="yes"/>
			<point x="610" y="471"/>
			<point x="640" y="494"/>
			<point x="699" y="494" type="curve" smooth="yes"/>
			<point x="766" y="494"/>
			<point x="826" y="482"/>
			<point x="900" y="459" type="curve"/>
			<point x="962" y="662" type="line"/>
			<point x="902" y="689"/>
			<point x="793" y="710"/>
			<point x="682" y="710" type="curve" smooth="yes"/>
			<point x="474" y="710"/>
			<point x="329" y="614"/>
			<point x="304" y="460" type="curve" smooth="yes"/>
			<point x="296" y="409" type="line"/>
		</contour>
	</outline>
</glyph>
<glyph name="uni0259" format="2">
  <advance width="865"/>
  <unicode hex="0259"/>
  <outline>
    <contour>
      <point x="46" y="328" type="curve"/>
      <point x="44" y="309"/>
      <point x="44" y="281"/>
      <point x="44" y="264" type="curve" smooth="yes"/>
      <point x="44" y="74"/>
      <point x="164" y="-10"/>
      <point x="415" y="-10" type="curve" smooth="yes"/>
      <point x="636" y="-10"/>
      <point x="836" y="81"/>
      <point x="836" y="296" type="curve" smooth="yes"/>
      <point x="836" y="474"/>
      <point x="688" y="560"/>
      <point x="398" y="560" type="curve" smooth="yes"/>
      <point x="261" y="560"/>
      <point x="160" y="551"/>
      <point x="40" y="528" type="curve"/>
      <point x="71" y="346" type="line"/>
      <point x="195" y="367"/>
      <point x="307" y="375"/>
      <point x="380" y="375" type="curve" smooth="yes"/>
      <point x="497" y="375"/>
      <point x="527" y="369"/>
      <point x="527" y="349" type="curve" smooth="yes"/>
      <point x="527" y="348"/>
      <point x="527" y="348"/>
      <point x="527" y="347" type="curve"/>
      <point x="303" y="342"/>
      <point x="161" y="333"/>
    </contour>
    <contour>
      <point x="526" y="206" type="curve"/>
      <point x="510" y="174"/>
      <point x="480" y="163"/>
      <point x="434" y="163" type="curve" smooth="yes"/>
      <point x="387" y="163"/>
      <point x="367" y="177"/>
      <point x="352" y="201" type="curve"/>
      <point x="410" y="203"/>
      <point x="468" y="204"/>
    </contour>
  </outline>
</glyph>
<glyph name="acutecomb" format="2">
	<advance width="0"/>
	<unicode hex="0301"/>
	<anchor x="-368" y="790" name="top"/>
	<anchor x="-446" y="550" name="_top"/>
	<outline>
		<contour>
			<point x="-565" y="596" type="line"/>
			<point x="-342" y="596" type="line"/>
			<point x="-172" y="790" type="line"/>
			<point x="-460" y="790" type="line"/>
		</contour>
	</outline>
</glyph>
<glyph name="uni0302" format="2">
	<advance width="0"/>
	<unicode hex="0302"/>
	<anchor x="-446" y="790" name="top"/>
	<anchor x="-446" y="550" name="_top"/>
	<anchor x="-80" y="661" name="top_viet"/>
	<outline>
		<contour>
			<point x="-748" y="596" type="line"/>
			<point x="-514" y="596" type="line"/>
			<point x="-447" y="657" type="line"/>
			<point x="-379" y="596" type="line"/>
			<point x="-145" y="596" type="line"/>
			<point x="-275" y="790" type="line"/>
			<point x="-608" y="790" type="line"/>
		</contour>
	</outline>
</glyph>
<glyph name="tildecomb" format="2">
	<advance width="0"/>
	<unicode hex="0303"/>
	<anchor x="-446" y="780" name="top"/>
	<anchor x="-446" y="550" name="_top"/>
	<outline>
		<contour>
			<point x="-717" y="596" type="curve"/>
			<point x="-569" y="596" type="line"/>
			<point x="-569" y="598"/>
			<point x="-569" y="599"/>
			<point x="-569" y="601" type="curve" smooth="yes"/>
			<point x="-569" y="614"/>
			<point x="-557" y="622"/>
			<point x="-537" y="622" type="curve" smooth="yes"/>
			<point x="-494" y="622"/>
			<point x="-421" y="596"/>
			<point x="-350" y="596" type="curve" smooth="yes"/>
			<point x="-220" y="596"/>
			<point x="-172" y="646"/>
			<point x="-172" y="740" type="curve" smooth="yes"/>
			<point x="-172" y="755"/>
			<point x="-173" y="772"/>
			<point x="-176" y="790" type="curve"/>
			<point x="-324" y="790" type="line"/>
			<point x="-324" y="788"/>
			<point x="-324" y="787"/>
			<point x="-324" y="785" type="curve" smooth="yes"/>
			<point x="-324" y="772"/>
			<point x="-336" y="764"/>
			<point x="-356" y="764" type="curve" smooth="yes"/>
			<point x="-397" y="764"/>
			<point x="-478" y="790"/>
			<point x="-544" y="790" type="curve" smooth="yes"/>
			<point x="-674" y="790"/>
			<point x="-721" y="740"/>
			<point x="-721" y="646" type="curve" smooth="yes"/>
			<point x="-721" y="631"/>
			<point x="-720" y="614"/>
		</contour>
	</outline>
</glyph>
<glyph name="uni0304" format="2">
	<advance width="0"/>
	<unicode hex="0304"/>
	<anchor x="-446" y="780" name="top"/>
	<anchor x="-446" y="550" name="_top"/>
	<outline>
		<contour>
			<point x="-666" y="606" type="line"/>
			<point x="-226" y="606" type="line"/>
			<point x="-226" y="780" type="line"/>
			<point x="-666" y="780" type="line"/>
		</contour>
	</outline>
</glyph>
<glyph name="uni0306" format="2">
	<advance width="0"/>
	<unicode hex="0306"/>
	<anchor x="-446" y="772" name="top"/>
	<anchor x="-446" y="550" name="_top"/>
	<outline>
		<contour>
			<point x="-446" y="596" type="curve" smooth="yes"/>
			<point x="-254" y="596"/>
			<point x="-187" y="633"/>
			<point x="-187" y="761" type="curve" smooth="yes"/>
			<point x="-187" y="770"/>
			<point x="-187" y="780"/>
			<point x="-188" y="790" type="curve"/>
			<point x="-330" y="790" type="line"/>
			<point x="-330" y="788"/>
			<point x="-330" y="787"/>
			<point x="-330" y="785" type="curve" smooth="yes"/>
			<point x="-330" y="766"/>
			<point x="-333" y="746"/>
			<point x="-446" y="746" type="curve" smooth="yes"/>
			<point x="-559" y="746"/>
			<point x="-562" y="766"/>
			<point x="-562" y="785" type="curve" smooth="yes"/>
			<point x="-562" y="787"/>
			<point x="-562" y="788"/>
			<point x="-562" y="790" type="curve"/>
			<point x="-704" y="790" type="line"/>
			<point x="-705" y="780"/>
			<point x="-705" y="770"/>
			<point x="-705" y="761" type="curve" smooth="yes"/>
			<point x="-705" y="633"/>
			<point x="-638" y="596"/>
		</contour>
	</outline>
</glyph>
<glyph name="uni0307" format="2">
	<advance width="0"/>
	<unicode hex="0307"/>
	<anchor x="-446" y="770" name="top"/>
	<anchor x="-446" y="550" name="_top"/>
	<outline>
		<contour>
			<point x="-446" y="587" type="curve" smooth="yes"/>
			<point x="-361" y="587"/>
			<point x="-329" y="623"/>
			<point x="-329" y="693" type="curve" smooth="yes"/>
			<point x="-329" y="764"/>
			<point x="-361" y="801"/>
			<point x="-446" y="801" type="curve" smooth="yes"/>
			<point x="-531" y="801"/>
			<point x="-563" y="764"/>
			<point x="-563" y="693" type="curve" smooth="yes"/>
			<point x="-563" y="623"/>
			<point x="-531" y="587"/>
		</contour>
	</outline>
</glyph>
<glyph name="uni0308" format="2">
	<advance width="0"/>
	<unicode hex="0308"/>
	<anchor x="-446" y="770" name="top"/>
	<anchor x="-446" y="550" name="_top"/>
	<outline>
		<contour>
			<point x="-313" y="576" type="curve" smooth="yes"/>
			<point x="-228" y="576"/>
			<point x="-196" y="612"/>
			<point x="-196" y="682" type="curve" smooth="yes"/>
			<point x="-196" y="753"/>
			<point x="-228" y="790"/>
			<point x="-313" y="790" type="curve" smooth="yes"/>
			<point x="-398" y="790"/>
			<point x="-430" y="753"/>
			<point x="-430" y="682" type="curve" smooth="yes"/>
			<point x="-430" y="612"/>
			<point x="-398" y="576"/>
		</contour>
		<contour>
			<point x="-579" y="576" type="curve" smooth="yes"/>
			<point x="-494" y="576"/>
			<point x="-462" y="612"/>
			<point x="-462" y="682" type="curve" smooth="yes"/>
			<point x="-462" y="753"/>
			<point x="-494" y="790"/>
			<point x="-579" y="790" type="curve" smooth="yes"/>
			<point x="-664" y="790"/>
			<point x="-696" y="753"/>
			<point x="-696" y="682" type="curve" smooth="yes"/>
			<point x="-696" y="612"/>
			<point x="-664" y="576"/>
		</contour>
	</outline>
</glyph>
<glyph name="hookabovecomb" format="2">
	<advance width="0"/>
	<unicode hex="0309"/>
	<anchor x="-474" y="808" name="top"/>
	<anchor x="-446" y="550" name="_top"/>
	<outline>
		<contour>
			<point x="-541" y="586" type="line"/>
			<point x="-374" y="593"/>
			<point x="-294" y="634"/>
			<point x="-294" y="710" type="curve" smooth="yes"/>
			<point x="-294" y="791"/>
			<point x="-357" y="817"/>
			<point x="-477" y="817" type="curve" smooth="yes"/>
			<point x="-511" y="817"/>
			<point x="-574" y="812"/>
			<point x="-606" y="806" type="curve"/>
			<point x="-606" y="694" type="line"/>
			<point x="-579" y="697"/>
			<point x="-561" y="699"/>
			<point x="-533" y="699" type="curve" smooth="yes"/>
			<point x="-499" y="699"/>
			<point x="-475" y="697"/>
			<point x="-475" y="681" type="curve" smooth="yes"/>
			<point x="-475" y="669"/>
			<point x="-495" y="663"/>
			<point x="-550" y="659" type="curve"/>
		</contour>
	</outline>
</glyph>
<glyph name="uni030A" format="2">
	<advance width="0"/>
	<unicode hex="030A"/>
	<anchor x="-446" y="781" name="top"/>
	<anchor x="-446" y="550" name="_top"/>
	<outline>
		<contour>
			<point x="-446" y="586" type="curve" smooth="yes"/>
			<point x="-329" y="586"/>
			<point x="-273" y="621"/>
			<point x="-273" y="693" type="curve" smooth="yes"/>
			<point x="-273" y="765"/>
			<point x="-329" y="800"/>
			<point x="-446" y="800" type="curve" smooth="yes"/>
			<point x="-563" y="800"/>
			<point x="-619" y="765"/>
			<point x="-619" y="693" type="curve" smooth="yes"/>
			<point x="-619" y="621"/>
			<point x="-563" y="586"/>
		</contour>
		<contour>
			<point x="-446" y="670" type="curve" smooth="yes"/>
			<point x="-466" y="670"/>
			<point x="-477" y="678"/>
			<point x="-477" y="693" type="curve" smooth="yes"/>
			<point x="-477" y="708"/>
			<point x="-466" y="716"/>
			<point x="-446" y="716" type="curve" smooth="yes"/>
			<point x="-426" y="716"/>
			<point x="-415" y="708"/>
			<point x="-415" y="693" type="curve" smooth="yes"/>
			<point x="-415" y="678"/>
			<point x="-426" y="670"/>
		</contour>
	</outline>
</glyph>
<glyph name="uni030B" format="2">
	<advance width="0"/>
	<unicode hex="030B"/>
	<anchor x="-371" y="790" name="top"/>
	<anchor x="-446" y="550" name="_top"/>
	<outline>
		<contour>
			<point x="-399" y="596" type="line"/>
			<point x="-170" y="596" type="line"/>
			<point x="-20" y="790" type="line"/>
			<point x="-314" y="790" type="line"/>
		</contour>
		<contour>
			<point x="-723" y="596" type="line"/>
			<point x="-494" y="596" type="line"/>
			<point x="-344" y="790" type="line"/>
			<point x="-638" y="790" type="line"/>
		</contour>
	</outline>
</glyph>
<glyph name="uni030F" format="2">
	<advance width="0"/>
	<unicode hex="030F"/>
	<anchor x="-513" y="790" name="top"/>
	<anchor x="-446" y="550" name="_top"/>
	<outline>
		<contour>
			<point x="-714" y="596" type="line"/>
			<point x="-485" y="596" type="line"/>
			<point x="-570" y="790" type="line"/>
			<point x="-864" y="790" type="line"/>
		</contour>
		<contour>
			<point x="-390" y="596" type="line"/>
			<point x="-161" y="596" type="line"/>
			<point x="-246" y="790" type="line"/>
			<point x="-540" y="790" type="line"/>
		</contour>
	</outline>
</glyph>
<glyph name="uni0312" format="2">
	<advance width="0"/>
	<unicode hex="0312"/>
	<anchor x="-446" y="550" name="_top"/>
	<outline>
		<contour>
			<point x="-291" y="595" type="line"/>
			<point x="-307" y="611"/>
			<point x="-315" y="643"/>
			<point x="-315" y="675" type="curve" smooth="yes"/>
			<point x="-315" y="713"/>
			<point x="-305" y="750"/>
			<point x="-273" y="790" type="curve"/>
			<point x="-533" y="790" type="line"/>
			<point x="-587" y="755"/>
			<point x="-619" y="709"/>
			<point x="-619" y="655" type="curve" smooth="yes"/>
			<point x="-619" y="635"/>
			<point x="-614" y="615"/>
			<point x="-602" y="595" type="curve"/>
		</contour>
	</outline>
</glyph>
<glyph name="uni031B" format="2">
	<advance width="0"/>
	<unicode hex="031B"/>
	<anchor x="-196" y="550" name="_topright"/>
	<anchor x="5" y="655" name="topright"/>
	<outline>
		<contour>
			<point x="-347" y="388" type="line"/>
			<point x="-287" y="388" type="line"/>
			<point x="-86" y="388"/>
			<point x="5" y="471"/>
			<point x="-15" y="655" type="curve"/>
			<point x="-283" y="655" type="line"/>
			<point x="-277" y="569"/>
			<point x="-295" y="550"/>
			<point x="-337" y="550" type="curve"/>
			<point x="-347" y="550" type="line"/>
		</contour>
	</outline>
</glyph>
<glyph name="uni0327" format="2">
	<advance width="0"/>
	<unicode hex="0327"/>
	<anchor x="-445" y="0" name="_bottom"/>
	<anchor x="-445" y="-220" name="bottom"/>
	<outline>
		<contour>
			<point x="-602" y="-56" type="curve"/>
			<point x="-608" y="-208" type="line"/>
			<point x="-564" y="-216"/>
			<point x="-526" y="-220"/>
			<point x="-492" y="-220" type="curve" smooth="yes"/>
			<point x="-339" y="-220"/>
			<point x="-282" y="-146"/>
			<point x="-282" y="-72" type="curve" smooth="yes"/>
			<point x="-282" y="-43"/>
			<point x="-290" y="-14"/>
			<point x="-305" y="10" type="curve"/>
			<point x="-548" y="10" type="line"/>
			<point x="-535" y="-1"/>
			<point x="-529" y="-12"/>
			<point x="-529" y="-24" type="curve" smooth="yes"/>
			<point x="-529" y="-48"/>
			<point x="-543" y="-58"/>
			<point x="-580" y="-58" type="curve" smooth="yes"/>
			<point x="-584" y="-58"/>
			<point x="-598" y="-57"/>
		</contour>
	</outline>
</glyph>
<glyph name="pi" format="2">
	<advance width="784"/>
	<unicode hex="03C0"/>
	<outline>
		<contour>
			<point x="596" y="-10" type="curve" smooth="yes"/>
			<point x="656" y="-10"/>
			<point x="717" y="6"/>
			<point x="759" y="37" type="curve"/>
			<point x="735" y="202" type="line"/>
			<point x="726" y="198"/>
			<point x="712" y="198"/>
			<point x="704" y="198" type="curve" smooth="yes"/>
			<point x="679" y="198"/>
			<point x="679" y="239"/>
			<point x="679" y="260" type="curve" smooth="yes"/>
			<point x="679" y="317" type="line"/>
			<point x="748" y="317" type="line"/>
			<point x="748" y="550" type="line"/>
			<point x="167" y="550" type="line" smooth="yes"/>
			<point x="120" y="550"/>
			<point x="62" y="542"/>
			<point x="30" y="523" type="curve"/>
			<point x="21" y="289" type="line"/>
			<point x="42" y="304"/>
			<point x="91" y="312"/>
			<point x="129" y="315" type="curve"/>
			<point x="103" y="210"/>
			<point x="77" y="105"/>
			<point x="51" y="0" type="curve"/>
			<point x="322" y="0" type="line"/>
			<point x="339" y="105"/>
			<point x="359" y="205"/>
			<point x="378" y="317" type="curve"/>
			<point x="413" y="317" type="line"/>
			<point x="413" y="176" type="line" smooth="yes"/>
			<point x="413" y="56"/>
			<point x="465" y="-10"/>
		</contour>
	</outline>
</glyph>
<glyph name="endash" format="2">
	<advance width="500"/>
	<unicode hex="2013"/>
	<outline>
		<contour>
			<point x="20" y="234" type="line"/>
			<point x="480" y="234" type="line"/>
			<point x="480" y="402" type="line"/>
			<point x="20" y="402" type="line"/>
		</contour>
	</outline>
</glyph>
<glyph name="daggerdbl" format="2">
  <advance width="648"/>
  <unicode hex="2021"/>
  <outline>
    <contour>
      <point x="608" y="-19" type="line"/>
      <point x="608" y="189" type="line"/>
      <point x="439" y="189" type="line"/>
      <point x="439" y="342" type="line"/>
      <point x="608" y="342" type="line"/>
      <point x="608" y="550" type="line"/>
      <point x="439" y="550" type="line"/>
      <point x="439" y="740" type="line"/>
      <point x="209" y="740" type="line"/>
      <point x="209" y="550" type="line"/>
      <point x="40" y="550" type="line"/>
      <point x="40" y="342" type="line"/>
      <point x="209" y="342" type="line"/>
      <point x="209" y="189" type="line"/>
      <point x="40" y="189" type="line"/>
      <point x="40" y="-19" type="line"/>
      <point x="209" y="-19" type="line"/>
      <point x="209" y="-210" type="line"/>
      <point x="439" y="-210" type="line"/>
      <point x="439" y="-19" type="line"/>
    </contour>
  </outline>
</glyph>
<glyph name="bullet" format="2">
	<advance width="500"/>
	<unicode hex="2022"/>
	<outline>
		<contour>
			<point x="250" y="164" type="curve" smooth="yes"/>
			<point x="356" y="164"/>
			<point x="443" y="251"/>
			<point x="443" y="356" type="curve" smooth="yes"/>
			<point x="443" y="463"/>
			<point x="356" y="550"/>
			<point x="250" y="550" type="curve" smooth="yes"/>
			<point x="144" y="550"/>
			<point x="57" y="463"/>
			<point x="57" y="356" type="curve" smooth="yes"/>
			<point x="57" y="251"/>
			<point x="144" y="164"/>
		</contour>
	</outline>
</glyph>
<glyph name="minute" format="2">
	<advance width="310"/>
	<unicode hex="2032"/>
	<outline>
		<contour>
			<point x="16" y="427" type="line"/>
			<point x="246" y="427" type="line"/>
			<point x="290" y="700" type="line"/>
			<point x="40" y="700" type="line"/>
		</contour>
	</outline>
</glyph>
<glyph name="guilsinglleft" format="2">
	<advance width="422"/>
	<unicode hex="2039"/>
	<outline>
		<contour>
			<point x="40" y="172" type="line"/>
			<point x="382" y="-11" type="line"/>
			<point x="382" y="231" type="line"/>
			<point x="215" y="274" type="line"/>
			<point x="382" y="318" type="line"/>
			<point x="382" y="560" type="line"/>
			<point x="40" y="387" type="line"/>
		</contour>
	</outline>
</glyph>
<glyph name="uni2052" format="2">
  <advance width="1050"/>
  <unicode hex="2052"/>
  <outline>
    <contour>
      <point x="56" y="0" type="line"/>
      <point x="300" y="0" type="line"/>
      <point x="994" y="700" type="line"/>
      <point x="750" y="700" type="line"/>
    </contour>
    <contour>
      <point x="64" y="595" type="curve" smooth="yes"/>
      <point x="64" y="520"/>
      <point x="109" y="481"/>
      <point x="227" y="481" type="curve" smooth="yes"/>
      <point x="345" y="481"/>
      <point x="390" y="520"/>
      <point x="390" y="595" type="curve" smooth="yes"/>
      <point x="390" y="671"/>
      <point x="345" y="710"/>
      <point x="227" y="710" type="curve" smooth="yes"/>
      <point x="109" y="710"/>
      <point x="64" y="671"/>
    </contour>
    <contour>
      <point x="662" y="103" type="curve" smooth="yes"/>
      <point x="662" y="28"/>
      <point x="707" y="-11"/>
      <point x="825" y="-11" type="curve" smooth="yes"/>
      <point x="943" y="-11"/>
      <point x="988" y="28"/>
      <point x="988" y="103" type="curve" smooth="yes"/>
      <point x="988" y="179"/>
      <point x="943" y="218"/>
      <point x="825" y="218" type="curve" smooth="yes"/>
      <point x="707" y="218"/>
      <point x="662" y="179"/>
    </contour>
  </outline>
</glyph>
<glyph name="uni2074" format="2">
	<advance width="692"/>
	<unicode hex="2074"/>
	<outline>
		<contour>
			<point x="5" y="416" type="line"/>
			<point x="351" y="416" type="line"/>
			<point x="351" y="370" type="line"/>
			<point x="583" y="370" type="line"/>
			<point x="583" y="416" type="line"/>
			<point x="650" y="416" type="line"/>
			<point x="650" y="528" type="line"/>
			<point x="583" y="528" type="line"/>
			<point x="583" y="764" type="line"/>
			<point x="434" y="764" type="line"/>
			<point x="5" y="505" type="line"/>
		</contour>
		<contour>
			<point x="227" y="528" type="line"/>
			<point x="351" y="604" type="line"/>
			<point x="351" y="528" type="line"/>
		</contour>
	</outline>
</glyph>
<glyph name="uni2076" format="2">
  <advance width="662"/>
  <unicode hex="2076"/>
  <outline>
    <contour>
      <point x="343" y="363" type="curve" smooth="yes"/>
      <point x="582" y="363"/>
      <point x="654" y="416"/>
      <point x="654" y="504" type="curve" smooth="yes"/>
      <point x="654" y="587"/>
      <point x="577" y="622"/>
      <point x="414" y="622" type="curve" smooth="yes"/>
      <point x="321" y="622"/>
      <point x="244" y="610"/>
      <point x="166" y="584" type="curve"/>
      <point x="156" y="508" type="line"/>
      <point x="204" y="518"/>
      <point x="272" y="522"/>
      <point x="322" y="522" type="curve" smooth="yes"/>
      <point x="393" y="522"/>
      <point x="410" y="511"/>
      <point x="410" y="497" type="curve" smooth="yes"/>
      <point x="410" y="485"/>
      <point x="395" y="475"/>
      <point x="340" y="475" type="curve" smooth="yes"/>
      <point x="264" y="475"/>
      <point x="205" y="494"/>
      <point x="205" y="564" type="curve" smooth="yes"/>
      <point x="205" y="638"/>
      <point x="290" y="650"/>
      <point x="422" y="650" type="curve" smooth="yes"/>
      <point x="480" y="650"/>
      <point x="533" y="646"/>
      <point x="593" y="627" type="curve"/>
      <point x="626" y="749" type="line"/>
      <point x="566" y="766"/>
      <point x="501" y="773"/>
      <point x="412" y="773" type="curve" smooth="yes"/>
      <point x="161" y="773"/>
      <point x="16" y="696"/>
      <point x="16" y="550" type="curve" smooth="yes"/>
      <point x="16" y="415"/>
      <point x="135" y="363"/>
    </contour>
  </outline>
</glyph>
<glyph name="uni2077" format="2">
	<advance width="600"/>
	<unicode hex="2077"/>
	<outline>
		<contour>
			<point x="112" y="370" type="curve"/>
			<point x="347" y="370" type="line"/>
			<point x="353" y="411"/>
			<point x="373" y="464"/>
			<point x="456" y="540" type="curve" smooth="yes"/>
			<point x="583" y="657" type="line"/>
			<point x="583" y="764" type="line"/>
			<point x="25" y="764" type="line"/>
			<point x="25" y="634" type="line"/>
			<point x="310" y="634" type="line"/>
			<point x="218" y="556" type="line" smooth="yes"/>
			<point x="132" y="483"/>
			<point x="112" y="427"/>
		</contour>
	</outline>
</glyph>
<glyph name="uni2078" format="2">
	<advance width="712"/>
	<unicode hex="2078"/>
	<outline>
		<contour>
			<point x="356" y="363" type="curve" smooth="yes"/>
			<point x="578" y="363"/>
			<point x="688" y="402"/>
			<point x="688" y="496" type="curve" smooth="yes"/>
			<point x="688" y="652"/>
			<point x="274" y="604"/>
			<point x="274" y="643" type="curve" smooth="yes"/>
			<point x="274" y="656"/>
			<point x="295" y="661"/>
			<point x="340" y="661" type="curve" smooth="yes"/>
			<point x="399" y="661"/>
			<point x="430" y="656"/>
			<point x="430" y="638" type="curve" smooth="yes"/>
			<point x="430" y="622"/>
			<point x="413" y="615"/>
			<point x="399" y="610" type="curve"/>
			<point x="585" y="583" type="line"/>
			<point x="618" y="599"/>
			<point x="646" y="623"/>
			<point x="646" y="656" type="curve" smooth="yes"/>
			<point x="646" y="728"/>
			<point x="544" y="773"/>
			<point x="352" y="773" type="curve" smooth="yes"/>
			<point x="162" y="773"/>
			<point x="62" y="729"/>
			<point x="62" y="630" type="curve" smooth="yes"/>
			<point x="62" y="460"/>
			<point x="450" y="519"/>
			<point x="450" y="478" type="curve" smooth="yes"/>
			<point x="450" y="468"/>
			<point x="431" y="463"/>
			<point x="383" y="463" type="curve" smooth="yes"/>
			<point x="288" y="463"/>
			<point x="249" y="478"/>
			<point x="249" y="502" type="curve" smooth="yes"/>
			<point x="249" y="515"/>
			<point x="256" y="524"/>
			<point x="270" y="531" type="curve"/>
			<point x="104" y="569" type="line"/>
			<point x="45" y="557"/>
			<point x="24" y="527"/>
			<point x="24" y="492" type="curve" smooth="yes"/>
			<point x="24" y="405"/>
			<point x="128" y="363"/>
		</contour>
	</outline>
</glyph>
<glyph name="uni207B" format="2">
	<advance width="500"/>
	<unicode hex="207B"/>
	<outline>
		<contour>
			<point x="61" y="493" type="line"/>
			<point x="439" y="493" type="line"/>
			<point x="439" y="610" type="line"/>
			<point x="61" y="610" type="line"/>
		</contour>
	</outline>
</glyph>
<glyph name="uni207E" format="2">
  <advance width="277"/>
  <unicode hex="207E"/>
  <outline>
    <contour>
      <point x="-4" y="274" type="line"/>
      <point x="173" y="288"/>
      <point x="252" y="399"/>
      <point x="252" y="556" type="curve" smooth="yes"/>
      <point x="252" y="712"/>
      <point x="173" y="824"/>
      <point x="-4" y="837" type="curve"/>
      <point x="-4" y="740" type="line"/>
      <point x="81" y="715"/>
      <point x="81" y="647"/>
      <point x="81" y="556" type="curve" smooth="yes"/>
      <point x="81" y="473"/>
      <point x="81" y="396"/>
      <point x="-4" y="371" type="curve"/>
    </contour>
  </outline>
</glyph>
<glyph name="colonmonetary" format="2">
	<advance width="1050"/>
	<unicode hex="20A1"/>
	<outline>
		<contour>
			<point x="557" y="0" type="curve" smooth="yes"/>
			<point x="828" y="0"/>
			<point x="933" y="25"/>
			<point x="1044" y="52" type="curve"/>
			<point x="988" y="243" type="line"/>
			<point x="878" y="227"/>
			<point x="752" y="209"/>
			<point x="644" y="209" type="curve" smooth="yes"/>
			<point x="458" y="209"/>
			<point x="380" y="251"/>
			<point x="380" y="338" type="curve" smooth="yes"/>
			<point x="380" y="439"/>
			<point x="452" y="486"/>
			<point x="650" y="486" type="curve" smooth="yes"/>
			<point x="736" y="486"/>
			<point x="841" y="475"/>
			<point x="957" y="458" type="curve"/>
			<point x="1019" y="663" type="line"/>
			<point x="894" y="693"/>
			<point x="815" y="704"/>
			<point x="635" y="704" type="curve" smooth="yes"/>
			<point x="261" y="704"/>
			<point x="61" y="604"/>
			<point x="61" y="337" type="curve" smooth="yes"/>
			<point x="61" y="92"/>
			<point x="253" y="0"/>
		</contour>
		<contour>
			<point x="385" y="625" type="line"/>
			<point x="576" y="626" type="line"/>
			<point x="595" y="805" type="line"/>
			<point x="404" y="805" type="line"/>
		</contour>
		<contour>
			<point x="646" y="635" type="line"/>
			<point x="837" y="636" type="line"/>
			<point x="855" y="805" type="line"/>
			<point x="664" y="805" type="line"/>
		</contour>
		<contour>
			<point x="308" y="-105" type="line"/>
			<point x="499" y="-105" type="line"/>
			<point x="519" y="82" type="line"/>
			<point x="327" y="77" type="line"/>
		</contour>
		<contour>
			<point x="568" y="-105" type="line"/>
			<point x="759" y="-105" type="line"/>
			<point x="779" y="82" type="line"/>
			<point x="587" y="77" type="line"/>
		</contour>
	</outline>
</glyph>
<glyph name="franc" format="2">
	<advance width="1050"/>
	<unicode hex="20A3"/>
	<outline>
		<contour>
			<point x="154" y="0" type="line"/>
			<point x="474" y="0" type="line"/>
			<point x="474" y="510" type="line"/>
			<point x="1032" y="510" type="line"/>
			<point x="1032" y="700" type="line"/>
			<point x="154" y="700" type="line"/>
		</contour>
		<contour>
			<point x="45" y="187" type="line"/>
			<point x="882" y="187" type="line"/>
			<point x="882" y="278" type="line"/>
			<point x="45" y="278" type="line"/>
		</contour>
		<contour>
			<point x="45" y="316" type="line"/>
			<point x="882" y="316" type="line"/>
			<point x="882" y="407" type="line"/>
			<point x="45" y="407" type="line"/>
		</contour>
	</outline>
</glyph>
<glyph name="uni20A6" format="2">
	<advance width="1050"/>
	<unicode hex="20A6"/>
	<outline>
		<contour>
			<point x="97" y="0" type="line"/>
			<point x="384" y="0" type="line"/>
			<point x="384" y="312" type="line"/>
			<point x="685" y="0" type="line"/>
			<point x="953" y="0" type="line"/>
			<point x="953" y="700" type="line"/>
			<point x="666" y="700" type="line"/>
			<point x="666" y="357" type="line"/>
			<point x="366" y="700" type="line"/>
			<point x="97" y="700" type="line"/>
		</contour>
		<contour>
			<point x="15" y="266" type="line"/>
			<point x="213" y="266" type="line"/>
			<point x="213" y="419" type="line"/>
			<point x="15" y="419" type="line"/>
		</contour>
		<contour>
			<point x="864" y="266" type="line"/>
			<point x="1035" y="266" type="line"/>
			<point x="1035" y="419" type="line"/>
			<point x="864" y="419" type="line"/>
		</contour>
	</outline>
</glyph>
<glyph name="uni20B2" format="2">
	<advance width="1050"/>
	<unicode hex="20B2"/>
	<outline>
		<contour>
			<point x="24" y="327" type="curve" smooth="yes"/>
			<point x="24" y="99"/>
			<point x="193" y="-10"/>
			<point x="543" y="-10" type="curve" smooth="yes"/>
			<point x="729" y="-10"/>
			<point x="885" y="12"/>
			<point x="1019" y="58" type="curve"/>
			<point x="1019" y="434" type="line"/>
			<point x="578" y="434" type="line"/>
			<point x="578" y="249" type="line"/>
			<point x="742" y="249" type="line"/>
			<point x="742" y="191" type="line"/>
			<point x="709" y="187"/>
			<point x="657" y="184"/>
			<point x="607" y="184" type="curve" smooth="yes"/>
			<point x="436" y="184"/>
			<point x="333" y="233"/>
			<point x="333" y="341" type="curve" smooth="yes"/>
			<point x="333" y="448"/>
			<point x="425" y="496"/>
			<point x="613" y="496" type="curve" smooth="yes"/>
			<point x="694" y="496"/>
			<point x="799" y="487"/>
			<point x="923" y="468" type="curve"/>
			<point x="982" y="669" type="line"/>
			<point x="846" y="701"/>
			<point x="764" y="710"/>
			<point x="598" y="710" type="curve" smooth="yes"/>
			<point x="211" y="710"/>
			<point x="24" y="585"/>
		</contour>
		<contour>
			<point x="486" y="-105" type="line"/>
			<point x="687" y="-105" type="line"/>
			<point x="687" y="22" type="line"/>
			<point x="486" y="17" type="line"/>
		</contour>
		<contour>
			<point x="486" y="685" type="line"/>
			<point x="687" y="686" type="line"/>
			<point x="687" y="805" type="line"/>
			<point x="486" y="805" type="line"/>
		</contour>
	</outline>
</glyph>
<glyph name="uni20B5" format="2">
	<advance width="1050"/>
	<unicode hex="20B5"/>
	<outline>
		<contour>
			<point x="61" y="337" type="curve" smooth="yes"/>
			<point x="61" y="92"/>
			<point x="252" y="0"/>
			<point x="557" y="0" type="curve" smooth="yes"/>
			<point x="828" y="0"/>
			<point x="933" y="25"/>
			<point x="1044" y="52" type="curve"/>
			<point x="988" y="243" type="line"/>
			<point x="878" y="227"/>
			<point x="752" y="209"/>
			<point x="644" y="209" type="curve" smooth="yes"/>
			<point x="458" y="209"/>
			<point x="380" y="251"/>
			<point x="380" y="338" type="curve" smooth="yes"/>
			<point x="380" y="439"/>
			<point x="452" y="486"/>
			<point x="650" y="486" type="curve" smooth="yes"/>
			<point x="736" y="486"/>
			<point x="841" y="475"/>
			<point x="957" y="458" type="curve"/>
			<point x="1019" y="663" type="line"/>
			<point x="894" y="693"/>
			<point x="815" y="704"/>
			<point x="635" y="704" type="curve" smooth="yes"/>
			<point x="261" y="704"/>
			<point x="61" y="604"/>
		</contour>
		<contour>
			<point x="496" y="-105" type="line"/>
			<point x="697" y="-105" type="line"/>
			<point x="697" y="22" type="line"/>
			<point x="496" y="17" type="line"/>
		</contour>
		<contour>
			<point x="496" y="685" type="line"/>
			<point x="697" y="686" type="line"/>
			<point x="697" y="805" type="line"/>
			<point x="496" y="805" type="line"/>
		</contour>
	</outline>
</glyph>
<glyph name="uni20BD" format="2">
	<advance width="1050"/>
	<unicode hex="20BD"/>
	<outline>
		<contour>
			<point x="103" y="0" type="line"/>
			<point x="423" y="0" type="line"/>
			<point x="423" y="270" type="line"/>
			<point x="586" y="270" type="line" smooth="yes"/>
			<point x="930" y="270"/>
			<point x="1042" y="317"/>
			<point x="1042" y="486" type="curve" smooth="yes"/>
			<point x="1042" y="658"/>
			<point x="932" y="710"/>
			<point x="527" y="710" type="curve" smooth="yes"/>
			<point x="398" y="710"/>
			<point x="260" y="708"/>
			<point x="103" y="699" type="curve"/>
		</contour>
		<contour>
			<point x="423" y="384" type="line"/>
			<point x="423" y="511" type="line"/>
			<point x="493" y="515"/>
			<point x="512" y="515"/>
			<point x="574" y="515" type="curve" smooth="yes"/>
			<point x="676" y="515"/>
			<point x="715" y="498"/>
			<point x="715" y="452" type="curve" smooth="yes"/>
			<point x="715" y="402"/>
			<point x="692" y="384"/>
			<point x="545" y="384" type="curve" smooth="yes"/>
		</contour>
		<contour>
			<point x="15" y="270" type="line"/>
			<point x="213" y="270" type="line"/>
			<point x="213" y="384" type="line"/>
			<point x="15" y="384" type="line"/>
		</contour>
		<contour>
			<point x="15" y="116" type="line"/>
			<point x="759" y="116" type="line"/>
			<point x="759" y="230" type="line"/>
			<point x="15" y="230" type="line"/>
		</contour>
	</outline>
</glyph>
<glyph name="uni2113" format="2">
	<advance width="710"/>
	<unicode hex="2113"/>
	<outline>
		<contour>
			<point x="444" y="-10" type="curve" smooth="yes"/>
			<point x="532" y="-10"/>
			<point x="605" y="2"/>
			<point x="663" y="26" type="curve"/>
			<point x="625" y="199" type="line"/>
			<point x="579" y="182"/>
			<point x="531" y="172"/>
			<point x="494" y="172" type="curve" smooth="yes"/>
			<point x="396" y="172"/>
			<point x="361" y="218"/>
			<point x="361" y="378" type="curve" smooth="yes"/>
			<point x="361" y="494"/>
			<point x="372" y="526"/>
			<point x="400" y="526" type="curve" smooth="yes"/>
			<point x="420" y="526"/>
			<point x="428" y="509"/>
			<point x="428" y="472" type="curve" smooth="yes"/>
			<point x="428" y="384"/>
			<point x="411" y="336"/>
			<point x="294" y="311" type="curve"/>
			<point x="337" y="160" type="line"/>
			<point x="586" y="208"/>
			<point x="692" y="292"/>
			<point x="692" y="463" type="curve" smooth="yes"/>
			<point x="692" y="614"/>
			<point x="592" y="710"/>
			<point x="415" y="710" type="curve" smooth="yes"/>
			<point x="197" y="710"/>
			<point x="81" y="600"/>
			<point x="81" y="383" type="curve" smooth="yes"/>
			<point x="81" y="119"/>
			<point x="197" y="-10"/>
		</contour>
		<contour>
			<point x="25" y="121" type="line"/>
			<point x="63" y="121"/>
			<point x="115" y="124"/>
			<point x="159" y="130" type="curve"/>
			<point x="105" y="290" type="line"/>
			<point x="78" y="288"/>
			<point x="52" y="287"/>
			<point x="25" y="287" type="curve"/>
		</contour>
	</outline>
</glyph>
<glyph name="uni2117" format="2">
  <advance width="914"/>
  <unicode hex="2117"/>
  <outline>
    <contour>
      <point x="256" y="195" type="line"/>
      <point x="391" y="195" type="line"/>
      <point x="391" y="270" type="line"/>
      <point x="429" y="268"/>
      <point x="466" y="268"/>
      <point x="501" y="268" type="curve" smooth="yes"/>
      <point x="648" y="268"/>
      <point x="689" y="300"/>
      <point x="689" y="384" type="curve" smooth="yes"/>
      <point x="689" y="472"/>
      <point x="648" y="499"/>
      <point x="465" y="499" type="curve" smooth="yes"/>
      <point x="438" y="499"/>
      <point x="362" y="498"/>
      <point x="256" y="494" type="curve"/>
    </contour>
    <contour>
      <point x="391" y="412" type="line"/>
      <point x="438" y="413"/>
      <point x="443" y="413"/>
      <point x="475" y="413" type="curve" smooth="yes"/>
      <point x="537" y="413"/>
      <point x="552" y="402"/>
      <point x="552" y="383" type="curve" smooth="yes"/>
      <point x="552" y="365"/>
      <point x="546" y="356"/>
      <point x="442" y="356" type="curve" smooth="yes"/>
      <point x="430" y="356"/>
      <point x="420" y="356"/>
      <point x="391" y="358" type="curve"/>
    </contour>
    <contour>
      <point x="51" y="351" type="curve" smooth="yes"/>
      <point x="51" y="142"/>
      <point x="187" y="-10"/>
      <point x="443" y="-10" type="curve" smooth="yes"/>
      <point x="714" y="-10"/>
      <point x="863" y="132"/>
      <point x="863" y="351" type="curve" smooth="yes"/>
      <point x="863" y="561"/>
      <point x="715" y="710"/>
      <point x="443" y="710" type="curve" smooth="yes"/>
      <point x="190" y="710"/>
      <point x="51" y="562"/>
    </contour>
    <contour>
      <point x="157" y="351" type="curve" smooth="yes"/>
      <point x="157" y="512"/>
      <point x="245" y="614"/>
      <point x="443" y="614" type="curve" smooth="yes"/>
      <point x="658" y="614"/>
      <point x="757" y="511"/>
      <point x="757" y="351" type="curve" smooth="yes"/>
      <point x="757" y="191"/>
      <point x="656" y="79"/>
      <point x="443" y="79" type="curve" smooth="yes"/>
      <point x="244" y="79"/>
      <point x="157" y="192"/>
    </contour>
  </outline>
</glyph>
<glyph name="trademark" format="2">
	<advance width="1136"/>
	<unicode hex="2122"/>
	<outline>
		<contour>
			<point x="527" y="587" type="line"/>
			<point x="527" y="700" type="line"/>
			<point x="50" y="700" type="line"/>
			<point x="50" y="587" type="line"/>
			<point x="212" y="587" type="line"/>
			<point x="212" y="371" type="line"/>
			<point x="362" y="371" type="line"/>
			<point x="362" y="587" type="line"/>
		</contour>
		<contour>
			<point x="577" y="371" type="line"/>
			<point x="721" y="371" type="line"/>
			<point x="721" y="517" type="line"/>
			<point x="795" y="414" type="line"/>
			<point x="855" y="414" type="line"/>
			<point x="942" y="517" type="line"/>
			<point x="942" y="371" type="line"/>
			<point x="1086" y="371" type="line"/>
			<point x="1086" y="700" type="line"/>
			<point x="942" y="700" type="line"/>
			<point x="826" y="571" type="line"/>
			<point x="719" y="700" type="line"/>
			<point x="577" y="700" type="line"/>
		</contour>
	</outline>
</glyph>
<glyph name="arrowleft" format="2">
	<advance width="825"/>
	<unicode hex="2190"/>
	<outline>
		<contour>
			<point x="780" y="458" type="line"/>
			<point x="424" y="458" type="line"/>
			<point x="544" y="578" type="line"/>
			<point x="393" y="729" type="line"/>
			<point x="14" y="350" type="line"/>
			<point x="393" y="-29" type="line"/>
			<point x="544" y="123" type="line"/>
			<point x="422" y="244" type="line"/>
			<point x="780" y="244" type="line"/>
		</contour>
	</outline>
</glyph>
<glyph name="arrowdown" format="2">
	<advance width="825"/>
	<unicode hex="2193"/>
	<outline>
		<contour>
			<point x="305" y="737" type="line"/>
			<point x="305" y="381" type="line"/>
			<point x="185" y="501" type="line"/>
			<point x="34" y="350" type="line"/>
			<point x="413" y="-29" type="line"/>
			<point x="792" y="350" type="line"/>
			<point x="640" y="501" type="line"/>
			<point x="519" y="379" type="line"/>
			<point x="519" y="737" type="line"/>
		</contour>
	</outline>
</glyph>
<glyph name="product" format="2">
  <advance width="1156"/>
  <unicode hex="220F"/>
  <outline>
    <contour>
      <point x="80" y="-210" type="line"/>
      <point x="400" y="-210" type="line"/>
      <point x="400" y="460" type="line"/>
      <point x="766" y="460" type="line"/>
      <point x="766" y="-210" type="line"/>
      <point x="1076" y="-210" type="line"/>
      <point x="1076" y="700" type="line"/>
      <point x="80" y="700" type="line"/>
    </contour>
  </outline>
</glyph>
<glyph name="minus" format="2">
  <advance width="782"/>
  <unicode hex="2212"/>
  <outline>
    <contour>
      <point x="60" y="216" type="line"/>
      <point x="722" y="216" type="line"/>
      <point x="722" y="421" type="line"/>
      <point x="60" y="421" type="line"/>
    </contour>
  </outline>
</glyph>
<glyph name="integral" format="2">
	<advance width="667"/>
	<unicode hex="222B"/>
	<outline>
		<contour>
			<point x="195" y="-220" type="curve" smooth="yes"/>
			<point x="358" y="-220"/>
			<point x="427" y="-155"/>
			<point x="427" y="34" type="curve" smooth="yes"/>
			<point x="427" y="493" type="line" smooth="yes"/>
			<point x="427" y="539"/>
			<point x="492" y="543"/>
			<point x="524" y="543" type="curve" smooth="yes"/>
			<point x="579" y="543"/>
			<point x="642" y="533"/>
			<point x="668" y="526" type="curve"/>
			<point x="700" y="717" type="line"/>
			<point x="635" y="737"/>
			<point x="549" y="750"/>
			<point x="465" y="750" type="curve" smooth="yes"/>
			<point x="283" y="750"/>
			<point x="169" y="729"/>
			<point x="169" y="516" type="curve" smooth="yes"/>
			<point x="169" y="46" type="line" smooth="yes"/>
			<point x="169" y="13"/>
			<point x="150" y="3"/>
			<point x="116" y="3" type="curve" smooth="yes"/>
			<point x="88" y="3"/>
			<point x="52" y="8"/>
			<point x="2" y="17" type="curve"/>
			<point x="-33" y="-185" type="line"/>
			<point x="16" y="-208"/>
			<point x="101" y="-220"/>
		</contour>
	</outline>
</glyph>
<glyph name="greaterequal" format="2">
  <advance width="782"/>
  <unicode hex="2265"/>
  <outline>
    <contour>
      <point x="722" y="368" type="line"/>
      <point x="722" y="539" type="line"/>
      <point x="60" y="702" type="line"/>
      <point x="60" y="487" type="line"/>
      <point x="441" y="453" type="line"/>
      <point x="60" y="418" type="line"/>
      <point x="60" y="206" type="line"/>
    </contour>
    <contour>
      <point x="722" y="205" type="line"/>
      <point x="60" y="205" type="line"/>
      <point x="60" y="0" type="line"/>
      <point x="722" y="0" type="line"/>
    </contour>
  </outline>
</glyph>
<glyph name="triagup" format="2">
	<advance width="694"/>
	<unicode hex="25B2"/>
	<outline>
		<contour>
			<point x="113" y="112" type="line"/>
			<point x="582" y="112" type="line"/>
			<point x="348" y="626" type="line"/>
		</contour>
	</outline>
</glyph>
<glyph name="uni25B3" format="2">
	<advance width="694"/>
	<unicode hex="25B3"/>
	<outline>
		<contour>
			<point x="113" y="112" type="line"/>
			<point x="582" y="112" type="line"/>
			<point x="348" y="626" type="line"/>
		</contour>
		<contour>
			<point x="238" y="192" type="line"/>
			<point x="348" y="433" type="line"/>
			<point x="457" y="192" type="line"/>
		</contour>
	</outline>
</glyph>
<glyph name="uni25B6" format="2">
	<advance width="694"/>
	<unicode hex="25B6"/>
	<outline>
		<contour>
			<point x="120" y="94" type="line"/>
			<point x="634" y="328" type="line"/>
			<point x="120" y="563" type="line"/>
		</contour>
	</outline>
</glyph>
<glyph name="triagdn" format="2">
	<advance width="694"/>
	<unicode hex="25BC"/>
	<outline>
		<contour>
			<point x="348" y="32" type="line"/>
			<point x="582" y="546" type="line"/>
			<point x="113" y="546" type="line"/>
		</contour>
	</outline>
</glyph>
<glyph name="uni25C1" format="2">
	<advance width="694"/>
	<unicode hex="25C1"/>
	<outline>
		<contour>
			<point x="60" y="328" type="line"/>
			<point x="574" y="94" type="line"/>
			<point x="574" y="563" type="line"/>
		</contour>
		<contour>
			<point x="253" y="328" type="line"/>
			<point x="494" y="439" type="line"/>
			<point x="494" y="219" type="line"/>
		</contour>
	</outline>
</glyph>
<glyph name="uni25C7" format="2">
	<advance width="694"/>
	<unicode hex="25C7"/>
	<outline>
		<contour>
			<point x="52" y="328" type="line"/>
			<point x="347" y="33" type="line"/>
			<point x="642" y="328" type="line"/>
			<point x="347" y="623" type="line"/>
		</contour>
		<contour>
			<point x="166" y="328" type="line"/>
			<point x="347" y="509" type="line"/>
			<point x="528" y="328" type="line"/>
			<point x="347" y="147" type="line"/>
		</contour>
	</outline>
</glyph>
<glyph name="lozenge" format="2">
	<advance width="500"/>
	<unicode hex="25CA"/>
	<outline>
		<contour>
			<point x="251" y="464" type="line"/>
			<point x="281" y="349" type="line"/>
			<point x="249" y="236" type="line"/>
			<point x="220" y="349" type="line"/>
		</contour>
		<contour>
			<point x="345" y="700" type="line"/>
			<point x="157" y="700" type="line"/>
			<point x="14" y="345" type="line"/>
			<point x="156" y="0" type="line"/>
			<point x="344" y="0" type="line"/>
			<point x="486" y="345" type="line"/>
		</contour>
	</outline>
</glyph>
<glyph name="circle" format="2">
	<advance width="694"/>
	<unicode hex="25CB"/>
	<outline>
		<contour>
			<point x="107" y="320" type="curve" smooth="yes"/>
			<point x="107" y="188"/>
			<point x="214" y="81"/>
			<point x="346" y="81" type="curve" smooth="yes"/>
			<point x="478" y="81"/>
			<point x="586" y="188"/>
			<point x="586" y="320" type="curve" smooth="yes"/>
			<point x="586" y="452"/>
			<point x="478" y="560"/>
			<point x="346" y="560" type="curve" smooth="yes"/>
			<point x="214" y="560"/>
			<point x="107" y="452"/>
		</contour>
		<contour>
			<point x="187" y="320" type="curve" smooth="yes"/>
			<point x="187" y="408"/>
			<point x="258" y="480"/>
			<point x="346" y="480" type="curve" smooth="yes"/>
			<point x="434" y="480"/>
			<point x="506" y="408"/>
			<point x="506" y="320" type="curve" smooth="yes"/>
			<point x="506" y="232"/>
			<point x="434" y="161"/>
			<point x="346" y="161" type="curve" smooth="yes"/>
			<point x="258" y="161"/>
			<point x="187" y="232"/>
		</contour>
	</outline>
</glyph>
<glyph name="heart" format="2">
	<advance width="800"/>
	<unicode hex="2665"/>
	<outline>
		<contour>
			<point x="379" y="0" type="curve"/>
			<point x="421" y="0" type="line"/>
			<point x="485" y="187"/>
			<point x="762" y="238"/>
			<point x="762" y="459" type="curve" smooth="yes"/>
			<point x="762" y="583"/>
			<point x="674" y="650"/>
			<point x="576" y="650" type="curve" smooth="yes"/>
			<point x="504" y="650"/>
			<point x="434" y="614"/>
			<point x="400" y="527" type="curve"/>
			<point x="366" y="614"/>
			<point x="296" y="650"/>
			<point x="224" y="650" type="curve" smooth="yes"/>
			<point x="126" y="650"/>
			<point x="38" y="583"/>
			<point x="38" y="459" type="curve" smooth="yes"/>
			<point x="38" y="238"/>
			<point x="315" y="187"/>
		</contour>
	</outline>
</glyph>
<glyph name="uni2781" format="2">
  <advance width="908"/>
  <unicode hex="2781"/>
  <outline>
    <contour>
      <point x="242" y="184" type="line"/>
      <point x="679" y="184" type="line"/>
      <point x="679" y="297" type="line"/>
      <point x="546" y="297" type="line"/>
      <point x="610" y="327"/>
      <point x="633" y="356"/>
      <point x="633" y="402" type="curve" smooth="yes"/>
      <point x="633" y="477"/>
      <point x="554" y="527"/>
      <point x="439" y="527" type="curve" smooth="yes"/>
      <point x="374" y="527"/>
      <point x="287" y="508"/>
      <point x="242" y="483" type="curve"/>
      <point x="279" y="376" type="line"/>
      <point x="324" y="393"/>
      <point x="353" y="405"/>
      <point x="390" y="405" type="curve" smooth="yes"/>
      <point x="419" y="405"/>
      <point x="439" y="392"/>
      <point x="439" y="373" type="curve" smooth="yes"/>
      <point x="439" y="341"/>
      <point x="387" y="316"/>
      <point x="242" y="278" type="curve"/>
    </contour>
    <contour>
      <point x="454" y="-10" type="curve" smooth="yes"/>
      <point x="710" y="-10"/>
      <point x="857" y="139"/>
      <point x="857" y="348" type="curve" smooth="yes"/>
      <point x="857" y="559"/>
      <point x="707" y="710"/>
      <point x="454" y="710" type="curve" smooth="yes"/>
      <point x="201" y="710"/>
      <point x="51" y="559"/>
      <point x="51" y="348" type="curve" smooth="yes"/>
      <point x="51" y="139"/>
      <point x="198" y="-10"/>
    </contour>
    <contour>
      <point x="454" y="614" type="curve" smooth="yes"/>
      <point x="652" y="614"/>
      <point x="751" y="509"/>
      <point x="751" y="348" type="curve" smooth="yes"/>
      <point x="751" y="189"/>
      <point x="653" y="79"/>
      <point x="454" y="79" type="curve" smooth="yes"/>
      <point x="255" y="79"/>
      <point x="157" y="189"/>
      <point x="157" y="348" type="curve" smooth="yes"/>
      <point x="157" y="509"/>
      <point x="256" y="614"/>
    </contour>
  </outline>
</glyph>
<glyph name="uni2783" format="2">
  <advance width="908"/>
  <unicode hex="2783"/>
  <outline>
    <contour>
      <point x="191" y="224" type="line"/>
      <point x="460" y="224" type="line"/>
      <point x="460" y="184" type="line"/>
      <point x="653" y="184" type="line"/>
      <point x="653" y="224" type="line"/>
      <point x="707" y="224" type="line"/>
      <point x="707" y="319" type="line"/>
      <point x="653" y="319" type="line"/>
      <point x="653" y="519" type="line"/>
      <point x="534" y="519" type="line"/>
      <point x="191" y="299" type="line"/>
    </contour>
    <contour>
      <point x="375" y="319" type="line"/>
      <point x="460" y="373" type="line"/>
      <point x="460" y="319" type="line"/>
    </contour>
    <contour>
      <point x="51" y="348" type="curve" smooth="yes"/>
      <point x="51" y="139"/>
      <point x="198" y="-10"/>
      <point x="454" y="-10" type="curve" smooth="yes"/>
      <point x="710" y="-10"/>
      <point x="857" y="139"/>
      <point x="857" y="348" type="curve" smooth="yes"/>
      <point x="857" y="559"/>
      <point x="707" y="710"/>
      <point x="454" y="710" type="curve" smooth="yes"/>
      <point x="201" y="710"/>
      <point x="51" y="559"/>
    </contour>
    <contour>
      <point x="157" y="348" type="curve" smooth="yes"/>
      <point x="157" y="509"/>
      <point x="256" y="614"/>
      <point x="454" y="614" type="curve" smooth="yes"/>
      <point x="652" y="614"/>
      <point x="751" y="509"/>
      <point x="751" y="348" type="curve" smooth="yes"/>
      <point x="751" y="189"/>
      <point x="653" y="79"/>
      <point x="454" y="79" type="curve" smooth="yes"/>
      <point x="255" y="79"/>
      <point x="157" y="189"/>
    </contour>
  </outline>
</glyph>
<glyph name="uni2784" format="2">
  <advance width="908"/>
  <unicode hex="2784"/>
  <outline>
    <contour>
      <point x="218" y="197" type="line"/>
      <point x="286" y="178"/>
      <point x="362" y="173"/>
      <point x="437" y="173" type="curve" smooth="yes"/>
      <point x="586" y="173"/>
      <point x="689" y="211"/>
      <point x="689" y="289" type="curve" smooth="yes"/>
      <point x="689" y="386"/>
      <point x="598" y="401"/>
      <point x="444" y="401" type="curve" smooth="yes"/>
      <point x="378" y="401" type="line"/>
      <point x="380" y="413" type="line"/>
      <point x="658" y="413" type="line"/>
      <point x="658" y="524" type="line"/>
      <point x="275" y="524" type="line"/>
      <point x="240" y="323" type="line"/>
      <point x="246" y="312" type="line"/>
      <point x="385" y="312" type="line" smooth="yes"/>
      <point x="499" y="312"/>
      <point x="506" y="303"/>
      <point x="506" y="294" type="curve" smooth="yes"/>
      <point x="506" y="282"/>
      <point x="487" y="279"/>
      <point x="406" y="279" type="curve" smooth="yes"/>
      <point x="323" y="279"/>
      <point x="290" y="289"/>
      <point x="246" y="296" type="curve"/>
    </contour>
    <contour>
      <point x="51" y="348" type="curve" smooth="yes"/>
      <point x="51" y="139"/>
      <point x="198" y="-10"/>
      <point x="454" y="-10" type="curve" smooth="yes"/>
      <point x="710" y="-10"/>
      <point x="857" y="139"/>
      <point x="857" y="348" type="curve" smooth="yes"/>
      <point x="857" y="559"/>
      <point x="707" y="710"/>
      <point x="454" y="710" type="curve" smooth="yes"/>
      <point x="201" y="710"/>
      <point x="51" y="559"/>
    </contour>
    <contour>
      <point x="157" y="348" type="curve" smooth="yes"/>
      <point x="157" y="509"/>
      <point x="256" y="614"/>
      <point x="454" y="614" type="curve" smooth="yes"/>
      <point x="652" y="614"/>
      <point x="751" y="509"/>
      <point x="751" y="348" type="curve" smooth="yes"/>
      <point x="751" y="189"/>
      <point x="653" y="79"/>
      <point x="454" y="79" type="curve" smooth="yes"/>
      <point x="255" y="79"/>
      <point x="157" y="189"/>
    </contour>
  </outline>
</glyph>
<glyph name="uni2785" format="2">
  <advance width="908"/>
  <unicode hex="2785"/>
  <outline>
    <contour>
      <point x="383" y="386" type="curve"/>
      <point x="405" y="402"/>
      <point x="437" y="417"/>
      <point x="513" y="417" type="curve" smooth="yes"/>
      <point x="576" y="417"/>
      <point x="599" y="412"/>
      <point x="655" y="399" type="curve"/>
      <point x="680" y="501" type="line"/>
      <point x="635" y="515"/>
      <point x="576" y="525"/>
      <point x="470" y="525" type="curve" smooth="yes"/>
      <point x="295" y="525"/>
      <point x="194" y="460"/>
      <point x="194" y="336" type="curve" smooth="yes"/>
      <point x="194" y="222"/>
      <point x="289" y="171"/>
      <point x="455" y="171" type="curve" smooth="yes"/>
      <point x="647" y="171"/>
      <point x="703" y="217"/>
      <point x="703" y="296" type="curve" smooth="yes"/>
      <point x="703" y="363"/>
      <point x="643" y="399"/>
      <point x="512" y="399" type="curve" smooth="yes"/>
      <point x="463" y="399"/>
      <point x="428" y="398"/>
    </contour>
    <contour>
      <point x="440" y="298" type="curve" smooth="yes"/>
      <point x="518" y="298"/>
      <point x="518" y="293"/>
      <point x="518" y="285" type="curve" smooth="yes"/>
      <point x="518" y="278"/>
      <point x="511" y="272"/>
      <point x="455" y="272" type="curve" smooth="yes"/>
      <point x="412" y="272"/>
      <point x="390" y="279"/>
      <point x="374" y="296" type="curve"/>
      <point x="396" y="298"/>
      <point x="420" y="298"/>
    </contour>
    <contour>
      <point x="454" y="-10" type="curve" smooth="yes"/>
      <point x="710" y="-10"/>
      <point x="857" y="139"/>
      <point x="857" y="348" type="curve" smooth="yes"/>
      <point x="857" y="559"/>
      <point x="707" y="710"/>
      <point x="454" y="710" type="curve" smooth="yes"/>
      <point x="201" y="710"/>
      <point x="51" y="559"/>
      <point x="51" y="348" type="curve" smooth="yes"/>
      <point x="51" y="139"/>
      <point x="198" y="-10"/>
    </contour>
    <contour>
      <point x="454" y="614" type="curve" smooth="yes"/>
      <point x="652" y="614"/>
      <point x="751" y="509"/>
      <point x="751" y="348" type="curve" smooth="yes"/>
      <point x="751" y="189"/>
      <point x="653" y="79"/>
      <point x="454" y="79" type="curve" smooth="yes"/>
      <point x="255" y="79"/>
      <point x="157" y="189"/>
      <point x="157" y="348" type="curve" smooth="yes"/>
      <point x="157" y="509"/>
      <point x="256" y="614"/>
    </contour>
  </outline>
</glyph>
<glyph name="uni2787" format="2">
  <advance width="908"/>
  <unicode hex="2787"/>
  <outline>
    <contour>
      <point x="445" y="171" type="curve" smooth="yes"/>
      <point x="637" y="171"/>
      <point x="719" y="205"/>
      <point x="719" y="286" type="curve" smooth="yes"/>
      <point x="719" y="425"/>
      <point x="388" y="387"/>
      <point x="388" y="415" type="curve" smooth="yes"/>
      <point x="388" y="426"/>
      <point x="402" y="430"/>
      <point x="441" y="430" type="curve" smooth="yes"/>
      <point x="492" y="430"/>
      <point x="515" y="426"/>
      <point x="515" y="410" type="curve" smooth="yes"/>
      <point x="515" y="396"/>
      <point x="504" y="389"/>
      <point x="492" y="384" type="curve"/>
      <point x="634" y="361" type="line"/>
      <point x="663" y="375"/>
      <point x="686" y="397"/>
      <point x="686" y="426" type="curve" smooth="yes"/>
      <point x="686" y="488"/>
      <point x="599" y="525"/>
      <point x="451" y="525" type="curve" smooth="yes"/>
      <point x="299" y="525"/>
      <point x="219" y="484"/>
      <point x="219" y="406" type="curve" smooth="yes"/>
      <point x="219" y="254"/>
      <point x="533" y="302"/>
      <point x="533" y="270" type="curve" smooth="yes"/>
      <point x="533" y="262"/>
      <point x="517" y="257"/>
      <point x="460" y="257" type="curve" smooth="yes"/>
      <point x="403" y="257"/>
      <point x="374" y="267"/>
      <point x="374" y="285" type="curve" smooth="yes"/>
      <point x="374" y="299"/>
      <point x="383" y="309"/>
      <point x="400" y="317" type="curve"/>
      <point x="259" y="361" type="line"/>
      <point x="207" y="334"/>
      <point x="188" y="313"/>
      <point x="188" y="282" type="curve" smooth="yes"/>
      <point x="188" y="207"/>
      <point x="272" y="171"/>
    </contour>
    <contour>
      <point x="454" y="-10" type="curve" smooth="yes"/>
      <point x="710" y="-10"/>
      <point x="857" y="139"/>
      <point x="857" y="348" type="curve" smooth="yes"/>
      <point x="857" y="559"/>
      <point x="707" y="710"/>
      <point x="454" y="710" type="curve" smooth="yes"/>
      <point x="201" y="710"/>
      <point x="51" y="559"/>
      <point x="51" y="348" type="curve" smooth="yes"/>
      <point x="51" y="139"/>
      <point x="198" y="-10"/>
    </contour>
    <contour>
      <point x="454" y="614" type="curve" smooth="yes"/>
      <point x="652" y="614"/>
      <point x="751" y="509"/>
      <point x="751" y="348" type="curve" smooth="yes"/>
      <point x="751" y="189"/>
      <point x="653" y="79"/>
      <point x="454" y="79" type="curve" smooth="yes"/>
      <point x="255" y="79"/>
      <point x="157" y="189"/>
      <point x="157" y="348" type="curve" smooth="yes"/>
      <point x="157" y="509"/>
      <point x="256" y="614"/>
    </contour>
  </outline>
</glyph>
<glyph name="uni2788" format="2">
  <advance width="908"/>
  <unicode hex="2788"/>
  <outline>
    <contour>
      <point x="531" y="311" type="curve"/>
      <point x="513" y="292"/>
      <point x="488" y="281"/>
      <point x="407" y="281" type="curve" smooth="yes"/>
      <point x="346" y="281"/>
      <point x="309" y="291"/>
      <point x="252" y="301" type="curve"/>
      <point x="225" y="192" type="line"/>
      <point x="270" y="179"/>
      <point x="333" y="171"/>
      <point x="441" y="171" type="curve" smooth="yes"/>
      <point x="615" y="171"/>
      <point x="720" y="236"/>
      <point x="720" y="360" type="curve" smooth="yes"/>
      <point x="720" y="475"/>
      <point x="621" y="525"/>
      <point x="455" y="525" type="curve" smooth="yes"/>
      <point x="264" y="525"/>
      <point x="203" y="476"/>
      <point x="203" y="409" type="curve" smooth="yes"/>
      <point x="203" y="334"/>
      <point x="264" y="296"/>
      <point x="394" y="296" type="curve" smooth="yes"/>
      <point x="444" y="296"/>
      <point x="489" y="297"/>
    </contour>
    <contour>
      <point x="474" y="398" type="curve" smooth="yes"/>
      <point x="405" y="398"/>
      <point x="393" y="403"/>
      <point x="393" y="410" type="curve" smooth="yes"/>
      <point x="393" y="417"/>
      <point x="402" y="422"/>
      <point x="453" y="422" type="curve" smooth="yes"/>
      <point x="497" y="422"/>
      <point x="525" y="415"/>
      <point x="539" y="400" type="curve"/>
      <point x="516" y="398"/>
      <point x="495" y="398"/>
    </contour>
    <contour>
      <point x="454" y="-10" type="curve" smooth="yes"/>
      <point x="710" y="-10"/>
      <point x="857" y="139"/>
      <point x="857" y="348" type="curve" smooth="yes"/>
      <point x="857" y="559"/>
      <point x="707" y="710"/>
      <point x="454" y="710" type="curve" smooth="yes"/>
      <point x="201" y="710"/>
      <point x="51" y="559"/>
      <point x="51" y="348" type="curve" smooth="yes"/>
      <point x="51" y="139"/>
      <point x="198" y="-10"/>
    </contour>
    <contour>
      <point x="454" y="614" type="curve" smooth="yes"/>
      <point x="652" y="614"/>
      <point x="751" y="509"/>
      <point x="751" y="348" type="curve" smooth="yes"/>
      <point x="751" y="189"/>
      <point x="653" y="79"/>
      <point x="454" y="79" type="curve" smooth="yes"/>
      <point x="255" y="79"/>
      <point x="157" y="189"/>
      <point x="157" y="348" type="curve" smooth="yes"/>
      <point x="157" y="509"/>
      <point x="256" y="614"/>
    </contour>
  </outline>
</glyph>
<glyph name="uni278D" format="2">
  <advance width="908"/>
  <unicode hex="278D"/>
  <outline>
    <contour>
      <point x="454" y="-10" type="curve" smooth="yes"/>
      <point x="710" y="-10"/>
      <point x="857" y="139"/>
      <point x="857" y="348" type="curve" smooth="yes"/>
      <point x="857" y="559"/>
      <point x="707" y="710"/>
      <point x="454" y="710" type="curve" smooth="yes"/>
      <point x="201" y="710"/>
      <point x="51" y="559"/>
      <point x="51" y="348" type="curve" smooth="yes"/>
      <point x="51" y="139"/>
      <point x="198" y="-10"/>
    </contour>
    <contour>
      <point x="375" y="319" type="line"/>
      <point x="460" y="319" type="line"/>
      <point x="460" y="373" type="line"/>
    </contour>
    <contour>
      <point x="460" y="184" type="line"/>
      <point x="460" y="224" type="line"/>
      <point x="191" y="224" type="line"/>
      <point x="191" y="299" type="line"/>
      <point x="534" y="519" type="line"/>
      <point x="653" y="519" type="line"/>
      <point x="653" y="319" type="line"/>
      <point x="707" y="319" type="line"/>
      <point x="707" y="224" type="line"/>
      <point x="653" y="224" type="line"/>
      <point x="653" y="184" type="line"/>
    </contour>
  </outline>
</glyph>
<glyph name="uni278F" format="2">
  <advance width="908"/>
  <unicode hex="278F"/>
  <outline>
    <contour>
      <point x="454" y="-10" type="curve" smooth="yes"/>
      <point x="710" y="-10"/>
      <point x="857" y="139"/>
      <point x="857" y="348" type="curve" smooth="yes"/>
      <point x="857" y="559"/>
      <point x="707" y="710"/>
      <point x="454" y="710" type="curve" smooth="yes"/>
      <point x="201" y="710"/>
      <point x="51" y="559"/>
      <point x="51" y="348" type="curve" smooth="yes"/>
      <point x="51" y="139"/>
      <point x="198" y="-10"/>
    </contour>
    <contour>
      <point x="455" y="272" type="curve" smooth="yes"/>
      <point x="511" y="272"/>
      <point x="518" y="278"/>
      <point x="518" y="285" type="curve" smooth="yes"/>
      <point x="518" y="293"/>
      <point x="518" y="298"/>
      <point x="440" y="298" type="curve" smooth="yes"/>
      <point x="420" y="298"/>
      <point x="396" y="298"/>
      <point x="374" y="296" type="curve"/>
      <point x="390" y="279"/>
      <point x="412" y="272"/>
    </contour>
    <contour>
      <point x="455" y="171" type="curve" smooth="yes"/>
      <point x="289" y="171"/>
      <point x="194" y="222"/>
      <point x="194" y="336" type="curve" smooth="yes"/>
      <point x="194" y="460"/>
      <point x="295" y="525"/>
      <point x="470" y="525" type="curve" smooth="yes"/>
      <point x="576" y="525"/>
      <point x="635" y="515"/>
      <point x="680" y="501" type="curve"/>
      <point x="655" y="399" type="line"/>
      <point x="599" y="412"/>
      <point x="576" y="417"/>
      <point x="513" y="417" type="curve" smooth="yes"/>
      <point x="437" y="417"/>
      <point x="405" y="402"/>
      <point x="383" y="386" type="curve"/>
      <point x="428" y="398"/>
      <point x="463" y="399"/>
      <point x="512" y="399" type="curve" smooth="yes"/>
      <point x="643" y="399"/>
      <point x="703" y="363"/>
      <point x="703" y="296" type="curve" smooth="yes"/>
      <point x="703" y="217"/>
      <point x="647" y="171"/>
    </contour>
  </outline>
</glyph>
<glyph name="uni2790" format="2">
  <advance width="908"/>
  <unicode hex="2790"/>
  <outline>
    <contour>
      <point x="454" y="-10" type="curve" smooth="yes"/>
      <point x="710" y="-10"/>
      <point x="857" y="139"/>
      <point x="857" y="348" type="curve" smooth="yes"/>
      <point x="857" y="559"/>
      <point x="707" y="710"/>
      <point x="454" y="710" type="curve" smooth="yes"/>
      <point x="201" y="710"/>
      <point x="51" y="559"/>
      <point x="51" y="348" type="curve" smooth="yes"/>
      <point x="51" y="139"/>
      <point x="198" y="-10"/>
    </contour>
    <contour>
      <point x="300" y="184" type="line"/>
      <point x="300" y="232"/>
      <point x="327" y="284"/>
      <point x="383" y="333" type="curve" smooth="yes"/>
      <point x="464" y="405" type="line"/>
      <point x="229" y="405" type="line"/>
      <point x="229" y="516" type="line"/>
      <point x="675" y="516" type="line"/>
      <point x="675" y="425" type="line"/>
      <point x="571" y="323" type="line" smooth="yes"/>
      <point x="507" y="261"/>
      <point x="491" y="219"/>
      <point x="487" y="184" type="curve"/>
    </contour>
  </outline>
</glyph>
<glyph name="uni27E8" format="2">
	<advance width="422"/>
	<unicode hex="27E8"/>
	<outline>
		<contour>
			<point x="40" y="248" type="line"/>
			<point x="382" y="-15" type="line"/>
			<point x="382" y="233" type="line"/>
			<point x="205" y="361" type="line"/>
			<point x="382" y="482" type="line"/>
			<point x="382" y="715" type="line"/>
			<point x="40" y="463" type="line"/>
		</contour>
	</outline>
</glyph>
<glyph name="acutecomb.case" format="2">
	<advance width="0"/>
	<anchor x="-506" y="940" name="top"/>
	<anchor x="-586" y="700" name="_top"/>
	<outline>
		<contour>
			<point x="-702" y="746" type="line"/>
			<point x="-481" y="746" type="line"/>
			<point x="-311" y="940" type="line"/>
			<point x="-597" y="940" type="line"/>
		</contour>
	</outline>
</glyph>
<glyph name="ae.sc" format="2">
  <advance width="1589"/>
  <anchor x="865" y="625" name="top"/>
  <anchor x="795" y="0" name="bottom"/>
  <outline>
    <contour>
      <point x="12" y="0" type="line"/>
      <point x="360" y="0" type="line"/>
      <point x="474" y="127" type="line"/>
      <point x="719" y="127" type="line"/>
      <point x="719" y="0" type="line"/>
      <point x="1558" y="0" type="line"/>
      <point x="1558" y="187" type="line"/>
      <point x="1001" y="187" type="line"/>
      <point x="1001" y="230" type="line"/>
      <point x="1500" y="230" type="line"/>
      <point x="1500" y="397" type="line"/>
      <point x="1001" y="397" type="line"/>
      <point x="1001" y="438" type="line"/>
      <point x="1530" y="438" type="line"/>
      <point x="1530" y="625" type="line"/>
      <point x="594" y="625" type="line"/>
    </contour>
    <contour>
      <point x="610" y="305" type="line"/>
      <point x="719" y="422" type="line"/>
      <point x="719" y="305" type="line"/>
    </contour>
  </outline>
</glyph>
<glyph name="ampersand.sc" format="2">
	<advance width="981"/>
	<outline>
		<contour>
			<point x="657" y="-1" type="line"/>
			<point x="991" y="-1" type="line"/>
			<point x="507" y="386" type="line" smooth="yes"/>
			<point x="455" y="427"/>
			<point x="447" y="437"/>
			<point x="447" y="454" type="curve" smooth="yes"/>
			<point x="447" y="473"/>
			<point x="463" y="481"/>
			<point x="498" y="481" type="curve" smooth="yes"/>
			<point x="527" y="481"/>
			<point x="550" y="469"/>
			<point x="550" y="447" type="curve" smooth="yes"/>
			<point x="550" y="430"/>
			<point x="540" y="420"/>
			<point x="530" y="411" type="curve"/>
			<point x="635" y="329" type="line"/>
			<point x="781" y="355"/>
			<point x="825" y="410"/>
			<point x="825" y="472" type="curve" smooth="yes"/>
			<point x="825" y="576"/>
			<point x="709" y="633"/>
			<point x="494" y="633" type="curve" smooth="yes"/>
			<point x="253" y="633"/>
			<point x="150" y="563"/>
			<point x="150" y="457" type="curve" smooth="yes"/>
			<point x="150" y="403"/>
			<point x="177" y="357"/>
			<point x="240" y="310" type="curve" smooth="yes"/>
		</contour>
		<contour>
			<point x="357" y="-10" type="curve" smooth="yes"/>
			<point x="502" y="-10"/>
			<point x="590" y="9"/>
			<point x="665" y="38" type="curve"/>
			<point x="508" y="160" type="line"/>
			<point x="494" y="155"/>
			<point x="476" y="149"/>
			<point x="433" y="149" type="curve" smooth="yes"/>
			<point x="348" y="149"/>
			<point x="290" y="186"/>
			<point x="290" y="225" type="curve" smooth="yes"/>
			<point x="290" y="248"/>
			<point x="306" y="258"/>
			<point x="337" y="265" type="curve"/>
			<point x="214" y="362" type="line"/>
			<point x="83" y="338"/>
			<point x="26" y="282"/>
			<point x="26" y="192" type="curve" smooth="yes"/>
			<point x="26" y="66"/>
			<point x="119" y="-10"/>
		</contour>
		<contour>
			<point x="815" y="102" type="line"/>
			<point x="884" y="148"/>
			<point x="932" y="212"/>
			<point x="932" y="285" type="curve" smooth="yes"/>
			<point x="932" y="304"/>
			<point x="932" y="308"/>
			<point x="931" y="319" type="curve"/>
			<point x="712" y="319" type="line"/>
			<point x="711" y="306"/>
			<point x="710" y="294"/>
			<point x="706" y="283" type="curve" smooth="yes"/>
			<point x="698" y="262"/>
			<point x="687" y="245"/>
			<point x="666" y="227" type="curve"/>
		</contour>
	</outline>
</glyph>
<glyph name="b.sc" format="2">
  <advance width="1043"/>
  <outline>
    <contour>
      <point x="80" y="4" type="line"/>
      <point x="346" y="-7"/>
      <point x="344" y="-9"/>
      <point x="532" y="-9" type="curve" smooth="yes"/>
      <point x="921" y="-9"/>
      <point x="1026" y="34"/>
      <point x="1026" y="188" type="curve" smooth="yes"/>
      <point x="1026" y="281"/>
      <point x="943" y="338"/>
      <point x="811" y="351" type="curve"/>
      <point x="811" y="353" type="line"/>
      <point x="925" y="382"/>
      <point x="965" y="417"/>
      <point x="965" y="492" type="curve" smooth="yes"/>
      <point x="965" y="599"/>
      <point x="855" y="634"/>
      <point x="531" y="634" type="curve" smooth="yes"/>
      <point x="427" y="634"/>
      <point x="268" y="630"/>
      <point x="80" y="621" type="curve"/>
    </contour>
    <contour>
      <point x="376" y="400" type="line"/>
      <point x="376" y="455" type="line"/>
      <point x="457" y="459"/>
      <point x="459" y="459"/>
      <point x="510" y="459" type="curve" smooth="yes"/>
      <point x="633" y="459"/>
      <point x="664" y="453"/>
      <point x="664" y="430" type="curve" smooth="yes"/>
      <point x="664" y="409"/>
      <point x="635" y="400"/>
      <point x="584" y="400" type="curve" smooth="yes"/>
    </contour>
    <contour>
      <point x="376" y="167" type="curve"/>
      <point x="376" y="226" type="line"/>
      <point x="579" y="226" type="line" smooth="yes"/>
      <point x="664" y="226"/>
      <point x="702" y="225"/>
      <point x="702" y="196" type="curve" smooth="yes"/>
      <point x="702" y="168"/>
      <point x="668" y="163"/>
      <point x="497" y="163" type="curve" smooth="yes"/>
      <point x="471" y="163"/>
      <point x="410" y="165"/>
    </contour>
  </outline>
</glyph>
<glyph name="braceleft.sc" format="2">
	<advance width="500"/>
	<outline>
		<contour>
			<point x="70" y="50" type="curve" smooth="yes"/>
			<point x="70" y="-65"/>
			<point x="168" y="-106"/>
			<point x="282" y="-106" type="curve" smooth="yes"/>
			<point x="462" y="-106" type="line"/>
			<point x="462" y="33" type="line"/>
			<point x="397" y="33" type="line" smooth="yes"/>
			<point x="360" y="33"/>
			<point x="343" y="50"/>
			<point x="343" y="79" type="curve" smooth="yes"/>
			<point x="343" y="117"/>
			<point x="371" y="161"/>
			<point x="371" y="202" type="curve" smooth="yes"/>
			<point x="371" y="239"/>
			<point x="369" y="280"/>
			<point x="289" y="312" type="curve"/>
			<point x="369" y="345"/>
			<point x="371" y="386"/>
			<point x="371" y="423" type="curve" smooth="yes"/>
			<point x="371" y="464"/>
			<point x="343" y="508"/>
			<point x="343" y="545" type="curve" smooth="yes"/>
			<point x="343" y="575"/>
			<point x="360" y="592"/>
			<point x="397" y="592" type="curve" smooth="yes"/>
			<point x="462" y="592" type="line"/>
			<point x="462" y="731" type="line"/>
			<point x="282" y="731" type="line" smooth="yes"/>
			<point x="168" y="731"/>
			<point x="70" y="690"/>
			<point x="70" y="575" type="curve" smooth="yes"/>
			<point x="70" y="498"/>
			<point x="101" y="459"/>
			<point x="101" y="422" type="curve" smooth="yes"/>
			<point x="101" y="394"/>
			<point x="91" y="381"/>
			<point x="54" y="381" type="curve" smooth="yes"/>
			<point x="38" y="381" type="line"/>
			<point x="38" y="244" type="line"/>
			<point x="54" y="244" type="line" smooth="yes"/>
			<point x="91" y="244"/>
			<point x="101" y="231"/>
			<point x="101" y="203" type="curve" smooth="yes"/>
			<point x="101" y="166"/>
			<point x="70" y="127"/>
		</contour>
	</outline>
</glyph>
<glyph name="braceright.sc" format="2">
  <advance width="500"/>
  <outline>
    <contour>
      <point x="38" y="33" type="line"/>
      <point x="38" y="-106" type="line"/>
      <point x="218" y="-106" type="line" smooth="yes"/>
      <point x="332" y="-106"/>
      <point x="430" y="-65"/>
      <point x="430" y="50" type="curve" smooth="yes"/>
      <point x="430" y="127"/>
      <point x="399" y="166"/>
      <point x="399" y="203" type="curve" smooth="yes"/>
      <point x="399" y="231"/>
      <point x="409" y="244"/>
      <point x="446" y="244" type="curve" smooth="yes"/>
      <point x="462" y="244" type="line"/>
      <point x="462" y="381" type="line"/>
      <point x="446" y="381" type="line" smooth="yes"/>
      <point x="409" y="381"/>
      <point x="399" y="394"/>
      <point x="399" y="422" type="curve" smooth="yes"/>
      <point x="399" y="459"/>
      <point x="430" y="498"/>
      <point x="430" y="575" type="curve" smooth="yes"/>
      <point x="430" y="690"/>
      <point x="332" y="731"/>
      <point x="218" y="731" type="curve" smooth="yes"/>
      <point x="38" y="731" type="line"/>
      <point x="38" y="592" type="line"/>
      <point x="103" y="592" type="line" smooth="yes"/>
      <point x="140" y="592"/>
      <point x="157" y="575"/>
      <point x="157" y="545" type="curve" smooth="yes"/>
      <point x="157" y="508"/>
      <point x="129" y="464"/>
      <point x="129" y="423" type="curve" smooth="yes"/>
      <point x="129" y="386"/>
      <point x="131" y="345"/>
      <point x="211" y="312" type="curve"/>
      <point x="131" y="280"/>
      <point x="129" y="239"/>
      <point x="129" y="202" type="curve" smooth="yes"/>
      <point x="129" y="161"/>
      <point x="157" y="117"/>
      <point x="157" y="79" type="curve" smooth="yes"/>
      <point x="157" y="50"/>
      <point x="140" y="33"/>
      <point x="103" y="33" type="curve" smooth="yes"/>
    </contour>
  </outline>
</glyph>
<glyph name="bracketleft.sc" format="2">
	<advance width="500"/>
	<outline>
		<contour>
			<point x="38" y="-126" type="line"/>
			<point x="462" y="-126" type="line"/>
			<point x="462" y="32" type="line"/>
			<point x="268" y="32" type="line"/>
			<point x="268" y="593" type="line"/>
			<point x="462" y="593" type="line"/>
			<point x="462" y="751" type="line"/>
			<point x="38" y="751" type="line"/>
		</contour>
	</outline>
</glyph>
<glyph name="c.sc" format="2">
  <advance width="1040"/>
  <anchor x="580" y="625" name="top"/>
  <anchor x="542" y="0" name="bottom"/>
  <outline>
    <contour>
      <point x="57" y="292" type="curve" smooth="yes"/>
      <point x="57" y="72"/>
      <point x="240" y="-9"/>
      <point x="533" y="-9" type="curve" smooth="yes"/>
      <point x="787" y="-9"/>
      <point x="890" y="13"/>
      <point x="999" y="37" type="curve"/>
      <point x="947" y="225" type="line"/>
      <point x="841" y="212"/>
      <point x="718" y="196"/>
      <point x="614" y="196" type="curve" smooth="yes"/>
      <point x="434" y="196"/>
      <point x="367" y="230"/>
      <point x="367" y="302" type="curve" smooth="yes"/>
      <point x="367" y="386"/>
      <point x="429" y="424"/>
      <point x="621" y="424" type="curve" smooth="yes"/>
      <point x="703" y="424"/>
      <point x="802" y="415"/>
      <point x="917" y="400" type="curve"/>
      <point x="975" y="597" type="line"/>
      <point x="855" y="624"/>
      <point x="781" y="634"/>
      <point x="607" y="634" type="curve" smooth="yes"/>
      <point x="249" y="634"/>
      <point x="57" y="531"/>
    </contour>
  </outline>
</glyph>
<glyph name="d.sc" format="2">
  <advance width="1115"/>
  <anchor x="558" y="275" name="center"/>
  <anchor x="558" y="0" name="bottom"/>
  <anchor x="573" y="625" name="top"/>
  <outline>
    <contour>
      <point x="559" y="-9" type="curve" smooth="yes"/>
      <point x="885" y="-9"/>
      <point x="1065" y="103"/>
      <point x="1065" y="307" type="curve" smooth="yes"/>
      <point x="1065" y="533"/>
      <point x="899" y="634"/>
      <point x="529" y="634" type="curve" smooth="yes"/>
      <point x="355" y="634"/>
      <point x="242" y="631"/>
      <point x="80" y="625" type="curve"/>
      <point x="80" y="0" type="line"/>
      <point x="226" y="-4"/>
      <point x="369" y="-9"/>
    </contour>
    <contour>
      <point x="577" y="177" type="curve" smooth="yes"/>
      <point x="491" y="177"/>
      <point x="452" y="180"/>
      <point x="381" y="181" type="curve"/>
      <point x="381" y="446" type="line"/>
      <point x="423" y="448"/>
      <point x="478" y="449"/>
      <point x="567" y="449" type="curve" smooth="yes"/>
      <point x="685" y="449"/>
      <point x="759" y="395"/>
      <point x="759" y="310" type="curve" smooth="yes"/>
      <point x="759" y="233"/>
      <point x="684" y="177"/>
    </contour>
  </outline>
</glyph>
<glyph name="dollarsuperior" format="2">
	<advance width="600"/>
	<outline>
		<contour>
			<point x="312" y="366" type="curve" smooth="yes"/>
			<point x="463" y="366"/>
			<point x="567" y="406"/>
			<point x="567" y="504" type="curve" smooth="yes"/>
			<point x="567" y="582"/>
			<point x="510" y="621"/>
			<point x="382" y="632" type="curve" smooth="yes"/>
			<point x="264" y="642"/>
			<point x="235" y="633"/>
			<point x="235" y="646" type="curve" smooth="yes"/>
			<point x="235" y="657"/>
			<point x="248" y="661"/>
			<point x="297" y="661" type="curve" smooth="yes"/>
			<point x="374" y="661"/>
			<point x="458" y="651"/>
			<point x="505" y="636" type="curve"/>
			<point x="531" y="752" type="line"/>
			<point x="431" y="771"/>
			<point x="398" y="775"/>
			<point x="304" y="775" type="curve" smooth="yes"/>
			<point x="124" y="775"/>
			<point x="49" y="725"/>
			<point x="49" y="630" type="curve" smooth="yes"/>
			<point x="49" y="563"/>
			<point x="96" y="522"/>
			<point x="185" y="510" type="curve" smooth="yes"/>
			<point x="324" y="491"/>
			<point x="377" y="504"/>
			<point x="377" y="488" type="curve" smooth="yes"/>
			<point x="377" y="479"/>
			<point x="369" y="474"/>
			<point x="313" y="474" type="curve" smooth="yes"/>
			<point x="230" y="474"/>
			<point x="136" y="490"/>
			<point x="60" y="513" type="curve"/>
			<point x="32" y="397" type="line"/>
			<point x="127" y="373"/>
			<point x="181" y="366"/>
		</contour>
		<contour>
			<point x="254" y="310" type="line"/>
			<point x="369" y="310" type="line"/>
			<point x="369" y="384" type="line"/>
			<point x="254" y="381" type="line"/>
		</contour>
		<contour>
			<point x="254" y="757" type="line"/>
			<point x="369" y="758" type="line"/>
			<point x="369" y="829" type="line"/>
			<point x="254" y="829" type="line"/>
		</contour>
	</outline>
</glyph>
<glyph name="f_f_b.liga" format="2">
  <advance width="2046"/>
  <outline>
    <contour>
      <point x="1585" y="-10" type="curve" smooth="yes"/>
      <point x="1887" y="-10"/>
      <point x="2017" y="77"/>
      <point x="2017" y="279" type="curve" smooth="yes"/>
      <point x="2017" y="456"/>
      <point x="1916" y="560"/>
      <point x="1743" y="560" type="curve" smooth="yes"/>
      <point x="1647" y="560"/>
      <point x="1565" y="539"/>
      <point x="1471" y="489" type="curve"/>
      <point x="1471" y="710" type="line"/>
      <point x="1326" y="736"/>
      <point x="1193" y="750"/>
      <point x="1085" y="750" type="curve" smooth="yes"/>
      <point x="944" y="750"/>
      <point x="835" y="729"/>
      <point x="761" y="688" type="curve"/>
      <point x="684" y="723"/>
      <point x="567" y="750"/>
      <point x="453" y="750" type="curve" smooth="yes"/>
      <point x="278" y="750"/>
      <point x="118" y="688"/>
      <point x="118" y="500" type="curve" smooth="yes"/>
      <point x="118" y="484" type="line"/>
      <point x="14" y="464" type="line"/>
      <point x="14" y="305" type="line"/>
      <point x="118" y="305" type="line"/>
      <point x="118" y="0" type="line"/>
      <point x="414" y="0" type="line"/>
      <point x="414" y="305" type="line"/>
      <point x="645" y="305" type="line"/>
      <point x="645" y="0" type="line"/>
      <point x="941" y="0" type="line"/>
      <point x="941" y="305" type="line"/>
      <point x="1092" y="305" type="line"/>
      <point x="1092" y="484" type="line"/>
      <point x="941" y="484" type="line"/>
      <point x="941" y="503" type="line" smooth="yes"/>
      <point x="941" y="552"/>
      <point x="998" y="564"/>
      <point x="1100" y="564" type="curve" smooth="yes"/>
      <point x="1122" y="564"/>
      <point x="1146" y="563"/>
      <point x="1171" y="561" type="curve"/>
      <point x="1171" y="23" type="line"/>
      <point x="1337" y="1"/>
      <point x="1473" y="-10"/>
    </contour>
    <contour>
      <point x="414" y="464" type="line"/>
      <point x="414" y="498" type="line" smooth="yes"/>
      <point x="414" y="536"/>
      <point x="446" y="558"/>
      <point x="507" y="558" type="curve" smooth="yes"/>
      <point x="549" y="558"/>
      <point x="606" y="554"/>
      <point x="649" y="543" type="curve"/>
      <point x="646" y="529"/>
      <point x="645" y="515"/>
      <point x="645" y="500" type="curve" smooth="yes"/>
      <point x="645" y="464" type="line"/>
    </contour>
    <contour>
      <point x="1588" y="171" type="curve" smooth="yes"/>
      <point x="1549" y="171"/>
      <point x="1507" y="176"/>
      <point x="1471" y="186" type="curve"/>
      <point x="1471" y="321" type="line"/>
      <point x="1526" y="339"/>
      <point x="1575" y="348"/>
      <point x="1614" y="348" type="curve" smooth="yes"/>
      <point x="1679" y="348"/>
      <point x="1713" y="320"/>
      <point x="1713" y="265" type="curve" smooth="yes"/>
      <point x="1713" y="204"/>
      <point x="1669" y="171"/>
    </contour>
  </outline>
</glyph>
<glyph name="f_f_h.liga" format="2">
  <advance width="2009"/>
  <outline>
    <contour>
      <point x="118" y="0" type="line"/>
      <point x="414" y="0" type="line"/>
      <point x="414" y="305" type="line"/>
      <point x="645" y="305" type="line"/>
      <point x="645" y="0" type="line"/>
      <point x="941" y="0" type="line"/>
      <point x="941" y="305" type="line"/>
      <point x="1092" y="305" type="line"/>
      <point x="1092" y="484" type="line"/>
      <point x="941" y="484" type="line"/>
      <point x="941" y="503" type="line" smooth="yes"/>
      <point x="941" y="552"/>
      <point x="998" y="564"/>
      <point x="1100" y="564" type="curve" smooth="yes"/>
      <point x="1122" y="564"/>
      <point x="1146" y="563"/>
      <point x="1171" y="561" type="curve"/>
      <point x="1171" y="0" type="line"/>
      <point x="1471" y="0" type="line"/>
      <point x="1471" y="327" type="line"/>
      <point x="1512" y="340"/>
      <point x="1547" y="349"/>
      <point x="1576" y="349" type="curve" smooth="yes"/>
      <point x="1624" y="349"/>
      <point x="1655" y="323"/>
      <point x="1655" y="244" type="curve" smooth="yes"/>
      <point x="1655" y="0" type="line"/>
      <point x="1955" y="0" type="line"/>
      <point x="1955" y="352" type="line" smooth="yes"/>
      <point x="1955" y="461"/>
      <point x="1877" y="560"/>
      <point x="1699" y="560" type="curve" smooth="yes"/>
      <point x="1617" y="560"/>
      <point x="1557" y="541"/>
      <point x="1471" y="501" type="curve"/>
      <point x="1471" y="710" type="line"/>
      <point x="1326" y="736"/>
      <point x="1193" y="750"/>
      <point x="1085" y="750" type="curve" smooth="yes"/>
      <point x="944" y="750"/>
      <point x="835" y="729"/>
      <point x="761" y="688" type="curve"/>
      <point x="684" y="723"/>
      <point x="567" y="750"/>
      <point x="453" y="750" type="curve" smooth="yes"/>
      <point x="278" y="750"/>
      <point x="118" y="688"/>
      <point x="118" y="500" type="curve" smooth="yes"/>
      <point x="118" y="484" type="line"/>
      <point x="14" y="464" type="line"/>
      <point x="14" y="305" type="line"/>
      <point x="118" y="305" type="line"/>
    </contour>
    <contour>
      <point x="414" y="464" type="line"/>
      <point x="414" y="498" type="line" smooth="yes"/>
      <point x="414" y="536"/>
      <point x="446" y="558"/>
      <point x="507" y="558" type="curve" smooth="yes"/>
      <point x="549" y="558"/>
      <point x="606" y="554"/>
      <point x="649" y="543" type="curve"/>
      <point x="646" y="529"/>
      <point x="645" y="515"/>
      <point x="645" y="500" type="curve" smooth="yes"/>
      <point x="645" y="464" type="line"/>
    </contour>
  </outline>
</glyph>
<glyph name="f_f_i.liga" format="2">
  <advance width="1523"/>
  <outline>
    <contour>
      <point x="118" y="0" type="line"/>
      <point x="414" y="0" type="line"/>
      <point x="414" y="305" type="line"/>
      <point x="645" y="305" type="line"/>
      <point x="645" y="0" type="line"/>
      <point x="941" y="0" type="line"/>
      <point x="941" y="305" type="line"/>
      <point x="1159" y="305" type="line"/>
      <point x="1159" y="0" type="line"/>
      <point x="1459" y="0" type="line"/>
      <point x="1459" y="484" type="line"/>
      <point x="941" y="484" type="line"/>
      <point x="941" y="493" type="line" smooth="yes"/>
      <point x="941" y="535"/>
      <point x="1005" y="557"/>
      <point x="1127" y="557" type="curve" smooth="yes"/>
      <point x="1211" y="557"/>
      <point x="1357" y="542"/>
      <point x="1415" y="528" type="curve"/>
      <point x="1471" y="710" type="line"/>
      <point x="1347" y="735"/>
      <point x="1200" y="750"/>
      <point x="1085" y="750" type="curve" smooth="yes"/>
      <point x="944" y="750"/>
      <point x="835" y="729"/>
      <point x="761" y="688" type="curve"/>
      <point x="684" y="723"/>
      <point x="567" y="750"/>
      <point x="453" y="750" type="curve" smooth="yes"/>
      <point x="278" y="750"/>
      <point x="118" y="688"/>
      <point x="118" y="500" type="curve" smooth="yes"/>
      <point x="118" y="484" type="line"/>
      <point x="14" y="464" type="line"/>
      <point x="14" y="305" type="line"/>
      <point x="118" y="305" type="line"/>
    </contour>
    <contour>
      <point x="414" y="464" type="line"/>
      <point x="414" y="498" type="line" smooth="yes"/>
      <point x="414" y="536"/>
      <point x="446" y="558"/>
      <point x="507" y="558" type="curve" smooth="yes"/>
      <point x="549" y="558"/>
      <point x="606" y="554"/>
      <point x="649" y="543" type="curve"/>
      <point x="646" y="529"/>
      <point x="645" y="515"/>
      <point x="645" y="500" type="curve" smooth="yes"/>
      <point x="645" y="464" type="line"/>
    </contour>
  </outline>
</glyph>
<glyph name="f_f_k.liga" format="2">
  <advance width="1995"/>
  <outline>
    <contour>
      <point x="1902" y="-10" type="curve" smooth="yes"/>
      <point x="1932" y="-10"/>
      <point x="1944" y="-9"/>
      <point x="1955" y="-8" type="curve"/>
      <point x="1955" y="239" type="line"/>
      <point x="1944" y="238"/>
      <point x="1934" y="238"/>
      <point x="1922" y="238" type="curve" smooth="yes"/>
      <point x="1869" y="238"/>
      <point x="1812" y="252"/>
      <point x="1683" y="314" type="curve" smooth="yes"/>
      <point x="1461" y="421" type="line"/>
      <point x="1461" y="710" type="line"/>
      <point x="1326" y="736"/>
      <point x="1193" y="750"/>
      <point x="1085" y="750" type="curve" smooth="yes"/>
      <point x="944" y="750"/>
      <point x="835" y="729"/>
      <point x="761" y="688" type="curve"/>
      <point x="684" y="723"/>
      <point x="567" y="750"/>
      <point x="453" y="750" type="curve" smooth="yes"/>
      <point x="278" y="750"/>
      <point x="118" y="688"/>
      <point x="118" y="500" type="curve" smooth="yes"/>
      <point x="118" y="484" type="line"/>
      <point x="14" y="464" type="line"/>
      <point x="14" y="305" type="line"/>
      <point x="118" y="305" type="line"/>
      <point x="118" y="0" type="line"/>
      <point x="414" y="0" type="line"/>
      <point x="414" y="305" type="line"/>
      <point x="645" y="305" type="line"/>
      <point x="645" y="0" type="line"/>
      <point x="941" y="0" type="line"/>
      <point x="941" y="305" type="line"/>
      <point x="1092" y="305" type="line"/>
      <point x="1092" y="484" type="line"/>
      <point x="941" y="484" type="line"/>
      <point x="941" y="503" type="line" smooth="yes"/>
      <point x="941" y="552"/>
      <point x="998" y="564"/>
      <point x="1100" y="564" type="curve" smooth="yes"/>
      <point x="1122" y="564"/>
      <point x="1146" y="563"/>
      <point x="1171" y="561" type="curve"/>
      <point x="1171" y="0" type="line"/>
      <point x="1461" y="0" type="line"/>
      <point x="1461" y="165" type="line"/>
      <point x="1645" y="69" type="line" smooth="yes"/>
      <point x="1774" y="2"/>
      <point x="1840" y="-10"/>
    </contour>
    <contour>
      <point x="414" y="464" type="line"/>
      <point x="414" y="498" type="line" smooth="yes"/>
      <point x="414" y="536"/>
      <point x="446" y="558"/>
      <point x="507" y="558" type="curve" smooth="yes"/>
      <point x="549" y="558"/>
      <point x="606" y="554"/>
      <point x="649" y="543" type="curve"/>
      <point x="646" y="529"/>
      <point x="645" y="515"/>
      <point x="645" y="500" type="curve" smooth="yes"/>
      <point x="645" y="464" type="line"/>
    </contour>
    <contour>
      <point x="1646" y="263" type="line"/>
      <point x="1739" y="309"/>
      <point x="1903" y="427"/>
      <point x="1952" y="550" type="curve"/>
      <point x="1630" y="560" type="line"/>
      <point x="1600" y="497"/>
      <point x="1536" y="423"/>
      <point x="1358" y="293" type="curve"/>
    </contour>
  </outline>
</glyph>
<glyph name="f_h.liga" format="2">
  <advance width="1482"/>
  <outline>
    <contour>
      <point x="118" y="0" type="line"/>
      <point x="414" y="0" type="line"/>
      <point x="414" y="305" type="line"/>
      <point x="565" y="305" type="line"/>
      <point x="565" y="484" type="line"/>
      <point x="414" y="484" type="line"/>
      <point x="414" y="503" type="line" smooth="yes"/>
      <point x="414" y="552"/>
      <point x="471" y="564"/>
      <point x="573" y="564" type="curve" smooth="yes"/>
      <point x="595" y="564"/>
      <point x="619" y="563"/>
      <point x="644" y="561" type="curve"/>
      <point x="644" y="0" type="line"/>
      <point x="944" y="0" type="line"/>
      <point x="944" y="327" type="line"/>
      <point x="985" y="340"/>
      <point x="1020" y="349"/>
      <point x="1049" y="349" type="curve" smooth="yes"/>
      <point x="1097" y="349"/>
      <point x="1128" y="323"/>
      <point x="1128" y="244" type="curve" smooth="yes"/>
      <point x="1128" y="0" type="line"/>
      <point x="1428" y="0" type="line"/>
      <point x="1428" y="352" type="line" smooth="yes"/>
      <point x="1428" y="461"/>
      <point x="1350" y="560"/>
      <point x="1172" y="560" type="curve" smooth="yes"/>
      <point x="1090" y="560"/>
      <point x="1030" y="541"/>
      <point x="944" y="501" type="curve"/>
      <point x="944" y="710" type="line"/>
      <point x="799" y="736"/>
      <point x="666" y="750"/>
      <point x="558" y="750" type="curve" smooth="yes"/>
      <point x="270" y="750"/>
      <point x="118" y="662"/>
      <point x="118" y="500" type="curve" smooth="yes"/>
      <point x="118" y="484" type="line"/>
      <point x="14" y="464" type="line"/>
      <point x="14" y="305" type="line"/>
      <point x="118" y="305" type="line"/>
    </contour>
  </outline>
</glyph>
<glyph name="f_j.liga" format="2">
  <advance width="996"/>
  <outline>
    <contour>
      <point x="616" y="-220" type="curve" smooth="yes"/>
      <point x="831" y="-220"/>
      <point x="922" y="-114"/>
      <point x="922" y="78" type="curve" smooth="yes"/>
      <point x="922" y="484" type="line"/>
      <point x="414" y="484" type="line"/>
      <point x="414" y="493" type="line" smooth="yes"/>
      <point x="414" y="535"/>
      <point x="478" y="557"/>
      <point x="600" y="557" type="curve" smooth="yes"/>
      <point x="684" y="557"/>
      <point x="830" y="542"/>
      <point x="888" y="528" type="curve"/>
      <point x="944" y="710" type="line"/>
      <point x="820" y="735"/>
      <point x="673" y="750"/>
      <point x="558" y="750" type="curve" smooth="yes"/>
      <point x="270" y="750"/>
      <point x="118" y="662"/>
      <point x="118" y="500" type="curve" smooth="yes"/>
      <point x="118" y="484" type="line"/>
      <point x="14" y="464" type="line"/>
      <point x="14" y="305" type="line"/>
      <point x="118" y="305" type="line"/>
      <point x="118" y="0" type="line"/>
      <point x="414" y="0" type="line"/>
      <point x="414" y="305" type="line"/>
      <point x="622" y="305" type="line"/>
      <point x="622" y="85" type="line" smooth="yes"/>
      <point x="622" y="13"/>
      <point x="593" y="-9"/>
      <point x="525" y="-9" type="curve" smooth="yes"/>
      <point x="520" y="-9"/>
      <point x="515" y="-9"/>
      <point x="510" y="-9" type="curve"/>
      <point x="500" y="-215" type="line"/>
      <point x="530" y="-217"/>
      <point x="587" y="-220"/>
    </contour>
  </outline>
</glyph>
<glyph name="f_k.liga" format="2">
  <advance width="1468"/>
  <outline>
    <contour>
      <point x="1375" y="-10" type="curve" smooth="yes"/>
      <point x="1405" y="-10"/>
      <point x="1417" y="-9"/>
      <point x="1428" y="-8" type="curve"/>
      <point x="1428" y="239" type="line"/>
      <point x="1417" y="238"/>
      <point x="1407" y="238"/>
      <point x="1395" y="238" type="curve" smooth="yes"/>
      <point x="1342" y="238"/>
      <point x="1285" y="252"/>
      <point x="1156" y="314" type="curve" smooth="yes"/>
      <point x="934" y="421" type="line"/>
      <point x="934" y="710" type="line"/>
      <point x="799" y="736"/>
      <point x="666" y="750"/>
      <point x="558" y="750" type="curve" smooth="yes"/>
      <point x="270" y="750"/>
      <point x="118" y="662"/>
      <point x="118" y="500" type="curve" smooth="yes"/>
      <point x="118" y="484" type="line"/>
      <point x="14" y="464" type="line"/>
      <point x="14" y="305" type="line"/>
      <point x="118" y="305" type="line"/>
      <point x="118" y="0" type="line"/>
      <point x="414" y="0" type="line"/>
      <point x="414" y="305" type="line"/>
      <point x="565" y="305" type="line"/>
      <point x="565" y="484" type="line"/>
      <point x="414" y="484" type="line"/>
      <point x="414" y="503" type="line" smooth="yes"/>
      <point x="414" y="552"/>
      <point x="471" y="564"/>
      <point x="573" y="564" type="curve" smooth="yes"/>
      <point x="595" y="564"/>
      <point x="619" y="563"/>
      <point x="644" y="561" type="curve"/>
      <point x="644" y="0" type="line"/>
      <point x="934" y="0" type="line"/>
      <point x="934" y="165" type="line"/>
      <point x="1118" y="69" type="line" smooth="yes"/>
      <point x="1247" y="2"/>
      <point x="1313" y="-10"/>
    </contour>
    <contour>
      <point x="1119" y="263" type="line"/>
      <point x="1212" y="309"/>
      <point x="1376" y="427"/>
      <point x="1425" y="550" type="curve"/>
      <point x="1103" y="560" type="line"/>
      <point x="1073" y="497"/>
      <point x="1009" y="423"/>
      <point x="831" y="293" type="curve"/>
    </contour>
  </outline>
</glyph>
<glyph name="f_t.liga" format="2">
  <advance width="1138"/>
  <outline>
    <contour>
      <point x="860" y="-10" type="curve" smooth="yes"/>
      <point x="953" y="-10"/>
      <point x="1025" y="3"/>
      <point x="1115" y="22" type="curve"/>
      <point x="1081" y="227" type="line"/>
      <point x="1023" y="217"/>
      <point x="991" y="210"/>
      <point x="962" y="210" type="curve" smooth="yes"/>
      <point x="920" y="210"/>
      <point x="904" y="224"/>
      <point x="904" y="261" type="curve" smooth="yes"/>
      <point x="904" y="331" type="line"/>
      <point x="1085" y="331" type="line"/>
      <point x="1085" y="510" type="line"/>
      <point x="904" y="510" type="line"/>
      <point x="904" y="710" type="line"/>
      <point x="814" y="729"/>
      <point x="677" y="750"/>
      <point x="539" y="750" type="curve" smooth="yes"/>
      <point x="325" y="750"/>
      <point x="118" y="697"/>
      <point x="118" y="500" type="curve" smooth="yes"/>
      <point x="118" y="490" type="line"/>
      <point x="14" y="470" type="line"/>
      <point x="14" y="331" type="line"/>
      <point x="118" y="331" type="line"/>
      <point x="118" y="0" type="line"/>
      <point x="414" y="0" type="line"/>
      <point x="414" y="331" type="line"/>
      <point x="604" y="331" type="line"/>
      <point x="604" y="247" type="line" smooth="yes"/>
      <point x="610" y="48"/>
      <point x="708" y="-10"/>
    </contour>
    <contour>
      <point x="414" y="490" type="line"/>
      <point x="414" y="503" type="line" smooth="yes"/>
      <point x="414" y="550"/>
      <point x="461" y="567"/>
      <point x="524" y="567" type="curve" smooth="yes"/>
      <point x="548" y="567"/>
      <point x="576" y="565"/>
      <point x="604" y="561" type="curve"/>
      <point x="604" y="490" type="line"/>
    </contour>
  </outline>
</glyph>
<glyph name="g.superior" format="2">
	<advance width="542"/>
	<outline>
		<contour>
			<point x="219" y="241" type="curve" smooth="yes"/>
			<point x="437" y="241"/>
			<point x="525" y="286"/>
			<point x="525" y="363" type="curve" smooth="yes"/>
			<point x="525" y="420"/>
			<point x="473" y="450"/>
			<point x="385" y="450" type="curve" smooth="yes"/>
			<point x="198" y="450" type="line" smooth="yes"/>
			<point x="183" y="450"/>
			<point x="174" y="455"/>
			<point x="174" y="473" type="curve" smooth="yes"/>
			<point x="174" y="482"/>
			<point x="180" y="488"/>
			<point x="192" y="495" type="curve"/>
			<point x="113" y="513" type="line"/>
			<point x="58" y="497"/>
			<point x="23" y="471"/>
			<point x="23" y="432" type="curve" smooth="yes"/>
			<point x="23" y="364"/>
			<point x="105" y="358"/>
			<point x="223" y="358" type="curve" smooth="yes"/>
			<point x="297" y="358" type="line" smooth="yes"/>
			<point x="337" y="358"/>
			<point x="346" y="354"/>
			<point x="346" y="345" type="curve" smooth="yes"/>
			<point x="346" y="334"/>
			<point x="315" y="328"/>
			<point x="250" y="328" type="curve" smooth="yes"/>
			<point x="188" y="328"/>
			<point x="172" y="331"/>
			<point x="172" y="346" type="curve" smooth="yes"/>
			<point x="172" y="353"/>
			<point x="176" y="356"/>
			<point x="180" y="363" type="curve"/>
			<point x="80" y="386" type="line"/>
			<point x="24" y="367"/>
			<point x="6" y="342"/>
			<point x="6" y="313" type="curve" smooth="yes"/>
			<point x="6" y="264"/>
			<point x="77" y="241"/>
		</contour>
		<contour>
			<point x="252" y="468" type="curve" smooth="yes"/>
			<point x="398" y="468"/>
			<point x="471" y="503"/>
			<point x="471" y="579" type="curve" smooth="yes"/>
			<point x="471" y="653"/>
			<point x="398" y="689"/>
			<point x="252" y="689" type="curve" smooth="yes"/>
			<point x="105" y="689"/>
			<point x="32" y="653"/>
			<point x="32" y="579" type="curve" smooth="yes"/>
			<point x="32" y="503"/>
			<point x="105" y="468"/>
		</contour>
		<contour>
			<point x="252" y="565" type="curve" smooth="yes"/>
			<point x="230" y="565"/>
			<point x="219" y="568"/>
			<point x="219" y="579" type="curve" smooth="yes"/>
			<point x="219" y="588"/>
			<point x="230" y="592"/>
			<point x="252" y="592" type="curve" smooth="yes"/>
			<point x="275" y="592"/>
			<point x="284" y="588"/>
			<point x="284" y="579" type="curve" smooth="yes"/>
			<point x="284" y="569"/>
			<point x="273" y="565"/>
		</contour>
		<contour>
			<point x="448" y="593" type="line"/>
			<point x="459" y="601"/>
			<point x="476" y="606"/>
			<point x="491" y="606" type="curve" smooth="yes"/>
			<point x="504" y="606"/>
			<point x="516" y="604"/>
			<point x="529" y="601" type="curve"/>
			<point x="542" y="703" type="line"/>
			<point x="526" y="705"/>
			<point x="507" y="705"/>
			<point x="482" y="705" type="curve" smooth="yes"/>
			<point x="437" y="705"/>
			<point x="401" y="680"/>
			<point x="395" y="641" type="curve"/>
		</contour>
	</outline>
</glyph>
<glyph name="gravecomb.case" format="2">
	<advance width="0"/>
	<anchor x="-664" y="940" name="top"/>
	<anchor x="-586" y="700" name="_top"/>
	<outline>
		<contour>
			<point x="-694" y="746" type="line"/>
			<point x="-465" y="746" type="line"/>
			<point x="-570" y="940" type="line"/>
			<point x="-864" y="940" type="line"/>
		</contour>
	</outline>
</glyph>
<glyph name="h.sc" format="2">
  <advance width="1124"/>
  <anchor x="562" y="275" name="center"/>
  <anchor x="562" y="625" name="top"/>
  <anchor x="20" y="625" name="topleft"/>
  <anchor x="562" y="0" name="bottom"/>
  <outline>
    <contour>
      <point x="80" y="0" type="line"/>
      <point x="381" y="0" type="line"/>
      <point x="381" y="185" type="line"/>
      <point x="743" y="185" type="line"/>
      <point x="743" y="0" type="line"/>
      <point x="1044" y="0" type="line"/>
      <point x="1044" y="625" type="line"/>
      <point x="743" y="625" type="line"/>
      <point x="743" y="409" type="line"/>
      <point x="381" y="409" type="line"/>
      <point x="381" y="625" type="line"/>
      <point x="80" y="625" type="line"/>
    </contour>
  </outline>
</glyph>
<glyph name="h.superior" format="2">
  <advance width="650"/>
  <outline>
    <contour>
      <point x="55" y="370" type="line"/>
      <point x="285" y="370" type="line"/>
      <point x="285" y="541" type="line"/>
      <point x="306" y="546"/>
      <point x="321" y="548"/>
      <point x="331" y="548" type="curve" smooth="yes"/>
      <point x="356" y="548"/>
      <point x="375" y="537"/>
      <point x="375" y="495" type="curve" smooth="yes"/>
      <point x="375" y="370" type="line"/>
      <point x="605" y="370" type="line"/>
      <point x="605" y="562" type="line" smooth="yes"/>
      <point x="605" y="623"/>
      <point x="552" y="691"/>
      <point x="429" y="691" type="curve" smooth="yes"/>
      <point x="339" y="691"/>
      <point x="284" y="656"/>
      <point x="284" y="656" type="curve"/>
      <point x="284" y="792" type="line"/>
      <point x="55" y="792" type="line"/>
    </contour>
  </outline>
</glyph>
<glyph name="hbar.sc" format="2">
	<advance width="1127"/>
	<outline>
		<contour>
			<point x="80" y="0" type="line"/>
			<point x="390" y="0" type="line"/>
			<point x="390" y="188" type="line"/>
			<point x="737" y="188" type="line"/>
			<point x="737" y="0" type="line"/>
			<point x="1047" y="0" type="line"/>
			<point x="1047" y="450" type="line"/>
			<point x="1106" y="450" type="line"/>
			<point x="1106" y="578" type="line"/>
			<point x="1047" y="578" type="line"/>
			<point x="1047" y="625" type="line"/>
			<point x="737" y="625" type="line"/>
			<point x="737" y="578" type="line"/>
			<point x="390" y="578" type="line"/>
			<point x="390" y="625" type="line"/>
			<point x="80" y="625" type="line"/>
			<point x="80" y="578" type="line"/>
			<point x="20" y="578" type="line"/>
			<point x="20" y="450" type="line"/>
			<point x="80" y="450" type="line"/>
		</contour>
		<contour>
			<point x="390" y="403" type="line"/>
			<point x="390" y="450" type="line"/>
			<point x="737" y="450" type="line"/>
			<point x="737" y="403" type="line"/>
		</contour>
	</outline>
</glyph>
<glyph name="i.sc" format="2">
  <advance width="461"/>
  <anchor x="381" y="0" name="ogonek"/>
  <anchor x="231" y="0" name="bottom"/>
  <anchor x="230" y="625" name="top"/>
  <outline>
    <contour>
      <point x="80" y="0" type="line"/>
      <point x="381" y="0" type="line"/>
      <point x="381" y="625" type="line"/>
      <point x="80" y="625" type="line"/>
    </contour>
  </outline>
</glyph>
<glyph name="i.sc.loclTRK" format="2">
  <advance width="461"/>
  <outline>
    <contour>
      <point x="230" y="645" type="curve" smooth="yes"/>
      <point x="360" y="645"/>
      <point x="410" y="683"/>
      <point x="410" y="755" type="curve" smooth="yes"/>
      <point x="410" y="827"/>
      <point x="360" y="865"/>
      <point x="230" y="865" type="curve" smooth="yes"/>
      <point x="100" y="865"/>
      <point x="50" y="827"/>
      <point x="50" y="755" type="curve" smooth="yes"/>
      <point x="50" y="683"/>
      <point x="100" y="645"/>
    </contour>
    <contour>
      <point x="80" y="0" type="line"/>
      <point x="381" y="0" type="line"/>
      <point x="381" y="625" type="line"/>
      <point x="80" y="625" type="line"/>
    </contour>
  </outline>
</glyph>
<glyph name="j.sc" format="2">
  <advance width="909"/>
  <anchor x="469" y="625" name="top"/>
  <anchor x="455" y="0" name="bottom"/>
  <outline>
    <contour>
      <point x="36" y="37" type="line"/>
      <point x="192" y="2"/>
      <point x="335" y="-9"/>
      <point x="452" y="-9" type="curve" smooth="yes"/>
      <point x="765" y="-9"/>
      <point x="834" y="108"/>
      <point x="834" y="273" type="curve" smooth="yes"/>
      <point x="834" y="625" type="line"/>
      <point x="110" y="625" type="line"/>
      <point x="110" y="407" type="line"/>
      <point x="532" y="407" type="line"/>
      <point x="532" y="304" type="line" smooth="yes"/>
      <point x="532" y="240"/>
      <point x="503" y="201"/>
      <point x="386" y="201" type="curve" smooth="yes"/>
      <point x="315" y="201"/>
      <point x="221" y="215"/>
      <point x="95" y="238" type="curve"/>
    </contour>
  </outline>
</glyph>
<glyph name="j.short" format="2">
	<advance width="418"/>
	<outline>
		<contour>
			<point x="364" y="550" type="line"/>
			<point x="64" y="550" type="line"/>
			<point x="64" y="85" type="line" smooth="yes"/>
			<point x="64" y="13"/>
			<point x="50" y="-9"/>
			<point x="17" y="-9" type="curve" smooth="yes"/>
			<point x="12" y="-9"/>
			<point x="7" y="-9"/>
			<point x="2" y="-9" type="curve"/>
			<point x="-8" y="-217" type="line"/>
			<point x="18" y="-220"/>
			<point x="42" y="-220"/>
			<point x="58" y="-220" type="curve" smooth="yes"/>
			<point x="273" y="-220"/>
			<point x="364" y="-114"/>
			<point x="364" y="78" type="curve" smooth="yes"/>
		</contour>
		<contour>
			<point x="214" y="570" type="curve" smooth="yes"/>
			<point x="344" y="570"/>
			<point x="394" y="608"/>
			<point x="394" y="680" type="curve" smooth="yes"/>
			<point x="394" y="752"/>
			<point x="344" y="790"/>
			<point x="214" y="790" type="curve" smooth="yes"/>
			<point x="84" y="790"/>
			<point x="34" y="752"/>
			<point x="34" y="680" type="curve" smooth="yes"/>
			<point x="34" y="608"/>
			<point x="84" y="570"/>
		</contour>
	</outline>
</glyph>
<glyph name="j.superior" format="2">
	<advance width="356"/>
	<outline>
		<contour>
			<point x="304" y="403" type="curve" smooth="yes"/>
			<point x="304" y="683" type="line"/>
			<point x="74" y="683" type="line"/>
			<point x="74" y="442" type="line"/>
			<point x="74" y="401"/>
			<point x="62" y="385"/>
			<point x="20" y="385" type="curve" smooth="yes"/>
			<point x="16" y="385"/>
			<point x="12" y="385"/>
			<point x="8" y="385" type="curve"/>
			<point x="0" y="250" type="line"/>
			<point x="28" y="246"/>
			<point x="60" y="242"/>
			<point x="96" y="242" type="curve" smooth="yes"/>
			<point x="210" y="242"/>
			<point x="304" y="284"/>
		</contour>
		<contour>
			<point x="188" y="700" type="curve" smooth="yes"/>
			<point x="272" y="700"/>
			<point x="316" y="715"/>
			<point x="316" y="768" type="curve" smooth="yes"/>
			<point x="316" y="825"/>
			<point x="273" y="840"/>
			<point x="191" y="840" type="curve" smooth="yes"/>
			<point x="107" y="840"/>
			<point x="62" y="825"/>
			<point x="62" y="768" type="curve" smooth="yes"/>
			<point x="62" y="722"/>
			<point x="106" y="700"/>
		</contour>
	</outline>
</glyph>
<glyph name="l.superior" format="2">
  <advance width="431"/>
  <outline>
    <contour>
      <point x="285" y="792" type="line"/>
      <point x="55" y="792" type="line"/>
      <point x="55" y="513" type="line" smooth="yes"/>
      <point x="55" y="405"/>
      <point x="103" y="362"/>
      <point x="232" y="362" type="curve" smooth="yes"/>
      <point x="286" y="362"/>
      <point x="345" y="375"/>
      <point x="391" y="387" type="curve"/>
      <point x="368" y="513" type="line"/>
      <point x="347" y="509"/>
      <point x="326" y="504"/>
      <point x="314" y="504" type="curve" smooth="yes"/>
      <point x="292" y="504"/>
      <point x="285" y="508"/>
      <point x="285" y="520" type="curve" smooth="yes"/>
    </contour>
  </outline>
</glyph>
<glyph name="ldot.sc" format="2">
  <advance width="928"/>
  <outline>
    <contour>
      <point x="683" y="304" type="curve" smooth="yes"/>
      <point x="801" y="304"/>
      <point x="846" y="343"/>
      <point x="846" y="418" type="curve" smooth="yes"/>
      <point x="846" y="494"/>
      <point x="801" y="533"/>
      <point x="683" y="533" type="curve" smooth="yes"/>
      <point x="565" y="533"/>
      <point x="520" y="494"/>
      <point x="520" y="418" type="curve" smooth="yes"/>
      <point x="520" y="343"/>
      <point x="565" y="304"/>
    </contour>
    <contour>
      <point x="80" y="0" type="line"/>
      <point x="899" y="0" type="line"/>
      <point x="899" y="225" type="line"/>
      <point x="381" y="225" type="line"/>
      <point x="381" y="625" type="line"/>
      <point x="80" y="625" type="line"/>
    </contour>
  </outline>
</glyph>
<glyph name="m.sc" format="2">
  <advance width="1199"/>
  <outline>
    <contour>
      <point x="80" y="0" type="line"/>
      <point x="358" y="0" type="line"/>
      <point x="358" y="293" type="line"/>
      <point x="537" y="72" type="line"/>
      <point x="658" y="72" type="line"/>
      <point x="841" y="305" type="line"/>
      <point x="841" y="0" type="line"/>
      <point x="1119" y="0" type="line"/>
      <point x="1119" y="625" type="line"/>
      <point x="833" y="625" type="line"/>
      <point x="605" y="316" type="line"/>
      <point x="375" y="625" type="line"/>
      <point x="80" y="625" type="line"/>
    </contour>
  </outline>
</glyph>
<glyph name="multiplysuperior" format="2">
	<advance width="500"/>
	<outline>
		<contour>
			<point x="154" y="398" type="line"/>
			<point x="250" y="476" type="line"/>
			<point x="346" y="398" type="line"/>
			<point x="420" y="490" type="line"/>
			<point x="343" y="551" type="line"/>
			<point x="420" y="613" type="line"/>
			<point x="346" y="705" type="line"/>
			<point x="250" y="626" type="line"/>
			<point x="154" y="705" type="line"/>
			<point x="80" y="613" type="line"/>
			<point x="157" y="551" type="line"/>
			<point x="80" y="490" type="line"/>
		</contour>
	</outline>
</glyph>
<glyph name="n.sc" format="2">
  <advance width="1038"/>
  <anchor x="519" y="625" name="top"/>
  <anchor x="519" y="0" name="bottom"/>
  <outline>
    <contour>
      <point x="80" y="0" type="line"/>
      <point x="353" y="0" type="line"/>
      <point x="353" y="263" type="line"/>
      <point x="703" y="0" type="line"/>
      <point x="958" y="0" type="line"/>
      <point x="958" y="625" type="line"/>
      <point x="685" y="625" type="line"/>
      <point x="685" y="332" type="line"/>
      <point x="336" y="625" type="line"/>
      <point x="80" y="625" type="line"/>
    </contour>
  </outline>
</glyph>
<glyph name="numbersign.tosf" format="2">
	<advance width="1050"/>
	<outline>
		<contour>
			<point x="122" y="101" type="line"/>
			<point x="160" y="101" type="line"/>
			<point x="134" y="0" type="line"/>
			<point x="415" y="0" type="line"/>
			<point x="442" y="101" type="line"/>
			<point x="516" y="101" type="line"/>
			<point x="489" y="0" type="line"/>
			<point x="771" y="0" type="line"/>
			<point x="797" y="101" type="line"/>
			<point x="905" y="101" type="line"/>
			<point x="905" y="229" type="line"/>
			<point x="831" y="229" type="line"/>
			<point x="857" y="328" type="line"/>
			<point x="929" y="328" type="line"/>
			<point x="929" y="454" type="line"/>
			<point x="890" y="454" type="line"/>
			<point x="916" y="550" type="line"/>
			<point x="636" y="550" type="line"/>
			<point x="610" y="454" type="line"/>
			<point x="535" y="454" type="line"/>
			<point x="561" y="550" type="line"/>
			<point x="279" y="550" type="line"/>
			<point x="253" y="454" type="line"/>
			<point x="146" y="454" type="line"/>
			<point x="146" y="328" type="line"/>
			<point x="220" y="328" type="line"/>
			<point x="194" y="229" type="line"/>
			<point x="122" y="229" type="line"/>
		</contour>
		<contour>
			<point x="476" y="229" type="line"/>
			<point x="502" y="328" type="line"/>
			<point x="576" y="328" type="line"/>
			<point x="550" y="229" type="line"/>
		</contour>
	</outline>
</glyph>
